M48
;Layer_Color=6321
;FILE_FORMAT=2:5
INCH,LZ
;TYPE=PLATED
T1F00S00C0.02756
T2F00S00C0.02800
T3F00S00C0.02953
T4F00S00C0.03000
T6F00S00C0.05118
T7F00S00C0.06339
%
T01
X0319961Y0265748
X0339488
X0349488
Y0295276
X0339488
X0319961
X0309961
X0290433
X0280433
X0260906
X0250906
X0231378
X0221378
Y0265748
X0231378
X0250906
X0260906
X0280433
X0290433
X0309961
X0153701Y0238189
X0143701
X0145669Y0346457
X0155669
X0127953Y037189
Y038189
Y039189
X0221378Y0383858
X0231378
X0250906
X0260906
X0280433
X0290433
X0309961
Y0354331
X0290433
X0280433
X0260906
X0250906
X0231378
X0221378
Y0324803
X0231378
X0250906
X0260906
X0280433
X0290433
X0309961
X0319961
X0339488
X0349488
Y0354331
X0339488
X0319961
Y0383858
X0339488
X0349488
T02
X04836Y02312
X04754Y0241752
X04669Y02375
X046498Y024672
X0453444Y02454
X04453Y0244
X04414Y02526
X04304Y0252
X04344Y02702
X04449Y02652
X04549Y02656
X0466535Y0263779
X0467Y02999
X04573Y03082
X04499Y03106
X04341Y02916
X03936Y02999
X03976Y02735
X0378131Y0282331
X03758Y02648
X03615Y02651
X03655Y02501
X03349Y02607
X03133Y02811
X02899Y02841
X03011Y02561
X02859Y02355
X02655Y02433
X0280547Y04035
X02849Y0436
X02335Y04079
X03449Y03927
X03709Y04035
X03682Y0354
X03674Y03346
X0348515Y0331615
X03284Y03334
X03309Y03251
X03191Y03163
X043946Y0324803
X04437Y03389
X0446Y03514
X0438
X0431636Y03589
X0420802Y03629
X04219Y03474
X04302Y03346
X04597Y03269
X046063Y0374016
X04179Y045727
X0488189Y0488189
X03649Y04719
X02889Y04748
T03
X0422802Y0277094
X0434613
X0446424
X0458235
X0153858Y0253937
X0113858
X0115827Y0332677
X0155827
X0422802Y0317094
X0434613
X0446424
X0458235
Y0385361
X0446424
X0434613
X0422802
Y0425361
X0434613
X0446424
X0458235
T04
X0125984Y0284921
Y0294921
Y0304921
X0423228Y0482283
X0433071
X0442913
X0452756
X0462598
T06
X0127953Y0431102
Y0441102
Y0451102
Y0461102
Y0471102
T07
X0344488Y0479528
X0242126
M30
