M48
;Layer_Color=6321
;FILE_FORMAT=2:5
INCH,LZ
;TYPE=PLATED
T1F00S00C0.02756
T2F00S00C0.02800
T3F00S00C0.02953
T4F00S00C0.03000
T6F00S00C0.03150
T7F00S00C0.05000
T8F00S00C0.05118
T9F00S00C0.06339
T10F00S00C0.07087
%
T01
X0340945Y0228346
X0350945
X0390157
X0400157
Y0267717
X0390157
X0350945
X0340945
Y0307087
X0350945
X0390157
X0400157
X0301732
X0291732
X025252
X024252
X0203307
X0193307
Y0267717
X0203307
X024252
X025252
X0291732
X0301732
Y0228346
X0291732
X025252
X024252
X0203307
X0193307
X014252Y033937
X013252
X0193307Y0346457
X0203307
X024252
X025252
X0291732
X0301732
Y0385827
X0291732
X025252
X024252
X0203307
X0193307
X0340945
X0350945
X0390157
X0400157
X0406693Y0410472
Y0420472
X0393701Y0431496
X0383701
X0390157Y0346457
X0400157
X0350945
X0340945
X0472441Y0383307
Y0393307
Y0403307
T02
X01874Y02157
X02722Y0221
X01529Y04035
X01444Y0409
X01529Y04665
X01874Y0450002
X02232Y04441
X0231024Y0435524
X024252Y04405
X0291732Y04351
X03114Y0418
X02065Y03955
X01783Y0403
X0359Y04336
X03791Y04407
X03906Y0444
X03832Y04611
X0396Y04687
X04369Y03931
T03
X012126Y0355591
X0132283
X0143307
X0154331
Y0395591
X0143307
X0132283
X012126
X0164961
X0176378
Y0355591
X0164961
T04
X0468898Y0216535
X0480709
X0457087
X047874Y0326772
Y0334646
Y034252
Y0350394
Y0358268
X0134252Y0482283
X0124409
T06
X0158661Y047874
X0166535
T07
X0132913Y0324921
X0142913
X0152913
T08
X0475433Y0474409
X0465433
X0455433
X0445433
X0435433
T09
X0349382Y0479307
X024702
T10
X0435433Y0432283
X0453937
Y0451181
X0435433
X0472441
Y0432283
M30
