G04 Layer_Color=20142*
%FSLAX25Y25*%
%MOIN*%
G70*
G01*
G75*
%ADD38R,0.03950X0.10642*%
%ADD39R,0.08477X0.04343*%
%ADD40R,0.08477X0.13202*%
%ADD41R,0.06115X0.04147*%
%ADD42C,0.06800*%
%ADD43C,0.05918*%
%ADD44C,0.07493*%
%ADD45C,0.12611*%
%ADD46O,0.08800X0.16800*%
%ADD47C,0.06706*%
%ADD48R,0.06706X0.06706*%
%ADD49C,0.00800*%
%ADD50R,0.00800X0.00800*%
%ADD51C,0.02300*%
%ADD52R,0.07887X0.07887*%
%ADD53C,0.07887*%
%ADD54C,0.04737*%
%ADD55C,0.01981*%
D38*
X617992Y651929D02*
D03*
X622992D02*
D03*
X627992D02*
D03*
X637992D02*
D03*
X632992D02*
D03*
X607992D02*
D03*
X612992D02*
D03*
X602992D02*
D03*
X597992D02*
D03*
X592992D02*
D03*
X667992D02*
D03*
X672992D02*
D03*
X677992D02*
D03*
X687992D02*
D03*
X682992D02*
D03*
X657992D02*
D03*
X662992D02*
D03*
X652992D02*
D03*
X647992D02*
D03*
X642992D02*
D03*
X717992D02*
D03*
X722992D02*
D03*
X727992D02*
D03*
X737992D02*
D03*
X732992D02*
D03*
X707992D02*
D03*
X712992D02*
D03*
X702992D02*
D03*
X697992D02*
D03*
X692992D02*
D03*
X742992D02*
D03*
X747992D02*
D03*
X752992D02*
D03*
X762992D02*
D03*
X757992D02*
D03*
X782992D02*
D03*
X787992D02*
D03*
X777992D02*
D03*
X772992D02*
D03*
X767992D02*
D03*
D39*
X523524Y669685D02*
D03*
Y660630D02*
D03*
Y651575D02*
D03*
D40*
X545768Y660630D02*
D03*
D41*
X566142Y665059D02*
D03*
Y658563D02*
D03*
D42*
X509842Y335827D02*
D03*
X848425Y174410D02*
D03*
X872047Y335827D02*
D03*
X879528Y551181D02*
D03*
X769685Y174410D02*
D03*
X879528Y560630D02*
D03*
X533464Y174410D02*
D03*
X612205D02*
D03*
X690945D02*
D03*
X509842Y355512D02*
D03*
X872047D02*
D03*
X876378Y604173D02*
D03*
Y614173D02*
D03*
X538543Y221654D02*
D03*
X528543D02*
D03*
X617283D02*
D03*
X607283D02*
D03*
X696024D02*
D03*
X686024D02*
D03*
X774764D02*
D03*
X764764D02*
D03*
X853504D02*
D03*
X843504D02*
D03*
X538543Y300394D02*
D03*
X528543D02*
D03*
X617283D02*
D03*
X607283D02*
D03*
X696024D02*
D03*
X686024D02*
D03*
X774764D02*
D03*
X764764D02*
D03*
X853504D02*
D03*
X843504D02*
D03*
X538543Y379134D02*
D03*
X528543D02*
D03*
X617283D02*
D03*
X607283D02*
D03*
X696023D02*
D03*
X686023D02*
D03*
X774764D02*
D03*
X764764D02*
D03*
X853504D02*
D03*
X843504D02*
D03*
X538543Y457874D02*
D03*
X528543D02*
D03*
X617283D02*
D03*
X607283D02*
D03*
X696023D02*
D03*
X686023D02*
D03*
X774764D02*
D03*
X764764D02*
D03*
X853504D02*
D03*
X843504D02*
D03*
X875984Y635197D02*
D03*
Y625197D02*
D03*
X576491Y568585D02*
D03*
Y578585D02*
D03*
Y588585D02*
D03*
X538543Y536614D02*
D03*
X528543D02*
D03*
X617283Y536614D02*
D03*
X607283D02*
D03*
X696024D02*
D03*
X686024D02*
D03*
X774764Y536614D02*
D03*
X764764D02*
D03*
X853504D02*
D03*
X843504D02*
D03*
D43*
X526614Y561024D02*
D03*
X536614D02*
D03*
X746457Y573780D02*
D03*
Y563780D02*
D03*
X655118Y548268D02*
D03*
Y558268D02*
D03*
X529370Y583071D02*
D03*
X539370D02*
D03*
X546457Y564803D02*
D03*
Y574803D02*
D03*
X609055Y589528D02*
D03*
Y579528D02*
D03*
X787008Y617165D02*
D03*
Y627165D02*
D03*
X777165Y616772D02*
D03*
Y626772D02*
D03*
X664961Y548268D02*
D03*
Y558268D02*
D03*
X644882Y547874D02*
D03*
Y557874D02*
D03*
D44*
X626008Y638643D02*
D03*
Y598643D02*
D03*
X611441Y638250D02*
D03*
Y598250D02*
D03*
X655148Y598367D02*
D03*
Y638367D02*
D03*
X639794Y598367D02*
D03*
Y638367D02*
D03*
X746539Y601010D02*
D03*
Y641010D02*
D03*
X623307Y583071D02*
D03*
X663307D02*
D03*
X846063Y576063D02*
D03*
Y616063D02*
D03*
X828661Y557480D02*
D03*
X788661D02*
D03*
X733158Y601119D02*
D03*
Y641119D02*
D03*
X828974Y568314D02*
D03*
X788974D02*
D03*
X856299Y576063D02*
D03*
Y616063D02*
D03*
X788661Y579528D02*
D03*
X828661D02*
D03*
D45*
X833465Y646850D02*
D03*
X851969D02*
D03*
X870473D02*
D03*
Y665748D02*
D03*
X851969D02*
D03*
X833465D02*
D03*
D46*
X543858Y599882D02*
D03*
X533858D02*
D03*
X523858D02*
D03*
D47*
X797598Y597205D02*
D03*
Y607205D02*
D03*
Y617205D02*
D03*
Y627205D02*
D03*
X827598Y597205D02*
D03*
Y607205D02*
D03*
Y617205D02*
D03*
X741732Y678740D02*
D03*
D48*
X827598Y627205D02*
D03*
D49*
X796851Y685433D02*
D03*
D50*
X584252D02*
D03*
D51*
X639370Y678740D02*
D03*
D52*
X873622Y681496D02*
D03*
D53*
X863622D02*
D03*
X853622D02*
D03*
X843622D02*
D03*
X833622D02*
D03*
D54*
X574000Y639531D02*
D03*
X705433Y545866D02*
D03*
X700197Y558347D02*
D03*
X620200Y564900D02*
D03*
X688100Y642700D02*
D03*
X604600Y644400D02*
D03*
X709700Y529900D02*
D03*
X710100Y624626D02*
D03*
X717800Y579500D02*
D03*
X729200Y574100D02*
D03*
X726700Y634600D02*
D03*
X600600Y634500D02*
D03*
X722300Y577100D02*
D03*
X709000Y632350D02*
D03*
X709625Y632975D02*
D03*
X718000Y533000D02*
D03*
X721000Y568100D02*
D03*
X711800Y638000D02*
D03*
X737500Y636200D02*
D03*
X729700Y564300D02*
D03*
X783886Y536614D02*
D03*
X692700Y560000D02*
D03*
Y587400D02*
D03*
X650626Y551650D02*
D03*
X627200Y554600D02*
D03*
X667300Y605100D02*
D03*
Y619600D02*
D03*
X605500Y617200D02*
D03*
X693400Y601000D02*
D03*
X700900Y624626D02*
D03*
X704700Y598250D02*
D03*
X713597Y396708D02*
D03*
X630400Y626500D02*
D03*
X702300Y592000D02*
D03*
X696000Y624000D02*
D03*
X704600Y587700D02*
D03*
X690600Y633626D02*
D03*
X689600Y634500D02*
D03*
X686300Y574450D02*
D03*
X687550Y619700D02*
D03*
X698500Y599900D02*
D03*
X686600Y569200D02*
D03*
X743500Y629100D02*
D03*
X611300Y364500D02*
D03*
X679000Y378500D02*
D03*
D55*
X705118Y569685D02*
D03*
X701181D02*
D03*
X697244D02*
D03*
Y577559D02*
D03*
X701181D02*
D03*
X705118D02*
D03*
Y573622D02*
D03*
X701181D02*
D03*
X697244D02*
D03*
X695275Y575590D02*
D03*
X699212D02*
D03*
X707086D02*
D03*
X703149D02*
D03*
Y579527D02*
D03*
X707086D02*
D03*
X699212D02*
D03*
X695275D02*
D03*
Y571653D02*
D03*
X699212D02*
D03*
X707086D02*
D03*
X703149D02*
D03*
Y567716D02*
D03*
X707086D02*
D03*
X699212D02*
D03*
X695275D02*
D03*
M02*
