G04 Layer_Color=13813960*
%FSLAX25Y25*%
%MOIN*%
G70*
G01*
G75*
%ADD14C,0.00787*%
%ADD35C,0.01000*%
%ADD36C,0.00984*%
%ADD62C,0.02362*%
%ADD63C,0.00300*%
%ADD64C,0.00200*%
D14*
X810098Y632480D02*
G03*
X815098Y632480I2500J0D01*
G01*
X682776Y605512D02*
Y678740D01*
X712500Y605512D02*
Y678740D01*
X682776Y605512D02*
X712500D01*
X682776Y678740D02*
X712500D01*
X868504Y573819D02*
Y577165D01*
Y573819D02*
X872441D01*
X868504Y582677D02*
Y586024D01*
X872441D01*
X600409Y563782D02*
Y564570D01*
X595881Y563782D02*
Y564570D01*
X513287Y571653D02*
Y572441D01*
X507972Y571653D02*
Y572441D01*
X802165Y591929D02*
X823032D01*
X802165Y632480D02*
X810098D01*
X815098D02*
X823032D01*
X802165Y591929D02*
Y632480D01*
X823032Y591929D02*
Y632480D01*
X568405Y631890D02*
Y632677D01*
X563878Y631890D02*
Y632677D01*
X580428Y601577D02*
X584365Y597640D01*
Y555514D02*
Y597640D01*
X554444Y601577D02*
X580428D01*
X554444Y555514D02*
Y601577D01*
Y555514D02*
X584365D01*
X599486Y589200D02*
Y589987D01*
X594171Y589200D02*
Y589987D01*
D35*
X690945Y584252D02*
G03*
X690945Y584252I-394J0D01*
G01*
X621508Y633643D02*
X630733D01*
Y603643D02*
Y633643D01*
X621508Y603643D02*
X630733D01*
X621508D02*
Y633643D01*
X606941Y633250D02*
X616166D01*
Y603250D02*
Y633250D01*
X606941Y603250D02*
X616166D01*
X606941D02*
Y633250D01*
X650423Y603367D02*
X659648D01*
X650423D02*
Y633367D01*
X659648D01*
Y603367D02*
Y633367D01*
X635068Y603367D02*
X644294D01*
X635068D02*
Y633367D01*
X644294D01*
Y603367D02*
Y633367D01*
X741813Y606010D02*
X751039D01*
X741813D02*
Y636010D01*
X751039D01*
Y606010D02*
Y636010D01*
X628307Y578571D02*
Y587796D01*
X658307D01*
Y578571D02*
Y587796D01*
X628307Y578571D02*
X658307D01*
X511358Y652382D02*
X556358D01*
X511358Y617382D02*
Y652382D01*
Y617382D02*
X556358D01*
Y652382D01*
X841338Y581063D02*
X850563D01*
X841338D02*
Y611063D01*
X850563D01*
Y581063D02*
Y611063D01*
X823661Y552755D02*
Y561980D01*
X793661Y552755D02*
X823661D01*
X793661D02*
Y561980D01*
X823661D01*
X728433Y606119D02*
X737658D01*
X728433D02*
Y636119D01*
X737658D01*
Y606119D02*
Y636119D01*
X823974Y563589D02*
Y572814D01*
X793974Y563589D02*
X823974D01*
X793974D02*
Y572814D01*
X823974D01*
X793661Y575028D02*
Y584253D01*
X823661D01*
Y575028D02*
Y584253D01*
X793661Y575028D02*
X823661D01*
X600595Y572626D02*
Y578624D01*
X597596D01*
X596596Y577624D01*
Y575625D01*
X597596Y574625D01*
X600595D01*
X598595D02*
X596596Y572626D01*
X590598Y578624D02*
X594597D01*
Y575625D01*
X592597Y576624D01*
X591598D01*
X590598Y575625D01*
Y573626D01*
X591598Y572626D01*
X593597D01*
X594597Y573626D01*
X588599Y578624D02*
Y574625D01*
X586599Y572626D01*
X584600Y574625D01*
Y578624D01*
X582600D02*
Y572626D01*
X579601D01*
X578602Y573626D01*
Y574625D01*
Y575625D01*
X579601Y576624D01*
X582600D01*
X576603D02*
Y573626D01*
X575603Y572626D01*
X572604D01*
Y576624D01*
X566606D02*
X569605D01*
X570604Y575625D01*
Y573626D01*
X569605Y572626D01*
X566606D01*
X564606D02*
Y578624D01*
Y574625D02*
X561607Y576624D01*
X564606Y574625D02*
X561607Y572626D01*
X568600Y640700D02*
Y646698D01*
X565601D01*
X564601Y645698D01*
Y643699D01*
X565601Y642699D01*
X568600D01*
X566601D02*
X564601Y640700D01*
X558603Y646698D02*
X562602D01*
Y643699D01*
X560603Y644699D01*
X559603D01*
X558603Y643699D01*
Y641700D01*
X559603Y640700D01*
X561602D01*
X562602Y641700D01*
X556604Y644699D02*
X554604Y640700D01*
X552605Y644699D01*
X550606Y646698D02*
Y640700D01*
X547607D01*
X546607Y641700D01*
Y642699D01*
X547607Y643699D01*
X550606D01*
X547607D01*
X546607Y644699D01*
Y645698D01*
X547607Y646698D01*
X550606D01*
X544608D02*
X542608D01*
X543608D01*
Y640700D01*
X544608D01*
X542608D01*
X535611Y645698D02*
X536610Y646698D01*
X538610D01*
X539609Y645698D01*
Y641700D01*
X538610Y640700D01*
X536610D01*
X535611Y641700D01*
Y643699D01*
X537610D01*
X532612Y640700D02*
X530612D01*
X529613Y641700D01*
Y643699D01*
X530612Y644699D01*
X532612D01*
X533611Y643699D01*
Y641700D01*
X532612Y640700D01*
X527613D02*
Y644699D01*
X524614D01*
X523615Y643699D01*
Y640700D01*
X536200Y588198D02*
X535200Y589198D01*
X533201D01*
X532201Y588198D01*
Y587199D01*
X533201Y586199D01*
X534201D01*
X533201D01*
X532201Y585199D01*
Y584200D01*
X533201Y583200D01*
X535200D01*
X536200Y584200D01*
X530202Y587199D02*
X528203Y583200D01*
X526203Y587199D01*
X524204Y588198D02*
X523204Y589198D01*
X521205D01*
X520205Y588198D01*
Y587199D01*
X521205Y586199D01*
X522204D01*
X521205D01*
X520205Y585199D01*
Y584200D01*
X521205Y583200D01*
X523204D01*
X524204Y584200D01*
X512208Y583200D02*
X510208D01*
X511208D01*
Y589198D01*
X512208D01*
X507209Y583200D02*
X505210D01*
X506210D01*
Y587199D01*
X507209D01*
X502211Y583200D02*
Y587199D01*
X499212D01*
X498212Y586199D01*
Y583200D01*
X496213Y587199D02*
Y583200D01*
Y585199D01*
X495213Y586199D01*
X494214Y587199D01*
X493214D01*
X487216Y583200D02*
X489215D01*
X490215Y584200D01*
Y586199D01*
X489215Y587199D01*
X487216D01*
X486216Y586199D01*
Y585199D01*
X490215D01*
X482218Y581201D02*
X481218D01*
X480218Y582200D01*
Y587199D01*
X483217D01*
X484217Y586199D01*
Y584200D01*
X483217Y583200D01*
X480218D01*
X801894Y592723D02*
X800895Y593722D01*
X798895D01*
X797896Y592723D01*
Y591723D01*
X798895Y590723D01*
X799895D01*
X798895D01*
X797896Y589724D01*
Y588724D01*
X798895Y587724D01*
X800895D01*
X801894Y588724D01*
X795896Y593722D02*
Y587724D01*
Y589724D01*
X791898Y593722D01*
X794897Y590723D01*
X791898Y587724D01*
X785900Y593722D02*
X787899Y592723D01*
X789898Y590723D01*
Y588724D01*
X788899Y587724D01*
X786899D01*
X785900Y588724D01*
Y589724D01*
X786899Y590723D01*
X789898D01*
X583800Y609998D02*
X582800Y610998D01*
X580801D01*
X579801Y609998D01*
Y608999D01*
X580801Y607999D01*
X581801D01*
X580801D01*
X579801Y606999D01*
Y606000D01*
X580801Y605000D01*
X582800D01*
X583800Y606000D01*
X577802Y610998D02*
Y606999D01*
X575803Y605000D01*
X573803Y606999D01*
Y610998D01*
X571804Y609998D02*
X570804Y610998D01*
X568805D01*
X567805Y609998D01*
Y608999D01*
X568805Y607999D01*
X569804D01*
X568805D01*
X567805Y606999D01*
Y606000D01*
X568805Y605000D01*
X570804D01*
X571804Y606000D01*
X559808Y610998D02*
Y605000D01*
X556809D01*
X555809Y606000D01*
Y606999D01*
X556809Y607999D01*
X559808D01*
X556809D01*
X555809Y608999D01*
Y609998D01*
X556809Y610998D01*
X559808D01*
X553810D02*
Y606000D01*
X552810Y605000D01*
X550811D01*
X549811Y606000D01*
Y610998D01*
X543813Y609998D02*
X544813Y610998D01*
X546812D01*
X547812Y609998D01*
Y606000D01*
X546812Y605000D01*
X544813D01*
X543813Y606000D01*
X541814Y610998D02*
Y605000D01*
Y606999D01*
X537815Y610998D01*
X540814Y607999D01*
X537815Y605000D01*
X551901Y698398D02*
X555900D01*
Y695399D01*
X553901Y696399D01*
X552901D01*
X551901Y695399D01*
Y693400D01*
X552901Y692400D01*
X554900D01*
X555900Y693400D01*
X549902Y696399D02*
X547903Y692400D01*
X545903Y696399D01*
X543904D02*
Y692400D01*
Y694399D01*
X542904Y695399D01*
X541904Y696399D01*
X540905D01*
X534907Y692400D02*
X536906D01*
X537906Y693400D01*
Y695399D01*
X536906Y696399D01*
X534907D01*
X533907Y695399D01*
Y694399D01*
X537906D01*
X529908Y690401D02*
X528909D01*
X527909Y691400D01*
Y696399D01*
X530908D01*
X531908Y695399D01*
Y693400D01*
X530908Y692400D01*
X527909D01*
X525910D02*
X523910D01*
X524910D01*
Y698398D01*
X525910Y697398D01*
X831394Y565524D02*
X829395D01*
X830395D01*
Y571523D01*
X831394Y570523D01*
X822397Y565524D02*
X826396D01*
X822397Y569523D01*
Y570523D01*
X823397Y571523D01*
X825396D01*
X826396Y570523D01*
X820398D02*
X819398Y571523D01*
X817399D01*
X816399Y570523D01*
Y566524D01*
X817399Y565524D01*
X819398D01*
X820398Y566524D01*
Y570523D01*
X814400Y571523D02*
Y565524D01*
Y567524D01*
X810401Y571523D01*
X813400Y568523D01*
X810401Y565524D01*
X831695Y576324D02*
X829695D01*
X830695D01*
Y582323D01*
X831695Y581323D01*
X826696D02*
X825696Y582323D01*
X823697D01*
X822697Y581323D01*
Y580323D01*
X823697Y579323D01*
X822697Y578324D01*
Y577324D01*
X823697Y576324D01*
X825696D01*
X826696Y577324D01*
Y578324D01*
X825696Y579323D01*
X826696Y580323D01*
Y581323D01*
X825696Y579323D02*
X823697D01*
X820698Y581323D02*
X819698Y582323D01*
X817699D01*
X816699Y581323D01*
Y577324D01*
X817699Y576324D01*
X819698D01*
X820698Y577324D01*
Y581323D01*
X814700Y582323D02*
Y576324D01*
Y578324D01*
X810701Y582323D01*
X813700Y579323D01*
X810701Y576324D01*
X785401Y638298D02*
X786401Y639298D01*
X788400D01*
X789400Y638298D01*
Y634300D01*
X788400Y633300D01*
X786401D01*
X785401Y634300D01*
X779403Y639298D02*
X783402D01*
Y636299D01*
X781403Y637299D01*
X780403D01*
X779403Y636299D01*
Y634300D01*
X780403Y633300D01*
X782402D01*
X783402Y634300D01*
X773405Y639298D02*
X777404D01*
Y636299D01*
X775405Y637299D01*
X774405D01*
X773405Y636299D01*
Y634300D01*
X774405Y633300D01*
X776404D01*
X777404Y634300D01*
X767407Y639298D02*
X771406D01*
Y636299D01*
X769407Y637299D01*
X768407D01*
X767407Y636299D01*
Y634300D01*
X768407Y633300D01*
X770406D01*
X771406Y634300D01*
X607401Y602698D02*
X608401Y603698D01*
X610400D01*
X611400Y602698D01*
Y598700D01*
X610400Y597700D01*
X608401D01*
X607401Y598700D01*
X605402Y597700D02*
X603403D01*
X604402D01*
Y601699D01*
X605402D01*
X598404Y595701D02*
X597404D01*
X596405Y596700D01*
Y601699D01*
X599404D01*
X600404Y600699D01*
Y598700D01*
X599404Y597700D01*
X596405D01*
X594406Y603698D02*
Y597700D01*
X591406D01*
X590407Y598700D01*
Y599699D01*
X591406Y600699D01*
X594406D01*
X591406D01*
X590407Y601699D01*
Y602698D01*
X591406Y603698D01*
X594406D01*
X588407D02*
Y598700D01*
X587408Y597700D01*
X585408D01*
X584409Y598700D01*
Y603698D01*
X578411Y602698D02*
X579410Y603698D01*
X581410D01*
X582409Y602698D01*
Y598700D01*
X581410Y597700D01*
X579410D01*
X578411Y598700D01*
X576411Y603698D02*
Y597700D01*
Y599699D01*
X572413Y603698D01*
X575412Y600699D01*
X572413Y597700D01*
X534801Y574398D02*
X535801Y575398D01*
X537800D01*
X538800Y574398D01*
Y570400D01*
X537800Y569400D01*
X535801D01*
X534801Y570400D01*
X532802Y569400D02*
X530803D01*
X531802D01*
Y573399D01*
X532802D01*
X525804Y567401D02*
X524804D01*
X523805Y568400D01*
Y573399D01*
X526804D01*
X527804Y572399D01*
Y570400D01*
X526804Y569400D01*
X523805D01*
X515807Y573399D02*
Y569400D01*
Y571399D01*
X514808Y572399D01*
X513808Y573399D01*
X512808D01*
X506810Y569400D02*
X508810D01*
X509809Y570400D01*
Y572399D01*
X508810Y573399D01*
X506810D01*
X505811Y572399D01*
Y571399D01*
X509809D01*
X501812Y567401D02*
X500812D01*
X499813Y568400D01*
Y573399D01*
X502812D01*
X503811Y572399D01*
Y570400D01*
X502812Y569400D01*
X499813D01*
X544801Y587998D02*
X545801Y588998D01*
X547800D01*
X548800Y587998D01*
Y584000D01*
X547800Y583000D01*
X545801D01*
X544801Y584000D01*
X542802Y583000D02*
X540803D01*
X541802D01*
Y586999D01*
X542802D01*
X535804Y581001D02*
X534804D01*
X533805Y582000D01*
Y586999D01*
X536804D01*
X537804Y585999D01*
Y584000D01*
X536804Y583000D01*
X533805D01*
X537501Y596398D02*
X538501Y597398D01*
X540500D01*
X541500Y596398D01*
Y592400D01*
X540500Y591400D01*
X538501D01*
X537501Y592400D01*
X534502Y591400D02*
X532503D01*
X531503Y592400D01*
Y594399D01*
X532503Y595399D01*
X534502D01*
X535502Y594399D01*
Y592400D01*
X534502Y591400D01*
X527504Y589401D02*
X526505D01*
X525505Y590400D01*
Y595399D01*
X528504D01*
X529504Y594399D01*
Y592400D01*
X528504Y591400D01*
X525505D01*
X769185Y642237D02*
X770185Y643237D01*
X772185D01*
X773184Y642237D01*
Y638238D01*
X772185Y637239D01*
X770185D01*
X769185Y638238D01*
X766187Y637239D02*
X764187D01*
X763188Y638238D01*
Y640238D01*
X764187Y641237D01*
X766187D01*
X767186Y640238D01*
Y638238D01*
X766187Y637239D01*
X761188Y635239D02*
Y641237D01*
X758189D01*
X757189Y640238D01*
Y638238D01*
X758189Y637239D01*
X761188D01*
X754190Y642237D02*
Y641237D01*
X755190D01*
X753191D01*
X754190D01*
Y638238D01*
X753191Y637239D01*
X653501Y569398D02*
X654501Y570398D01*
X656500D01*
X657500Y569398D01*
Y565400D01*
X656500Y564400D01*
X654501D01*
X653501Y565400D01*
X651502Y568399D02*
X649503Y564400D01*
X647503Y568399D01*
X641505D02*
X644504D01*
X645504Y567399D01*
Y565400D01*
X644504Y564400D01*
X641505D01*
X635507Y568399D02*
X638506D01*
X639506Y567399D01*
Y565400D01*
X638506Y564400D01*
X635507D01*
X633508D02*
X631508D01*
X632508D01*
Y570398D01*
X633508Y569398D01*
X678285Y540825D02*
X679284Y541825D01*
X681284D01*
X682283Y540825D01*
Y536827D01*
X681284Y535827D01*
X679284D01*
X678285Y536827D01*
X676285Y539825D02*
X674286Y535827D01*
X672287Y539825D01*
X666289D02*
X669288D01*
X670287Y538826D01*
Y536827D01*
X669288Y535827D01*
X666289D01*
X660291Y539825D02*
X663290D01*
X664289Y538826D01*
Y536827D01*
X663290Y535827D01*
X660291D01*
X654292D02*
X658291D01*
X654292Y539825D01*
Y540825D01*
X655292Y541825D01*
X657292D01*
X658291Y540825D01*
X643201Y568998D02*
X644201Y569998D01*
X646200D01*
X647200Y568998D01*
Y565000D01*
X646200Y564000D01*
X644201D01*
X643201Y565000D01*
X641202Y567999D02*
X639203Y564000D01*
X637203Y567999D01*
X631205D02*
X634204D01*
X635204Y566999D01*
Y565000D01*
X634204Y564000D01*
X631205D01*
X625207Y567999D02*
X628206D01*
X629206Y566999D01*
Y565000D01*
X628206Y564000D01*
X625207D01*
X623208Y568998D02*
X622208Y569998D01*
X620209D01*
X619209Y568998D01*
Y567999D01*
X620209Y566999D01*
X621208D01*
X620209D01*
X619209Y565999D01*
Y565000D01*
X620209Y564000D01*
X622208D01*
X623208Y565000D01*
X744801Y584898D02*
X745801Y585898D01*
X747800D01*
X748800Y584898D01*
Y580900D01*
X747800Y579900D01*
X745801D01*
X744801Y580900D01*
X742802Y583899D02*
X740803Y579900D01*
X738803Y583899D01*
X736804Y579900D02*
X734804D01*
X735804D01*
Y583899D01*
X736804D01*
X730806Y579900D02*
X728806D01*
X727807Y580900D01*
Y582899D01*
X728806Y583899D01*
X730806D01*
X731806Y582899D01*
Y580900D01*
X730806Y579900D01*
X724200Y688998D02*
X722201D01*
X723200D01*
Y683000D01*
X724200D01*
X722201D01*
X715203D02*
X719202D01*
X715203Y686999D01*
Y687998D01*
X716203Y688998D01*
X718202D01*
X719202Y687998D01*
X709205D02*
X710205Y688998D01*
X712204D01*
X713204Y687998D01*
Y684000D01*
X712204Y683000D01*
X710205D01*
X709205Y684000D01*
X701207Y688998D02*
Y683000D01*
X697209D01*
X691211Y688998D02*
X695209D01*
Y683000D01*
X691211D01*
X695209Y685999D02*
X693210D01*
X689211Y688998D02*
Y683000D01*
X686212D01*
X685213Y684000D01*
Y687998D01*
X686212Y688998D01*
X689211D01*
X677215D02*
Y683000D01*
X674216D01*
X673216Y684000D01*
Y687998D01*
X674216Y688998D01*
X677215D01*
X671217Y683000D02*
Y688998D01*
X668218D01*
X667218Y687998D01*
Y685999D01*
X668218Y684999D01*
X671217D01*
X669218D02*
X667218Y683000D01*
X665219Y688998D02*
X663220D01*
X664219D01*
Y683000D01*
X665219D01*
X663220D01*
X660221Y688998D02*
Y684999D01*
X658221Y683000D01*
X656222Y684999D01*
Y688998D01*
X650224D02*
X654223D01*
Y683000D01*
X650224D01*
X654223Y685999D02*
X652223D01*
X648225Y683000D02*
Y688998D01*
X645226D01*
X644226Y687998D01*
Y685999D01*
X645226Y684999D01*
X648225D01*
X646225D02*
X644226Y683000D01*
X729512Y556698D02*
Y558697D01*
Y557697D01*
X723514D01*
Y556698D01*
Y558697D01*
X728512Y565695D02*
X729512Y564695D01*
Y562696D01*
X728512Y561696D01*
X727513D01*
X726513Y562696D01*
Y564695D01*
X725513Y565695D01*
X724514D01*
X723514Y564695D01*
Y562696D01*
X724514Y561696D01*
X728512Y571693D02*
X729512Y570693D01*
Y568694D01*
X728512Y567694D01*
X727513D01*
X726513Y568694D01*
Y570693D01*
X725513Y571693D01*
X724514D01*
X723514Y570693D01*
Y568694D01*
X724514Y567694D01*
X729512Y573692D02*
Y575692D01*
Y574692D01*
X723514D01*
Y573692D01*
Y575692D01*
X737200Y649900D02*
Y655898D01*
X734201D01*
X733201Y654898D01*
Y652899D01*
X734201Y651899D01*
X737200D01*
X735201D02*
X733201Y649900D01*
X731202D02*
X729203D01*
X730202D01*
Y655898D01*
X731202Y654898D01*
X726204Y653899D02*
Y650900D01*
X725204Y649900D01*
X722205D01*
Y653899D01*
X720205Y647901D02*
Y653899D01*
X717206D01*
X716207Y652899D01*
Y650900D01*
X717206Y649900D01*
X720205D01*
X750500Y649800D02*
Y655798D01*
X747501D01*
X746501Y654798D01*
Y652799D01*
X747501Y651799D01*
X750500D01*
X748501D02*
X746501Y649800D01*
X740503D02*
X744502D01*
X740503Y653799D01*
Y654798D01*
X741503Y655798D01*
X743502D01*
X744502Y654798D01*
X738504Y653799D02*
Y650800D01*
X737504Y649800D01*
X734505D01*
Y653799D01*
X732506Y647801D02*
Y653799D01*
X729507D01*
X728507Y652799D01*
Y650800D01*
X729507Y649800D01*
X732506D01*
X850100Y622800D02*
Y628798D01*
X847101D01*
X846101Y627798D01*
Y625799D01*
X847101Y624799D01*
X850100D01*
X848101D02*
X846101Y622800D01*
X840103D02*
X844102D01*
X840103Y626799D01*
Y627798D01*
X841103Y628798D01*
X843102D01*
X844102Y627798D01*
X514800Y583600D02*
Y589598D01*
X511801D01*
X510801Y588598D01*
Y586599D01*
X511801Y585599D01*
X514800D01*
X512801D02*
X510801Y583600D01*
X508802Y588598D02*
X507802Y589598D01*
X505803D01*
X504803Y588598D01*
Y587599D01*
X505803Y586599D01*
X506803D01*
X505803D01*
X504803Y585599D01*
Y584600D01*
X505803Y583600D01*
X507802D01*
X508802Y584600D01*
X502804Y587599D02*
X500805Y583600D01*
X498805Y587599D01*
X496806Y588598D02*
X495806Y589598D01*
X493807D01*
X492807Y588598D01*
Y587599D01*
X493807Y586599D01*
X494806D01*
X493807D01*
X492807Y585599D01*
Y584600D01*
X493807Y583600D01*
X495806D01*
X496806Y584600D01*
X489808Y583600D02*
X487809D01*
X486809Y584600D01*
Y586599D01*
X487809Y587599D01*
X489808D01*
X490808Y586599D01*
Y584600D01*
X489808Y583600D01*
X484810D02*
Y587599D01*
X481811D01*
X480811Y586599D01*
Y583600D01*
X601025Y601180D02*
Y607178D01*
X598026D01*
X597026Y606179D01*
Y604179D01*
X598026Y603180D01*
X601025D01*
X599026D02*
X597026Y601180D01*
X595027Y607178D02*
Y601180D01*
X592028D01*
X591028Y602180D01*
Y603180D01*
X592028Y604179D01*
X595027D01*
X592028D01*
X591028Y605179D01*
Y606179D01*
X592028Y607178D01*
X595027D01*
X589029Y605179D02*
Y602180D01*
X588029Y601180D01*
X585030D01*
Y605179D01*
X579032D02*
X582031D01*
X583031Y604179D01*
Y602180D01*
X582031Y601180D01*
X579032D01*
X577033D02*
Y607178D01*
Y603180D02*
X574034Y605179D01*
X577033Y603180D02*
X574034Y601180D01*
X570035D02*
X568036D01*
X567036Y602180D01*
Y604179D01*
X568036Y605179D01*
X570035D01*
X571035Y604179D01*
Y602180D01*
X570035Y601180D01*
X565037D02*
Y605179D01*
X562038D01*
X561038Y604179D01*
Y601180D01*
X666100Y591300D02*
Y597298D01*
X663101D01*
X662101Y596298D01*
Y594299D01*
X663101Y593299D01*
X666100D01*
X664101D02*
X662101Y591300D01*
X656103Y597298D02*
X660102D01*
Y591300D01*
X656103D01*
X660102Y594299D02*
X658103D01*
X654104Y597298D02*
X650105Y591300D01*
Y597298D02*
X654104Y591300D01*
X648106Y597298D02*
X644107D01*
X646106D01*
Y591300D01*
X630200Y645400D02*
Y651398D01*
X627201D01*
X626201Y650398D01*
Y648399D01*
X627201Y647399D01*
X630200D01*
X628201D02*
X626201Y645400D01*
X624202D02*
X622203D01*
X623202D01*
Y649399D01*
X624202D01*
X619204Y645400D02*
X617204D01*
X618204D01*
Y649399D01*
X619204D01*
X610207D02*
X613205D01*
X614205Y648399D01*
Y646400D01*
X613205Y645400D01*
X610207D01*
X608207Y649399D02*
Y645400D01*
Y647399D01*
X607207Y648399D01*
X606208Y649399D01*
X605208D01*
X602209Y645400D02*
X599210D01*
X598210Y646400D01*
X599210Y647399D01*
X601209D01*
X602209Y648399D01*
X601209Y649399D01*
X598210D01*
X595211Y650398D02*
Y649399D01*
X596211D01*
X594212D01*
X595211D01*
Y646400D01*
X594212Y645400D01*
X615700Y645000D02*
Y650998D01*
X612701D01*
X611701Y649998D01*
Y647999D01*
X612701Y646999D01*
X615700D01*
X613701D02*
X611701Y645000D01*
X609702D02*
X606703D01*
X605703Y646000D01*
X606703Y646999D01*
X608702D01*
X609702Y647999D01*
X608702Y648999D01*
X605703D01*
X599705Y650998D02*
Y645000D01*
X602704D01*
X603704Y646000D01*
Y647999D01*
X602704Y648999D01*
X599705D01*
X596706D02*
X594707D01*
X593707Y647999D01*
Y645000D01*
X596706D01*
X597706Y646000D01*
X596706Y646999D01*
X593707D01*
X643800Y645100D02*
Y651098D01*
X640801D01*
X639801Y650098D01*
Y648099D01*
X640801Y647099D01*
X643800D01*
X641801D02*
X639801Y645100D01*
X637802D02*
X634803D01*
X633803Y646100D01*
X634803Y647099D01*
X636802D01*
X637802Y648099D01*
X636802Y649099D01*
X633803D01*
X627805Y651098D02*
Y645100D01*
X630804D01*
X631804Y646100D01*
Y648099D01*
X630804Y649099D01*
X627805D01*
X625806Y651098D02*
Y645100D01*
X622807D01*
X621807Y646100D01*
Y647099D01*
Y648099D01*
X622807Y649099D01*
X625806D01*
X659100Y645100D02*
Y651098D01*
X656101D01*
X655101Y650098D01*
Y648099D01*
X656101Y647099D01*
X659100D01*
X657101D02*
X655101Y645100D01*
X653102D02*
X650103D01*
X649103Y646100D01*
X650103Y647099D01*
X652102D01*
X653102Y648099D01*
X652102Y649099D01*
X649103D01*
X643105Y651098D02*
Y645100D01*
X646104D01*
X647104Y646100D01*
Y648099D01*
X646104Y649099D01*
X643105D01*
X641106Y645100D02*
X639107D01*
X640106D01*
Y651098D01*
X641106D01*
X871801Y680098D02*
X872801Y681098D01*
X874800D01*
X875800Y680098D01*
Y679099D01*
X874800Y678099D01*
X872801D01*
X871801Y677099D01*
Y676100D01*
X872801Y675100D01*
X874800D01*
X875800Y676100D01*
X869802Y681098D02*
Y675100D01*
X867803Y677099D01*
X865803Y675100D01*
Y681098D01*
X878200Y596998D02*
Y592000D01*
X877200Y591000D01*
X875201D01*
X874201Y592000D01*
Y596998D01*
X872202Y591000D02*
X870203D01*
X871202D01*
Y596998D01*
X872202Y595998D01*
X830000Y642298D02*
Y637300D01*
X829000Y636300D01*
X827001D01*
X826001Y637300D01*
Y642298D01*
X820003D02*
X824002D01*
Y639299D01*
X822003Y640299D01*
X821003D01*
X820003Y639299D01*
Y637300D01*
X821003Y636300D01*
X823002D01*
X824002Y637300D01*
X814005Y642298D02*
X818004D01*
Y639299D01*
X816004Y640299D01*
X815005D01*
X814005Y639299D01*
Y637300D01*
X815005Y636300D01*
X817004D01*
X818004Y637300D01*
X808007Y642298D02*
X812006D01*
Y639299D01*
X810007Y640299D01*
X809007D01*
X808007Y639299D01*
Y637300D01*
X809007Y636300D01*
X811006D01*
X812006Y637300D01*
D36*
X676673Y606280D02*
G03*
X676673Y606280I-492J0D01*
G01*
X876870Y587008D02*
G03*
X876870Y587008I-492J0D01*
G01*
X828091Y632323D02*
G03*
X828091Y632323I-492J0D01*
G01*
D62*
X687894Y609449D02*
G03*
X687894Y609449I-1181J0D01*
G01*
X820276Y628543D02*
G03*
X820276Y628543I-1181J0D01*
G01*
D63*
X539614Y563624D02*
Y564224D01*
X523614Y563624D02*
Y564224D01*
Y557824D02*
Y558424D01*
X539614Y557824D02*
Y558524D01*
X523614Y557824D02*
X539614D01*
X523614Y564224D02*
X539614D01*
X749057Y560780D02*
X749657D01*
X749057Y576780D02*
X749657D01*
X743257D02*
X743857D01*
X743257Y560780D02*
X743957D01*
X743257D02*
Y576780D01*
X749657Y560780D02*
Y576780D01*
X651918Y561268D02*
X652518D01*
X651918Y545268D02*
X652518D01*
X657718D02*
X658318D01*
X657618Y561268D02*
X658318D01*
Y545268D02*
Y561268D01*
X651918Y545268D02*
Y561268D01*
X542370Y585671D02*
Y586271D01*
X526370Y585671D02*
Y586271D01*
Y579871D02*
Y580471D01*
X542370Y579871D02*
Y580571D01*
X526370Y579871D02*
X542370D01*
X526370Y586271D02*
X542370D01*
X543257Y577803D02*
X543857D01*
X543257Y561803D02*
X543857D01*
X549057D02*
X549657D01*
X548957Y577803D02*
X549657D01*
Y561803D02*
Y577803D01*
X543257Y561803D02*
Y577803D01*
X611655Y576528D02*
X612255D01*
X611655Y592528D02*
X612255D01*
X605855D02*
X606455D01*
X605855Y576528D02*
X606555D01*
X605855D02*
Y592528D01*
X612255Y576528D02*
Y592528D01*
X783808Y630165D02*
X784408D01*
X783808Y614165D02*
X784408D01*
X789608D02*
X790208D01*
X789508Y630165D02*
X790208D01*
Y614165D02*
Y630165D01*
X783808Y614165D02*
Y630165D01*
X773965Y629772D02*
X774565D01*
X773965Y613772D02*
X774565D01*
X779765D02*
X780365D01*
X779665Y629772D02*
X780365D01*
Y613772D02*
Y629772D01*
X773965Y613772D02*
Y629772D01*
X661761Y561268D02*
X662361D01*
X661761Y545268D02*
X662361D01*
X667561D02*
X668161D01*
X667461Y561268D02*
X668161D01*
Y545268D02*
Y561268D01*
X661761Y545268D02*
Y561268D01*
X641682Y560874D02*
X642282D01*
X641682Y544874D02*
X642282D01*
X647482D02*
X648082D01*
X647382Y560874D02*
X648082D01*
Y544874D02*
Y560874D01*
X641682Y544874D02*
Y560874D01*
D64*
X527146Y566091D02*
Y578091D01*
Y566091D02*
X532146D01*
Y576591D01*
X530646Y578091D02*
X532146Y576591D01*
X527146Y578091D02*
X530646D01*
M02*
