M48
;Layer_Color=6321
;FILE_FORMAT=2:5
INCH,LZ
;TYPE=PLATED
T1F00S00C0.02756
T2F00S00C0.02800
T3F00S00C0.02953
T4F00S00C0.03000
T6F00S00C0.06339
%
T01
X0163543Y0295276
X0177165
X0187165
X0200787
X0210787
X0224409
X0234409
X0248032
X0258032
X0153543
Y0314961
Y0334646
Y0354331
Y0374016
X0163543
X0177165Y0374016
X0187165
X0200787Y0374016
X0210787
X0224409
X0234409
X0248032
X0258032
Y0354331
X0248032
X0234409
X0224409
X0210787
X0200787
X0187165
X0177165
X0163543
Y0334646
X0177165
X0187165
X0200787
X0210787
X0224409
X0234409
X0248032
X0258032
Y0314961
X0248032
X0234409
X0224409
X0210787
X0200787
X0187165
X0177165
X0163543
X0241969Y0433071
X0251969
X026378Y0444882
Y0454882
X0261654Y0413386
X0271654
X0281654
T02
X0102421Y03786
X01085Y04474
X0117Y04434
X0263228Y0461
X0215806Y04799
T03
X0188662Y0433071
Y0452756
X0228662
Y0433071
T04
X0094488Y0334646
Y0354331
X0307087
Y0334646
X030315Y0377323
Y0387323
Y0397323
Y0407323
Y0417323
T06
X0251969Y0497244
X0149606
M30
