0
SECTION
2
HEADER
9
$INSUNITS
70
4
9
$ACADVER
1
AC1014
9
$HANDSEED
5
FFFF
0
ENDSEC
0
SECTION
2
TABLES
0
TABLE
2
VPORT
5
8
100
AcDbSymbolTable
0
ENDTAB
0
TABLE
2
LTYPE
5
5
100
AcDbSymbolTable
0
LTYPE
5
14
100
AcDbSymbolTableRecord
100
AcDbLinetypeTableRecord
2
BYBLOCK
70
0
0
LTYPE
5
15
100
AcDbSymbolTableRecord
100
AcDbLinetypeTableRecord
2
BYLAYER
70
0
0
ENDTAB
0
TABLE
2
LAYER
5
2
100
AcDbSymbolTable
70
2
0
LAYER
5
50
100
AcDbSymbolTableRecord
100
AcDbLayerTableRecord
2
0
70
0
6
CONTINUOUS
0
ENDTAB
0
TABLE
2
STYLE
5
3
100
AcDbSymbolTable
70
1
0
STYLE
5
11
100
AcDbSymbolTableRecord
100
AcDbTextStyleTableRecord
2
STANDARD
70
0
0
ENDTAB
0
TABLE
2
VIEW
5
6
100
AcDbSymbolTable
70
0
0
ENDTAB
0
TABLE
2
UCS
5
7
100
AcDbSymbolTable
70
0
0
ENDTAB
0
TABLE
2
APPID
5
9
100
AcDbSymbolTable
70
2
0
APPID
5
12
100
AcDbSymbolTableRecord
100
AcDbRegAppTableRecord
2
ACAD
70
0
0
ENDTAB
0
TABLE
2
DIMSTYLE
5
A
100
AcDbSymbolTable
70
1
0
ENDTAB
0
TABLE
2
BLOCK_RECORD
5
1
100
AcDbSymbolTable
70
1
0
BLOCK_RECORD
5
1F
100
AcDbSymbolTableRecord
100
AcDbBlockTableRecord
2
*MODEL_SPACE
0
BLOCK_RECORD
5
1B
100
AcDbSymbolTableRecord
100
AcDbBlockTableRecord
2
*PAPER_SPACE
0
ENDTAB
0
ENDSEC
0
SECTION
2
BLOCKS
0
BLOCK
5
20
100
AcDbEntity
100
AcDbBlockBegin
2
*MODEL_SPACE
0
ENDBLK
5
21
100
AcDbEntity
100
AcDbBlockEnd
0
BLOCK
5
1C
100
AcDbEntity
100
AcDbBlockBegin
2
*PAPER_SPACE
0
ENDBLK
5
1D
100
AcDbEntity
100
AcDbBlockEnd
0
ENDSEC
0
SECTION
2
ENTITIES
0
LWPOLYLINE
5
100
100
AcDbEntity
8
0
100
AcDbPolyline
90
22
70
1
43
0.0
10
240
20
1.3322676295501878e-14
10
159.5
20
3.8857805861880479e-15
42
0.41421356237309837
10
154.5
20
-4.9999999999999822
10
154.5
20
-35
10
163.5
20
-34.999999999999993
42
0.41421356237308854
10
164.50000000000003
20
-34
10
164.50000000000003
20
-11
42
-0.41421356237309243
10
165.50000000000006
20
-9.9999999999999947
10
228.99999999999994
20
-10.00000000000002
42
0.41421356237306933
10
229.99999999999997
20
-9.0000000000000231
10
229.99999999999997
20
-6.0000000000000195
42
-0.41421356237306867
10
230.99999999999997
20
-5.0000000000000195
10
239.99999999999997
20
-5
42
-0.41421356237309215
10
244.99999999999997
20
-10.000000000000021
10
244.99999999999997
20
-24.000000000000021
42
-0.414213562373069
10
243.99999999999994
20
-25.000000000000021
10
240.99999999999994
20
-25.000000000000028
42
0.41421356237305862
10
239.99999999999997
20
-26.000000000000021
10
240
20
-28.999999999999993
42
0.41421356237308593
10
241
20
-29.999999999999979
10
250
20
-29.999999999999986
10
250
20
-9.9999999999999982
42
0.41421356237309326
0
LWPOLYLINE
5
101
100
AcDbEntity
8
0
100
AcDbPolyline
90
14
70
1
43
0.0
10
10
20
-200
42
-0.41421356237309337
10
-1.1102230246251565e-14
20
-190
10
-3.3306690738754696e-14
20
-59.99999999999973
10
9
20
-59.99999999999973
42
-0.41421356237309664
10
10.000000000000002
20
-60.99999999999973
10
10.000000000000021
20
-188.99999999999994
42
0.41421356237306839
10
11.000000000000014
20
-189.99999999999997
10
239
20
-189.99999999999997
42
0.41421356237304302
10
239.99999999999997
20
-188.99999999999994
10
240
20
-60.999999999999979
42
-0.41421356237308982
10
241
20
-59.999999999999986
10
250
20
-59.999999999999986
10
250
20
-190
42
-0.41421356237309293
10
240
20
-200
0
LWPOLYLINE
5
102
100
AcDbEntity
8
0
100
AcDbPolyline
90
14
70
1
43
0.0
10
0
20
-10
42
-0.41421356237309553
10
10
20
2.2204460492503131e-15
10
90.500000000000028
20
-6.6613381477509392e-15
42
-0.41421356237309359
10
95.5
20
-5
10
95.5
20
-35
10
86.5
20
-35
42
-0.41421356237309631
10
85.5
20
-34
10
85.5
20
-11
42
0.41421356237310086
10
84.5
20
-10.000000000000002
10
10.999999999999989
20
-10
42
0.41421356237310347
10
9.9999999999999911
20
-11.000000000000014
10
10.000000141168893
20
-28.999999992157015
42
-0.41421356467017351
10
9.0000001411688952
20
-29.999999999999734
10
0
20
-29.999999999999734
0
ENDSEC
0
SECTION
2
OBJECTS
0
DICTIONARY
5
C
100
AcDbDictionary
3
ACAD_GROUP
350
D
3
ACAD_MLINESTYLE
350
17
0
DICTIONARY
5
D
100
AcDbDictionary
0
DICTIONARY
5
1A
330
C
100
AcDbDictionary
0
DICTIONARY
5
17
100
AcDbDictionary
0
ENDSEC
0
EOF
