G04 Layer_Physical_Order=2*
G04 Layer_Color=11436288*
%FSLAX25Y25*%
%MOIN*%
G70*
G01*
G75*
%ADD13C,0.01000*%
%ADD14C,0.06000*%
%ADD15C,0.06693*%
%ADD16R,0.01969X0.07087*%
%ADD17C,0.05906*%
%ADD18C,0.01500*%
%ADD19C,0.05118*%
%ADD20R,0.06000X0.06000*%
%ADD21C,0.05000*%
G36*
X322835Y511311D02*
Y287402D01*
X79240D01*
X78740Y287402D01*
Y511811D01*
X322335Y511811D01*
X322835Y511311D01*
D02*
G37*
%LPC*%
G36*
X307087Y358365D02*
X306042Y358228D01*
X305069Y357825D01*
X304234Y357184D01*
X303593Y356348D01*
X303190Y355375D01*
X303052Y354331D01*
X303190Y353287D01*
X303593Y352313D01*
X304234Y351478D01*
X305069Y350837D01*
X306042Y350434D01*
X307087Y350296D01*
X308131Y350434D01*
X309104Y350837D01*
X309939Y351478D01*
X310581Y352313D01*
X310984Y353287D01*
X311121Y354331D01*
X310984Y355375D01*
X310581Y356348D01*
X309939Y357184D01*
X309104Y357825D01*
X308131Y358228D01*
X307087Y358365D01*
D02*
G37*
G36*
X253462Y360429D02*
X238979D01*
X238490Y360332D01*
X238393Y360313D01*
X237897Y359981D01*
X235942Y358026D01*
X235454Y358228D01*
X234409Y358365D01*
X233365Y358228D01*
X232877Y358026D01*
X230922Y359981D01*
X230426Y360313D01*
X229840Y360429D01*
X215357D01*
X214868Y360332D01*
X214771Y360313D01*
X214275Y359981D01*
X212319Y358026D01*
X211832Y358228D01*
X210787Y358365D01*
X209743Y358228D01*
X209255Y358026D01*
X207300Y359981D01*
X206803Y360313D01*
X206218Y360429D01*
X191735D01*
X191246Y360332D01*
X191149Y360313D01*
X190653Y359981D01*
X188698Y358026D01*
X188210Y358228D01*
X187165Y358365D01*
X186121Y358228D01*
X185633Y358026D01*
X183678Y359981D01*
X183182Y360313D01*
X182596Y360429D01*
X168113D01*
X167624Y360332D01*
X167527Y360313D01*
X167031Y359981D01*
X165076Y358026D01*
X164588Y358228D01*
X163543Y358365D01*
X162499Y358228D01*
X161526Y357825D01*
X160691Y357184D01*
X160049Y356348D01*
X159646Y355375D01*
X159509Y354331D01*
X159646Y353287D01*
X160049Y352313D01*
X160691Y351478D01*
X161526Y350837D01*
X162499Y350434D01*
X163543Y350296D01*
X164588Y350434D01*
X165561Y350837D01*
X166396Y351478D01*
X167037Y352313D01*
X167440Y353287D01*
X167578Y354331D01*
X167440Y355375D01*
X167238Y355863D01*
X168746Y357371D01*
X173826D01*
X174072Y356871D01*
X173671Y356348D01*
X173268Y355375D01*
X173131Y354331D01*
X173268Y353287D01*
X173671Y352313D01*
X174313Y351478D01*
X175148Y350837D01*
X176121Y350434D01*
X177165Y350296D01*
X178210Y350434D01*
X179183Y350837D01*
X180018Y351478D01*
X180659Y352313D01*
X181062Y353287D01*
X181200Y354331D01*
X181062Y355375D01*
X180659Y356348D01*
X180258Y356871D01*
X180505Y357371D01*
X181963D01*
X183470Y355863D01*
X183268Y355375D01*
X183131Y354331D01*
X183268Y353287D01*
X183671Y352313D01*
X184313Y351478D01*
X185148Y350837D01*
X186121Y350434D01*
X187165Y350296D01*
X188210Y350434D01*
X189183Y350837D01*
X190018Y351478D01*
X190659Y352313D01*
X191062Y353287D01*
X191200Y354331D01*
X191062Y355375D01*
X190860Y355863D01*
X192368Y357371D01*
X197448D01*
X197694Y356871D01*
X197293Y356348D01*
X196890Y355375D01*
X196753Y354331D01*
X196890Y353287D01*
X197293Y352313D01*
X197935Y351478D01*
X198770Y350837D01*
X199743Y350434D01*
X200787Y350296D01*
X201832Y350434D01*
X202805Y350837D01*
X203640Y351478D01*
X204281Y352313D01*
X204684Y353287D01*
X204822Y354331D01*
X204684Y355375D01*
X204281Y356348D01*
X203880Y356871D01*
X204127Y357371D01*
X205585D01*
X207092Y355863D01*
X206890Y355375D01*
X206753Y354331D01*
X206890Y353287D01*
X207293Y352313D01*
X207935Y351478D01*
X208770Y350837D01*
X209743Y350434D01*
X210787Y350296D01*
X211832Y350434D01*
X212805Y350837D01*
X213640Y351478D01*
X214281Y352313D01*
X214685Y353287D01*
X214822Y354331D01*
X214685Y355375D01*
X214482Y355863D01*
X215990Y357371D01*
X221070D01*
X221316Y356871D01*
X220915Y356348D01*
X220512Y355375D01*
X220375Y354331D01*
X220512Y353287D01*
X220915Y352313D01*
X221557Y351478D01*
X222392Y350837D01*
X223365Y350434D01*
X224409Y350296D01*
X225454Y350434D01*
X226427Y350837D01*
X227262Y351478D01*
X227903Y352313D01*
X228306Y353287D01*
X228444Y354331D01*
X228306Y355375D01*
X227903Y356348D01*
X227502Y356871D01*
X227749Y357371D01*
X229207D01*
X230714Y355863D01*
X230512Y355375D01*
X230375Y354331D01*
X230512Y353287D01*
X230915Y352313D01*
X231557Y351478D01*
X232392Y350837D01*
X233365Y350434D01*
X234409Y350296D01*
X235454Y350434D01*
X236427Y350837D01*
X237262Y351478D01*
X237903Y352313D01*
X238306Y353287D01*
X238444Y354331D01*
X238306Y355375D01*
X238104Y355863D01*
X239612Y357371D01*
X244692D01*
X244939Y356871D01*
X244538Y356348D01*
X244134Y355375D01*
X243997Y354331D01*
X244134Y353287D01*
X244538Y352313D01*
X245179Y351478D01*
X246014Y350837D01*
X246987Y350434D01*
X248032Y350296D01*
X249076Y350434D01*
X250049Y350837D01*
X250884Y351478D01*
X251526Y352313D01*
X251929Y353287D01*
X252066Y354331D01*
X251929Y355375D01*
X251526Y356348D01*
X251125Y356871D01*
X251371Y357371D01*
X252829D01*
X254337Y355863D01*
X254134Y355375D01*
X253997Y354331D01*
X254134Y353287D01*
X254538Y352313D01*
X255179Y351478D01*
X256014Y350837D01*
X256987Y350434D01*
X258032Y350296D01*
X259076Y350434D01*
X260049Y350837D01*
X260884Y351478D01*
X261526Y352313D01*
X261929Y353287D01*
X262066Y354331D01*
X261929Y355375D01*
X261526Y356348D01*
X260884Y357184D01*
X260049Y357825D01*
X259076Y358228D01*
X258032Y358365D01*
X256987Y358228D01*
X256500Y358026D01*
X254544Y359981D01*
X254048Y360313D01*
X253462Y360429D01*
D02*
G37*
G36*
X253477Y340729D02*
X238964D01*
X238476Y340632D01*
X238379Y340613D01*
X237882Y340281D01*
X235942Y338341D01*
X235454Y338543D01*
X234409Y338680D01*
X233365Y338543D01*
X232877Y338341D01*
X230936Y340281D01*
X230440Y340613D01*
X229855Y340729D01*
X215342D01*
X214854Y340632D01*
X214756Y340613D01*
X214260Y340281D01*
X212319Y338341D01*
X211832Y338543D01*
X210787Y338680D01*
X209743Y338543D01*
X209255Y338341D01*
X207314Y340281D01*
X206818Y340613D01*
X206233Y340729D01*
X191720D01*
X191232Y340632D01*
X191135Y340613D01*
X190638Y340281D01*
X188698Y338341D01*
X188210Y338543D01*
X187165Y338680D01*
X186121Y338543D01*
X185633Y338341D01*
X183692Y340281D01*
X183196Y340613D01*
X182611Y340729D01*
X168098D01*
X167610Y340632D01*
X167513Y340613D01*
X167016Y340281D01*
X165076Y338341D01*
X164588Y338543D01*
X163543Y338680D01*
X162499Y338543D01*
X161526Y338140D01*
X160691Y337498D01*
X160049Y336663D01*
X159646Y335690D01*
X159509Y334646D01*
X159646Y333601D01*
X160049Y332628D01*
X160691Y331793D01*
X161526Y331152D01*
X162499Y330749D01*
X163543Y330611D01*
X164588Y330749D01*
X165561Y331152D01*
X166396Y331793D01*
X167037Y332628D01*
X167440Y333601D01*
X167578Y334646D01*
X167440Y335690D01*
X167238Y336178D01*
X168731Y337671D01*
X173814D01*
X174061Y337171D01*
X173671Y336663D01*
X173268Y335690D01*
X173131Y334646D01*
X173268Y333601D01*
X173671Y332628D01*
X174313Y331793D01*
X175148Y331152D01*
X176121Y330749D01*
X177165Y330611D01*
X178210Y330749D01*
X179183Y331152D01*
X180018Y331793D01*
X180659Y332628D01*
X181062Y333601D01*
X181200Y334646D01*
X181062Y335690D01*
X180659Y336663D01*
X180270Y337171D01*
X180516Y337671D01*
X181977D01*
X183470Y336178D01*
X183268Y335690D01*
X183131Y334646D01*
X183268Y333601D01*
X183671Y332628D01*
X184313Y331793D01*
X185148Y331152D01*
X186121Y330749D01*
X187165Y330611D01*
X188210Y330749D01*
X189183Y331152D01*
X190018Y331793D01*
X190659Y332628D01*
X191062Y333601D01*
X191200Y334646D01*
X191062Y335690D01*
X190860Y336178D01*
X192353Y337671D01*
X197436D01*
X197683Y337171D01*
X197293Y336663D01*
X196890Y335690D01*
X196753Y334646D01*
X196890Y333601D01*
X197293Y332628D01*
X197935Y331793D01*
X198770Y331152D01*
X199743Y330749D01*
X200787Y330611D01*
X201832Y330749D01*
X202805Y331152D01*
X203640Y331793D01*
X204281Y332628D01*
X204684Y333601D01*
X204822Y334646D01*
X204684Y335690D01*
X204281Y336663D01*
X203892Y337171D01*
X204138Y337671D01*
X205599D01*
X207092Y336178D01*
X206890Y335690D01*
X206753Y334646D01*
X206890Y333601D01*
X207293Y332628D01*
X207935Y331793D01*
X208770Y331152D01*
X209743Y330749D01*
X210787Y330611D01*
X211832Y330749D01*
X212805Y331152D01*
X213640Y331793D01*
X214281Y332628D01*
X214685Y333601D01*
X214822Y334646D01*
X214685Y335690D01*
X214482Y336178D01*
X215975Y337671D01*
X221058D01*
X221305Y337171D01*
X220915Y336663D01*
X220512Y335690D01*
X220375Y334646D01*
X220512Y333601D01*
X220915Y332628D01*
X221557Y331793D01*
X222392Y331152D01*
X223365Y330749D01*
X224409Y330611D01*
X225454Y330749D01*
X226427Y331152D01*
X227262Y331793D01*
X227903Y332628D01*
X228306Y333601D01*
X228444Y334646D01*
X228306Y335690D01*
X227903Y336663D01*
X227514Y337171D01*
X227760Y337671D01*
X229222D01*
X230714Y336178D01*
X230512Y335690D01*
X230375Y334646D01*
X230512Y333601D01*
X230915Y332628D01*
X231557Y331793D01*
X232392Y331152D01*
X233365Y330749D01*
X234409Y330611D01*
X235454Y330749D01*
X236427Y331152D01*
X237262Y331793D01*
X237903Y332628D01*
X238306Y333601D01*
X238444Y334646D01*
X238306Y335690D01*
X238104Y336178D01*
X239597Y337671D01*
X244681D01*
X244927Y337171D01*
X244538Y336663D01*
X244134Y335690D01*
X243997Y334646D01*
X244134Y333601D01*
X244538Y332628D01*
X245179Y331793D01*
X246014Y331152D01*
X246987Y330749D01*
X248032Y330611D01*
X249076Y330749D01*
X250049Y331152D01*
X250884Y331793D01*
X251526Y332628D01*
X251929Y333601D01*
X252066Y334646D01*
X251929Y335690D01*
X251526Y336663D01*
X251136Y337171D01*
X251383Y337671D01*
X252844D01*
X254337Y336178D01*
X254134Y335690D01*
X253997Y334646D01*
X254134Y333601D01*
X254538Y332628D01*
X255179Y331793D01*
X256014Y331152D01*
X256987Y330749D01*
X258032Y330611D01*
X259076Y330749D01*
X260049Y331152D01*
X260884Y331793D01*
X261526Y332628D01*
X261929Y333601D01*
X262066Y334646D01*
X261929Y335690D01*
X261526Y336663D01*
X260884Y337498D01*
X260049Y338140D01*
X259076Y338543D01*
X258032Y338680D01*
X256987Y338543D01*
X256500Y338341D01*
X254559Y340281D01*
X254063Y340613D01*
X253477Y340729D01*
D02*
G37*
G36*
X94488Y358365D02*
X93444Y358228D01*
X92471Y357825D01*
X91635Y357184D01*
X90994Y356348D01*
X90591Y355375D01*
X90454Y354331D01*
X90591Y353287D01*
X90994Y352313D01*
X91635Y351478D01*
X92471Y350837D01*
X93444Y350434D01*
X94488Y350296D01*
X95532Y350434D01*
X96505Y350837D01*
X97341Y351478D01*
X97982Y352313D01*
X98385Y353287D01*
X98523Y354331D01*
X98385Y355375D01*
X97982Y356348D01*
X97341Y357184D01*
X96505Y357825D01*
X95532Y358228D01*
X94488Y358365D01*
D02*
G37*
G36*
X303150Y381357D02*
X302105Y381220D01*
X301132Y380817D01*
X300297Y380176D01*
X299656Y379340D01*
X299253Y378367D01*
X299115Y377323D01*
X299253Y376279D01*
X299656Y375306D01*
X300297Y374470D01*
X301132Y373829D01*
X302105Y373426D01*
X303150Y373288D01*
X304194Y373426D01*
X305167Y373829D01*
X306002Y374470D01*
X306644Y375306D01*
X307047Y376279D01*
X307184Y377323D01*
X307047Y378367D01*
X306644Y379340D01*
X306002Y380176D01*
X305167Y380817D01*
X304194Y381220D01*
X303150Y381357D01*
D02*
G37*
G36*
Y411357D02*
X302105Y411220D01*
X301132Y410817D01*
X300297Y410176D01*
X299656Y409340D01*
X299253Y408367D01*
X299115Y407323D01*
X299253Y406279D01*
X299656Y405305D01*
X300297Y404470D01*
X301132Y403829D01*
X302105Y403426D01*
X303150Y403288D01*
X304194Y403426D01*
X305167Y403829D01*
X306002Y404470D01*
X306644Y405305D01*
X307047Y406279D01*
X307184Y407323D01*
X307047Y408367D01*
X306644Y409340D01*
X306002Y410176D01*
X305167Y410817D01*
X304194Y411220D01*
X303150Y411357D01*
D02*
G37*
G36*
X261654Y417420D02*
X260609Y417283D01*
X259636Y416880D01*
X258801Y416239D01*
X258160Y415403D01*
X257757Y414430D01*
X257619Y413386D01*
X257757Y412342D01*
X258160Y411369D01*
X258801Y410533D01*
X259636Y409892D01*
X260609Y409489D01*
X261654Y409351D01*
X262698Y409489D01*
X263671Y409892D01*
X264506Y410533D01*
X265148Y411369D01*
X265551Y412342D01*
X265688Y413386D01*
X265551Y414430D01*
X265148Y415403D01*
X264506Y416239D01*
X263671Y416880D01*
X262698Y417283D01*
X261654Y417420D01*
D02*
G37*
G36*
X303150Y391357D02*
X302105Y391220D01*
X301132Y390817D01*
X300297Y390176D01*
X299656Y389340D01*
X299253Y388367D01*
X299115Y387323D01*
X299253Y386279D01*
X299656Y385306D01*
X300297Y384470D01*
X301132Y383829D01*
X302105Y383426D01*
X303150Y383288D01*
X304194Y383426D01*
X305167Y383829D01*
X306002Y384470D01*
X306644Y385306D01*
X307047Y386279D01*
X307184Y387323D01*
X307047Y388367D01*
X306644Y389340D01*
X306002Y390176D01*
X305167Y390817D01*
X304194Y391220D01*
X303150Y391357D01*
D02*
G37*
G36*
Y401357D02*
X302105Y401220D01*
X301132Y400817D01*
X300297Y400176D01*
X299656Y399340D01*
X299253Y398367D01*
X299115Y397323D01*
X299253Y396279D01*
X299656Y395305D01*
X300297Y394470D01*
X301132Y393829D01*
X302105Y393426D01*
X303150Y393288D01*
X304194Y393426D01*
X305167Y393829D01*
X306002Y394470D01*
X306644Y395305D01*
X307047Y396279D01*
X307184Y397323D01*
X307047Y398367D01*
X306644Y399340D01*
X306002Y400176D01*
X305167Y400817D01*
X304194Y401220D01*
X303150Y401357D01*
D02*
G37*
G36*
X307587Y338614D02*
Y335146D01*
X311055D01*
X310984Y335690D01*
X310581Y336663D01*
X309939Y337498D01*
X309104Y338140D01*
X308131Y338543D01*
X307587Y338614D01*
D02*
G37*
G36*
X253492Y321029D02*
X238949D01*
X238364Y320913D01*
X237867Y320581D01*
X235942Y318656D01*
X235454Y318858D01*
X234409Y318995D01*
X233365Y318858D01*
X232877Y318656D01*
X230951Y320581D01*
X230455Y320913D01*
X229870Y321029D01*
X215327D01*
X214741Y320913D01*
X214245Y320581D01*
X212319Y318656D01*
X211832Y318858D01*
X210787Y318995D01*
X209743Y318858D01*
X209255Y318656D01*
X207329Y320581D01*
X206833Y320913D01*
X206248Y321029D01*
X191705D01*
X191120Y320913D01*
X190623Y320581D01*
X188698Y318656D01*
X188210Y318858D01*
X187165Y318995D01*
X186121Y318858D01*
X185633Y318656D01*
X183707Y320581D01*
X183211Y320913D01*
X182626Y321029D01*
X168083D01*
X167498Y320913D01*
X167001Y320581D01*
X165076Y318656D01*
X164588Y318858D01*
X163543Y318995D01*
X162499Y318858D01*
X161526Y318455D01*
X160691Y317813D01*
X160049Y316978D01*
X159646Y316005D01*
X159509Y314961D01*
X159646Y313916D01*
X160049Y312943D01*
X160691Y312108D01*
X161526Y311467D01*
X162499Y311064D01*
X163543Y310926D01*
X164588Y311064D01*
X165561Y311467D01*
X166396Y312108D01*
X167037Y312943D01*
X167440Y313916D01*
X167578Y314961D01*
X167440Y316005D01*
X167238Y316493D01*
X168716Y317971D01*
X173803D01*
X174049Y317471D01*
X173671Y316978D01*
X173268Y316005D01*
X173131Y314961D01*
X173268Y313916D01*
X173671Y312943D01*
X174313Y312108D01*
X175148Y311467D01*
X176121Y311064D01*
X177165Y310926D01*
X178210Y311064D01*
X179183Y311467D01*
X180018Y312108D01*
X180659Y312943D01*
X181062Y313916D01*
X181200Y314961D01*
X181062Y316005D01*
X180659Y316978D01*
X180281Y317471D01*
X180528Y317971D01*
X181992D01*
X183470Y316493D01*
X183268Y316005D01*
X183131Y314961D01*
X183268Y313916D01*
X183671Y312943D01*
X184313Y312108D01*
X185148Y311467D01*
X186121Y311064D01*
X187165Y310926D01*
X188210Y311064D01*
X189183Y311467D01*
X190018Y312108D01*
X190659Y312943D01*
X191062Y313916D01*
X191200Y314961D01*
X191062Y316005D01*
X190860Y316493D01*
X192338Y317971D01*
X197425D01*
X197671Y317471D01*
X197293Y316978D01*
X196890Y316005D01*
X196753Y314961D01*
X196890Y313916D01*
X197293Y312943D01*
X197935Y312108D01*
X198770Y311467D01*
X199743Y311064D01*
X200787Y310926D01*
X201832Y311064D01*
X202805Y311467D01*
X203640Y312108D01*
X204281Y312943D01*
X204684Y313916D01*
X204822Y314961D01*
X204684Y316005D01*
X204281Y316978D01*
X203903Y317471D01*
X204150Y317971D01*
X205614D01*
X207092Y316493D01*
X206890Y316005D01*
X206753Y314961D01*
X206890Y313916D01*
X207293Y312943D01*
X207935Y312108D01*
X208770Y311467D01*
X209743Y311064D01*
X210787Y310926D01*
X211832Y311064D01*
X212805Y311467D01*
X213640Y312108D01*
X214281Y312943D01*
X214685Y313916D01*
X214822Y314961D01*
X214685Y316005D01*
X214482Y316493D01*
X215960Y317971D01*
X221047D01*
X221293Y317471D01*
X220915Y316978D01*
X220512Y316005D01*
X220375Y314961D01*
X220512Y313916D01*
X220915Y312943D01*
X221557Y312108D01*
X222392Y311467D01*
X223365Y311064D01*
X224409Y310926D01*
X225454Y311064D01*
X226427Y311467D01*
X227262Y312108D01*
X227903Y312943D01*
X228306Y313916D01*
X228444Y314961D01*
X228306Y316005D01*
X227903Y316978D01*
X227525Y317471D01*
X227772Y317971D01*
X229237D01*
X230714Y316493D01*
X230512Y316005D01*
X230375Y314961D01*
X230512Y313916D01*
X230915Y312943D01*
X231557Y312108D01*
X232392Y311467D01*
X233365Y311064D01*
X234409Y310926D01*
X235454Y311064D01*
X236427Y311467D01*
X237262Y312108D01*
X237903Y312943D01*
X238306Y313916D01*
X238444Y314961D01*
X238306Y316005D01*
X238104Y316493D01*
X239582Y317971D01*
X244669D01*
X244916Y317471D01*
X244538Y316978D01*
X244134Y316005D01*
X243997Y314961D01*
X244134Y313916D01*
X244538Y312943D01*
X245179Y312108D01*
X246014Y311467D01*
X246987Y311064D01*
X248032Y310926D01*
X249076Y311064D01*
X250049Y311467D01*
X250884Y312108D01*
X251526Y312943D01*
X251929Y313916D01*
X252066Y314961D01*
X251929Y316005D01*
X251526Y316978D01*
X251148Y317471D01*
X251394Y317971D01*
X252859D01*
X254337Y316493D01*
X254134Y316005D01*
X253997Y314961D01*
X254134Y313916D01*
X254538Y312943D01*
X255179Y312108D01*
X256014Y311467D01*
X256987Y311064D01*
X258032Y310926D01*
X259076Y311064D01*
X260049Y311467D01*
X260884Y312108D01*
X261526Y312943D01*
X261929Y313916D01*
X262066Y314961D01*
X261929Y316005D01*
X261526Y316978D01*
X260884Y317813D01*
X260049Y318455D01*
X259076Y318858D01*
X258032Y318995D01*
X256987Y318858D01*
X256500Y318656D01*
X254574Y320581D01*
X254078Y320913D01*
X253492Y321029D01*
D02*
G37*
G36*
X153543Y338680D02*
X152499Y338543D01*
X151526Y338140D01*
X150691Y337498D01*
X150049Y336663D01*
X149646Y335690D01*
X149509Y334646D01*
X149646Y333601D01*
X150049Y332628D01*
X150691Y331793D01*
X151526Y331152D01*
X152499Y330749D01*
X153543Y330611D01*
X154588Y330749D01*
X155561Y331152D01*
X156396Y331793D01*
X157037Y332628D01*
X157440Y333601D01*
X157578Y334646D01*
X157440Y335690D01*
X157037Y336663D01*
X156396Y337498D01*
X155561Y338140D01*
X154588Y338543D01*
X153543Y338680D01*
D02*
G37*
G36*
X306587Y334146D02*
X303118D01*
X303190Y333601D01*
X303392Y333114D01*
X262007Y291729D01*
X260802D01*
X260632Y292229D01*
X260884Y292423D01*
X261526Y293258D01*
X261929Y294231D01*
X262066Y295276D01*
X261929Y296320D01*
X261526Y297293D01*
X260884Y298128D01*
X260049Y298770D01*
X259076Y299173D01*
X258032Y299310D01*
X256987Y299173D01*
X256500Y298971D01*
X254589Y300881D01*
X254093Y301213D01*
X253507Y301329D01*
X238934D01*
X238349Y301213D01*
X237852Y300881D01*
X235942Y298971D01*
X235454Y299173D01*
X234409Y299310D01*
X233365Y299173D01*
X232877Y298971D01*
X230966Y300881D01*
X230470Y301213D01*
X229885Y301329D01*
X215312D01*
X214726Y301213D01*
X214230Y300881D01*
X212319Y298971D01*
X211832Y299173D01*
X210787Y299310D01*
X209743Y299173D01*
X209255Y298971D01*
X207344Y300881D01*
X206848Y301213D01*
X206263Y301329D01*
X191690D01*
X191104Y301213D01*
X190608Y300881D01*
X188698Y298971D01*
X188210Y299173D01*
X187165Y299310D01*
X186121Y299173D01*
X185633Y298971D01*
X183722Y300881D01*
X183226Y301213D01*
X182641Y301329D01*
X168068D01*
X167482Y301213D01*
X166986Y300881D01*
X165076Y298971D01*
X164588Y299173D01*
X163543Y299310D01*
X162499Y299173D01*
X161526Y298770D01*
X160691Y298128D01*
X160049Y297293D01*
X159646Y296320D01*
X159509Y295276D01*
X159646Y294231D01*
X160049Y293258D01*
X160691Y292423D01*
X160943Y292229D01*
X160773Y291729D01*
X156314D01*
X156144Y292229D01*
X156396Y292423D01*
X157037Y293258D01*
X157440Y294231D01*
X157578Y295276D01*
X157440Y296320D01*
X157037Y297293D01*
X156396Y298128D01*
X155561Y298770D01*
X154588Y299173D01*
X153543Y299310D01*
X152499Y299173D01*
X151526Y298770D01*
X150691Y298128D01*
X150049Y297293D01*
X149646Y296320D01*
X149509Y295276D01*
X149646Y294231D01*
X150049Y293258D01*
X150691Y292423D01*
X150943Y292229D01*
X150773Y291729D01*
X139567D01*
X98183Y333114D01*
X98385Y333601D01*
X98457Y334146D01*
X94988D01*
Y330677D01*
X95532Y330749D01*
X96020Y330951D01*
X137852Y289119D01*
X138348Y288787D01*
X138934Y288671D01*
X262641D01*
X263226Y288787D01*
X263722Y289119D01*
X305555Y330951D01*
X306042Y330749D01*
X306587Y330677D01*
Y334146D01*
D02*
G37*
G36*
X153543Y318995D02*
X152499Y318858D01*
X151526Y318455D01*
X150691Y317813D01*
X150049Y316978D01*
X149646Y316005D01*
X149509Y314961D01*
X149646Y313916D01*
X150049Y312943D01*
X150691Y312108D01*
X151526Y311467D01*
X152499Y311064D01*
X153543Y310926D01*
X154588Y311064D01*
X155561Y311467D01*
X156396Y312108D01*
X157037Y312943D01*
X157440Y313916D01*
X157578Y314961D01*
X157440Y316005D01*
X157037Y316978D01*
X156396Y317813D01*
X155561Y318455D01*
X154588Y318858D01*
X153543Y318995D01*
D02*
G37*
G36*
X93988Y334146D02*
X90519D01*
X90591Y333601D01*
X90994Y332628D01*
X91635Y331793D01*
X92471Y331152D01*
X93444Y330749D01*
X93988Y330677D01*
Y334146D01*
D02*
G37*
G36*
X94988Y338614D02*
Y335146D01*
X98457D01*
X98385Y335690D01*
X97982Y336663D01*
X97341Y337498D01*
X96505Y338140D01*
X95532Y338543D01*
X94988Y338614D01*
D02*
G37*
G36*
X306587D02*
X306042Y338543D01*
X305069Y338140D01*
X304234Y337498D01*
X303593Y336663D01*
X303190Y335690D01*
X303118Y335146D01*
X306587D01*
Y338614D01*
D02*
G37*
G36*
X311055Y334146D02*
X307587D01*
Y330677D01*
X308131Y330749D01*
X309104Y331152D01*
X309939Y331793D01*
X310581Y332628D01*
X310984Y333601D01*
X311055Y334146D01*
D02*
G37*
G36*
X93988Y338614D02*
X93444Y338543D01*
X92471Y338140D01*
X91635Y337498D01*
X90994Y336663D01*
X90591Y335690D01*
X90519Y335146D01*
X93988D01*
Y338614D01*
D02*
G37*
G36*
X264280Y448406D02*
Y445382D01*
X267303D01*
X267247Y445811D01*
X266888Y446677D01*
X266318Y447420D01*
X265575Y447991D01*
X264709Y448349D01*
X264280Y448406D01*
D02*
G37*
G36*
X263228Y464530D02*
X262315Y464410D01*
X261463Y464057D01*
X260732Y463496D01*
X260171Y462765D01*
X260073Y462529D01*
X248700D01*
X248115Y462413D01*
X247619Y462081D01*
X220138Y434600D01*
X192733D01*
X192458Y435263D01*
X191762Y436171D01*
X190854Y436868D01*
X189796Y437306D01*
X188662Y437455D01*
X187527Y437306D01*
X186470Y436868D01*
X185562Y436171D01*
X184865Y435263D01*
X184427Y434206D01*
X184278Y433071D01*
X184427Y431936D01*
X184865Y430879D01*
X185562Y429971D01*
X186470Y429274D01*
X187527Y428836D01*
X188662Y428687D01*
X189796Y428836D01*
X190854Y429274D01*
X191762Y429971D01*
X192458Y430879D01*
X192733Y431542D01*
X220771D01*
X221356Y431658D01*
X221852Y431990D01*
X223901Y434038D01*
X224374Y433804D01*
X224278Y433071D01*
X224427Y431936D01*
X224865Y430879D01*
X225562Y429971D01*
X226470Y429274D01*
X227527Y428836D01*
X228662Y428687D01*
X229796Y428836D01*
X230854Y429274D01*
X231762Y429971D01*
X232458Y430879D01*
X232896Y431936D01*
X233046Y433071D01*
X232896Y434206D01*
X232458Y435263D01*
X231762Y436171D01*
X230854Y436868D01*
X229796Y437306D01*
X228662Y437455D01*
X227928Y437358D01*
X227695Y437832D01*
X249334Y459471D01*
X260073D01*
X260171Y459235D01*
X260732Y458504D01*
X261282Y458082D01*
X261342Y457497D01*
X261241Y457420D01*
X260671Y456677D01*
X260312Y455811D01*
X260190Y454882D01*
X260312Y453953D01*
X260671Y453087D01*
X261241Y452344D01*
X261985Y451773D01*
X262850Y451414D01*
X263780Y451292D01*
X264709Y451414D01*
X265575Y451773D01*
X266318Y452344D01*
X266888Y453087D01*
X267247Y453953D01*
X267369Y454882D01*
X267247Y455811D01*
X266888Y456677D01*
X266318Y457420D01*
X265726Y457874D01*
X265652Y458448D01*
X265725Y458504D01*
X266286Y459235D01*
X266638Y460086D01*
X266759Y461000D01*
X266638Y461914D01*
X266286Y462765D01*
X265725Y463496D01*
X264994Y464057D01*
X264142Y464410D01*
X263228Y464530D01*
D02*
G37*
G36*
X263280Y448406D02*
X262850Y448349D01*
X261985Y447991D01*
X261241Y447420D01*
X260671Y446677D01*
X260312Y445811D01*
X260256Y445382D01*
X263280D01*
Y448406D01*
D02*
G37*
G36*
Y444382D02*
X260256D01*
X260312Y443953D01*
X260422Y443687D01*
X253163Y436428D01*
X252898Y436538D01*
X252469Y436595D01*
Y433571D01*
X255492D01*
X255436Y434000D01*
X255326Y434265D01*
X262585Y441524D01*
X262850Y441414D01*
X263280Y441358D01*
Y444382D01*
D02*
G37*
G36*
X267303D02*
X264280D01*
Y441358D01*
X264709Y441414D01*
X265575Y441773D01*
X266318Y442344D01*
X266888Y443087D01*
X267247Y443953D01*
X267303Y444382D01*
D02*
G37*
G36*
X94488Y508549D02*
X94143Y508480D01*
X92504D01*
Y507530D01*
X92133Y506975D01*
X91939Y506000D01*
Y501874D01*
X92133Y500899D01*
X92504Y500344D01*
Y499394D01*
X94143D01*
X94488Y499325D01*
X94833Y499394D01*
X96473D01*
Y500344D01*
X96843Y500899D01*
X97037Y501874D01*
Y506000D01*
X96843Y506975D01*
X96473Y507530D01*
Y508480D01*
X94833D01*
X94488Y508549D01*
D02*
G37*
G36*
X307087D02*
X306741Y508480D01*
X305102D01*
Y507530D01*
X304732Y506975D01*
X304538Y506000D01*
Y501874D01*
X304732Y500899D01*
X305102Y500344D01*
Y499394D01*
X306741D01*
X307087Y499325D01*
X307432Y499394D01*
X309071D01*
Y500344D01*
X309442Y500899D01*
X309636Y501874D01*
Y506000D01*
X309442Y506975D01*
X309071Y507530D01*
Y508480D01*
X307432D01*
X307087Y508549D01*
D02*
G37*
G36*
X251969Y501449D02*
X250880Y501306D01*
X249866Y500886D01*
X248995Y500218D01*
X248327Y499347D01*
X247907Y498333D01*
X247763Y497244D01*
X247907Y496156D01*
X248327Y495142D01*
X248995Y494271D01*
X249866Y493602D01*
X250880Y493182D01*
X251969Y493039D01*
X253057Y493182D01*
X254071Y493602D01*
X254942Y494271D01*
X255610Y495142D01*
X256031Y496156D01*
X256174Y497244D01*
X256031Y498333D01*
X255610Y499347D01*
X254942Y500218D01*
X254071Y500886D01*
X253057Y501306D01*
X251969Y501449D01*
D02*
G37*
G36*
X215806Y483430D02*
X214892Y483310D01*
X214041Y482957D01*
X213310Y482396D01*
X212749Y481665D01*
X212396Y480814D01*
X212276Y479900D01*
X212396Y478986D01*
X212493Y478751D01*
X190459Y456716D01*
X189796Y456990D01*
X188662Y457140D01*
X187527Y456990D01*
X186470Y456552D01*
X185562Y455856D01*
X184865Y454948D01*
X184427Y453890D01*
X184278Y452756D01*
X184427Y451621D01*
X184865Y450564D01*
X185562Y449656D01*
X185857Y449429D01*
X185687Y448929D01*
X111655D01*
X111557Y449165D01*
X110996Y449896D01*
X110265Y450457D01*
X109414Y450810D01*
X108500Y450930D01*
X107586Y450810D01*
X106735Y450457D01*
X106004Y449896D01*
X105443Y449165D01*
X105090Y448314D01*
X104970Y447400D01*
X105090Y446486D01*
X105443Y445635D01*
X106004Y444904D01*
X106735Y444343D01*
X107586Y443990D01*
X108500Y443870D01*
X109414Y443990D01*
X110265Y444343D01*
X110996Y444904D01*
X111557Y445635D01*
X111655Y445871D01*
X113919D01*
X114140Y445422D01*
X113943Y445165D01*
X113590Y444314D01*
X113470Y443400D01*
X113590Y442486D01*
X113688Y442251D01*
X97319Y425881D01*
X96987Y425385D01*
X96871Y424800D01*
Y366800D01*
X96987Y366215D01*
X97319Y365719D01*
X99919Y363119D01*
X100415Y362787D01*
X101000Y362671D01*
X148710D01*
X152014Y359366D01*
Y358027D01*
X151526Y357825D01*
X150691Y357184D01*
X150049Y356348D01*
X149646Y355375D01*
X149509Y354331D01*
X149646Y353287D01*
X150049Y352313D01*
X150691Y351478D01*
X151526Y350837D01*
X152499Y350434D01*
X153543Y350296D01*
X154588Y350434D01*
X155561Y350837D01*
X156396Y351478D01*
X157037Y352313D01*
X157440Y353287D01*
X157578Y354331D01*
X157440Y355375D01*
X157037Y356348D01*
X156396Y357184D01*
X155561Y357825D01*
X155073Y358027D01*
Y360000D01*
X154956Y360585D01*
X154625Y361081D01*
X150425Y365281D01*
X149929Y365613D01*
X149343Y365729D01*
X101634D01*
X99929Y367434D01*
Y375535D01*
X100378Y375756D01*
X100656Y375543D01*
X101507Y375190D01*
X102421Y375070D01*
X103335Y375190D01*
X104186Y375543D01*
X104917Y376104D01*
X105478Y376835D01*
X105576Y377071D01*
X150215D01*
X150462Y376571D01*
X150049Y376033D01*
X149646Y375060D01*
X149509Y374016D01*
X149646Y372972D01*
X150049Y371999D01*
X150691Y371163D01*
X151526Y370522D01*
X152499Y370119D01*
X153543Y369981D01*
X154588Y370119D01*
X155561Y370522D01*
X156396Y371163D01*
X157037Y371999D01*
X157440Y372972D01*
X157578Y374016D01*
X157440Y375060D01*
X157037Y376033D01*
X156625Y376571D01*
X156871Y377071D01*
X158326D01*
X159848Y375548D01*
X159646Y375060D01*
X159509Y374016D01*
X159646Y372972D01*
X160049Y371999D01*
X160691Y371163D01*
X161526Y370522D01*
X162499Y370119D01*
X163543Y369981D01*
X164588Y370119D01*
X165561Y370522D01*
X166396Y371163D01*
X167037Y371999D01*
X167440Y372972D01*
X167578Y374016D01*
X167440Y375060D01*
X167238Y375548D01*
X168761Y377071D01*
X173837D01*
X174084Y376571D01*
X173671Y376033D01*
X173268Y375060D01*
X173131Y374016D01*
X173268Y372972D01*
X173671Y371999D01*
X174313Y371163D01*
X175148Y370522D01*
X176121Y370119D01*
X177165Y369981D01*
X178210Y370119D01*
X179183Y370522D01*
X180018Y371163D01*
X180659Y371999D01*
X181062Y372972D01*
X181200Y374016D01*
X181062Y375060D01*
X180659Y376033D01*
X180247Y376571D01*
X180493Y377071D01*
X181948D01*
X183470Y375548D01*
X183268Y375060D01*
X183131Y374016D01*
X183268Y372972D01*
X183671Y371999D01*
X184313Y371163D01*
X185148Y370522D01*
X186121Y370119D01*
X187165Y369981D01*
X188210Y370119D01*
X189183Y370522D01*
X190018Y371163D01*
X190659Y371999D01*
X191062Y372972D01*
X191200Y374016D01*
X191062Y375060D01*
X190860Y375548D01*
X192383Y377071D01*
X197459D01*
X197706Y376571D01*
X197293Y376033D01*
X196890Y375060D01*
X196753Y374016D01*
X196890Y372972D01*
X197293Y371999D01*
X197935Y371163D01*
X198770Y370522D01*
X199743Y370119D01*
X200787Y369981D01*
X201832Y370119D01*
X202805Y370522D01*
X203640Y371163D01*
X204281Y371999D01*
X204684Y372972D01*
X204822Y374016D01*
X204684Y375060D01*
X204281Y376033D01*
X203869Y376571D01*
X204116Y377071D01*
X205570D01*
X207092Y375548D01*
X206890Y375060D01*
X206753Y374016D01*
X206890Y372972D01*
X207293Y371999D01*
X207935Y371163D01*
X208770Y370522D01*
X209743Y370119D01*
X210787Y369981D01*
X211832Y370119D01*
X212805Y370522D01*
X213640Y371163D01*
X214281Y371999D01*
X214685Y372972D01*
X214822Y374016D01*
X214685Y375060D01*
X214482Y375548D01*
X216005Y377071D01*
X221081D01*
X221328Y376571D01*
X220915Y376033D01*
X220512Y375060D01*
X220375Y374016D01*
X220512Y372972D01*
X220915Y371999D01*
X221557Y371163D01*
X222392Y370522D01*
X223365Y370119D01*
X224409Y369981D01*
X225454Y370119D01*
X226427Y370522D01*
X227262Y371163D01*
X227903Y371999D01*
X228306Y372972D01*
X228444Y374016D01*
X228306Y375060D01*
X227903Y376033D01*
X227491Y376571D01*
X227737Y377071D01*
X229192D01*
X230714Y375548D01*
X230512Y375060D01*
X230375Y374016D01*
X230512Y372972D01*
X230915Y371999D01*
X231557Y371163D01*
X232392Y370522D01*
X233365Y370119D01*
X234409Y369981D01*
X235454Y370119D01*
X236427Y370522D01*
X237262Y371163D01*
X237903Y371999D01*
X238306Y372972D01*
X238444Y374016D01*
X238306Y375060D01*
X238104Y375548D01*
X239627Y377071D01*
X244704D01*
X244950Y376571D01*
X244538Y376033D01*
X244134Y375060D01*
X243997Y374016D01*
X244134Y372972D01*
X244538Y371999D01*
X245179Y371163D01*
X246014Y370522D01*
X246987Y370119D01*
X248032Y369981D01*
X249076Y370119D01*
X250049Y370522D01*
X250884Y371163D01*
X251526Y371999D01*
X251929Y372972D01*
X252066Y374016D01*
X251929Y375060D01*
X251526Y376033D01*
X251113Y376571D01*
X251360Y377071D01*
X252814D01*
X254337Y375548D01*
X254134Y375060D01*
X253997Y374016D01*
X254134Y372972D01*
X254538Y371999D01*
X255179Y371163D01*
X256014Y370522D01*
X256987Y370119D01*
X258032Y369981D01*
X259076Y370119D01*
X260049Y370522D01*
X260884Y371163D01*
X261526Y371999D01*
X261929Y372972D01*
X262066Y374016D01*
X261929Y375060D01*
X261526Y376033D01*
X260884Y376869D01*
X260049Y377510D01*
X259076Y377913D01*
X258032Y378050D01*
X256987Y377913D01*
X256500Y377711D01*
X254529Y379681D01*
X254033Y380013D01*
X253447Y380129D01*
X238994D01*
X238408Y380013D01*
X237912Y379681D01*
X235942Y377711D01*
X235454Y377913D01*
X234409Y378050D01*
X233365Y377913D01*
X232877Y377711D01*
X230907Y379681D01*
X230411Y380013D01*
X229825Y380129D01*
X215372D01*
X214786Y380013D01*
X214290Y379681D01*
X212319Y377711D01*
X211832Y377913D01*
X210787Y378050D01*
X209743Y377913D01*
X209255Y377711D01*
X207285Y379681D01*
X206788Y380013D01*
X206203Y380129D01*
X191750D01*
X191164Y380013D01*
X190668Y379681D01*
X188698Y377711D01*
X188210Y377913D01*
X187165Y378050D01*
X186121Y377913D01*
X185633Y377711D01*
X183663Y379681D01*
X183167Y380013D01*
X182581Y380129D01*
X168128D01*
X167542Y380013D01*
X167046Y379681D01*
X165076Y377711D01*
X164588Y377913D01*
X163543Y378050D01*
X162499Y377913D01*
X162011Y377711D01*
X160041Y379681D01*
X159545Y380013D01*
X158959Y380129D01*
X105576D01*
X105478Y380365D01*
X104917Y381096D01*
X104186Y381657D01*
X103335Y382010D01*
X102421Y382130D01*
X101507Y382010D01*
X100656Y381657D01*
X100378Y381444D01*
X99929Y381665D01*
Y424166D01*
X115851Y440088D01*
X116086Y439990D01*
X117000Y439870D01*
X117914Y439990D01*
X118765Y440343D01*
X119496Y440904D01*
X120057Y441635D01*
X120410Y442486D01*
X120530Y443400D01*
X120410Y444314D01*
X120057Y445165D01*
X119860Y445422D01*
X120081Y445871D01*
X223306D01*
X223891Y445987D01*
X224387Y446319D01*
X226864Y448796D01*
X227527Y448521D01*
X228662Y448372D01*
X229796Y448521D01*
X230854Y448959D01*
X231762Y449656D01*
X232458Y450564D01*
X232896Y451621D01*
X233046Y452756D01*
X232896Y453890D01*
X232458Y454948D01*
X231762Y455856D01*
X230854Y456552D01*
X229796Y456990D01*
X228662Y457140D01*
X227527Y456990D01*
X226470Y456552D01*
X225562Y455856D01*
X224865Y454948D01*
X224427Y453890D01*
X224278Y452756D01*
X224427Y451621D01*
X224701Y450959D01*
X222672Y448929D01*
X191636D01*
X191466Y449429D01*
X191762Y449656D01*
X192458Y450564D01*
X192896Y451621D01*
X193046Y452756D01*
X192896Y453890D01*
X192622Y454553D01*
X214656Y476588D01*
X214892Y476490D01*
X215806Y476370D01*
X216720Y476490D01*
X217571Y476843D01*
X218302Y477404D01*
X218863Y478135D01*
X219216Y478986D01*
X219336Y479900D01*
X219216Y480814D01*
X218863Y481665D01*
X218302Y482396D01*
X217571Y482957D01*
X216720Y483310D01*
X215806Y483430D01*
D02*
G37*
G36*
X149606Y501449D02*
X148518Y501306D01*
X147504Y500886D01*
X146633Y500218D01*
X145965Y499347D01*
X145544Y498333D01*
X145401Y497244D01*
X145544Y496156D01*
X145965Y495142D01*
X146633Y494271D01*
X147504Y493602D01*
X148518Y493182D01*
X149606Y493039D01*
X150695Y493182D01*
X151709Y493602D01*
X152580Y494271D01*
X153248Y495142D01*
X153668Y496156D01*
X153812Y497244D01*
X153668Y498333D01*
X153248Y499347D01*
X152580Y500218D01*
X151709Y500886D01*
X150695Y501306D01*
X149606Y501449D01*
D02*
G37*
G36*
X307150Y416823D02*
X303650D01*
Y413323D01*
X307150D01*
Y416823D01*
D02*
G37*
G36*
X302650Y421323D02*
X299150D01*
Y417823D01*
X302650D01*
Y421323D01*
D02*
G37*
G36*
Y416823D02*
X299150D01*
Y413323D01*
X302650D01*
Y416823D01*
D02*
G37*
G36*
X271654Y417420D02*
X270609Y417283D01*
X269636Y416880D01*
X268801Y416239D01*
X268160Y415403D01*
X267757Y414430D01*
X267619Y413386D01*
X267757Y412342D01*
X268160Y411369D01*
X268801Y410533D01*
X269636Y409892D01*
X270609Y409489D01*
X271654Y409351D01*
X272698Y409489D01*
X273671Y409892D01*
X274506Y410533D01*
X275148Y411369D01*
X275551Y412342D01*
X275688Y413386D01*
X275551Y414430D01*
X275148Y415403D01*
X274506Y416239D01*
X273671Y416880D01*
X272698Y417283D01*
X271654Y417420D01*
D02*
G37*
G36*
X281654D02*
X280609Y417283D01*
X279636Y416880D01*
X278801Y416239D01*
X278160Y415403D01*
X277757Y414430D01*
X277619Y413386D01*
X277757Y412342D01*
X278160Y411369D01*
X278801Y410533D01*
X279636Y409892D01*
X280609Y409489D01*
X281654Y409351D01*
X282698Y409489D01*
X283671Y409892D01*
X284506Y410533D01*
X285148Y411369D01*
X285551Y412342D01*
X285688Y413386D01*
X285551Y414430D01*
X285148Y415403D01*
X284506Y416239D01*
X283671Y416880D01*
X282698Y417283D01*
X281654Y417420D01*
D02*
G37*
G36*
X255492Y432571D02*
X252469D01*
Y429547D01*
X252898Y429603D01*
X253764Y429962D01*
X254507Y430533D01*
X255077Y431276D01*
X255436Y432142D01*
X255492Y432571D01*
D02*
G37*
G36*
X251469Y436595D02*
X251040Y436538D01*
X250174Y436180D01*
X249430Y435609D01*
X248860Y434866D01*
X248501Y434000D01*
X248445Y433571D01*
X251469D01*
Y436595D01*
D02*
G37*
G36*
Y432571D02*
X248445D01*
X248501Y432142D01*
X248860Y431276D01*
X249430Y430533D01*
X250174Y429962D01*
X251040Y429603D01*
X251469Y429547D01*
Y432571D01*
D02*
G37*
G36*
X307150Y421323D02*
X303650D01*
Y417823D01*
X307150D01*
Y421323D01*
D02*
G37*
G36*
X241969Y436661D02*
X241039Y436538D01*
X240174Y436180D01*
X239430Y435609D01*
X238860Y434866D01*
X238501Y434000D01*
X238379Y433071D01*
X238501Y432142D01*
X238860Y431276D01*
X239430Y430533D01*
X240174Y429962D01*
X241039Y429603D01*
X241969Y429481D01*
X242898Y429603D01*
X243763Y429962D01*
X244507Y430533D01*
X245077Y431276D01*
X245436Y432142D01*
X245558Y433071D01*
X245436Y434000D01*
X245077Y434866D01*
X244507Y435609D01*
X243763Y436180D01*
X242898Y436538D01*
X241969Y436661D01*
D02*
G37*
%LPD*%
G36*
X174038Y297771D02*
X173671Y297293D01*
X173268Y296320D01*
X173131Y295276D01*
X173268Y294231D01*
X173671Y293258D01*
X174313Y292423D01*
X174565Y292229D01*
X174395Y291729D01*
X166314D01*
X166144Y292229D01*
X166396Y292423D01*
X167037Y293258D01*
X167440Y294231D01*
X167578Y295276D01*
X167440Y296320D01*
X167238Y296808D01*
X168701Y298271D01*
X173791D01*
X174038Y297771D01*
D02*
G37*
G36*
X197660D02*
X197293Y297293D01*
X196890Y296320D01*
X196753Y295276D01*
X196890Y294231D01*
X197293Y293258D01*
X197935Y292423D01*
X198187Y292229D01*
X198017Y291729D01*
X189936D01*
X189766Y292229D01*
X190018Y292423D01*
X190659Y293258D01*
X191062Y294231D01*
X191200Y295276D01*
X191062Y296320D01*
X190860Y296808D01*
X192323Y298271D01*
X197413D01*
X197660Y297771D01*
D02*
G37*
G36*
X244904D02*
X244538Y297293D01*
X244134Y296320D01*
X243997Y295276D01*
X244134Y294231D01*
X244538Y293258D01*
X245179Y292423D01*
X245431Y292229D01*
X245261Y291729D01*
X237180D01*
X237010Y292229D01*
X237262Y292423D01*
X237903Y293258D01*
X238306Y294231D01*
X238444Y295276D01*
X238306Y296320D01*
X238104Y296808D01*
X239567Y298271D01*
X244658D01*
X244904Y297771D01*
D02*
G37*
G36*
X221282D02*
X220915Y297293D01*
X220512Y296320D01*
X220375Y295276D01*
X220512Y294231D01*
X220915Y293258D01*
X221557Y292423D01*
X221809Y292229D01*
X221639Y291729D01*
X213558D01*
X213388Y292229D01*
X213640Y292423D01*
X214281Y293258D01*
X214685Y294231D01*
X214822Y295276D01*
X214685Y296320D01*
X214482Y296808D01*
X215945Y298271D01*
X221035D01*
X221282Y297771D01*
D02*
G37*
D13*
X248700Y461000D02*
X263228D01*
X220771Y433071D02*
X248700Y461000D01*
X188662Y433071D02*
X220771D01*
X234409Y295276D02*
X238934Y299800D01*
X253507D01*
X258032Y295276D01*
X210787D02*
X215312Y299800D01*
X229885D01*
X234409Y295276D01*
X182641Y299800D02*
X187165Y295276D01*
X168068Y299800D02*
X182641D01*
X163543Y295276D02*
X168068Y299800D01*
X187165Y295276D02*
X191690Y299800D01*
X206263D01*
X210787Y295276D01*
X234409Y314961D02*
X238949Y319500D01*
X253492D01*
X258032Y314961D01*
X210787D02*
X215327Y319500D01*
X229870D01*
X234409Y314961D01*
X182626Y319500D02*
X187165Y314961D01*
X168083Y319500D02*
X182626D01*
X163543Y314961D02*
X168083Y319500D01*
X187165Y314961D02*
X191705Y319500D01*
X206248D01*
X210787Y314961D01*
X234409Y334646D02*
X238964Y339200D01*
X253477D01*
X258032Y334646D01*
X210787D02*
X215342Y339200D01*
X229855D01*
X234409Y334646D01*
X182611Y339200D02*
X187165Y334646D01*
X168098Y339200D02*
X182611D01*
X163543Y334646D02*
X168098Y339200D01*
X187165Y334646D02*
X191720Y339200D01*
X206233D01*
X210787Y334646D01*
X234409Y354331D02*
X238979Y358900D01*
X253462D01*
X258032Y354331D01*
X210787D02*
X215357Y358900D01*
X229840D01*
X234409Y354331D01*
X182596Y358900D02*
X187165Y354331D01*
X168113Y358900D02*
X182596D01*
X163543Y354331D02*
X168113Y358900D01*
X187165Y354331D02*
X191735Y358900D01*
X206218D01*
X210787Y354331D01*
X102421Y378600D02*
X158959D01*
X163543Y374016D01*
X234409D02*
X238994Y378600D01*
X253447D01*
X258032Y374016D01*
X210787D02*
X215372Y378600D01*
X229825D01*
X234409Y374016D01*
X182581Y378600D02*
X187165Y374016D01*
X168128Y378600D02*
X182581D01*
X163543Y374016D02*
X168128Y378600D01*
X187165Y374016D02*
X191750Y378600D01*
X206203D01*
X210787Y374016D01*
X153543Y354331D02*
Y360000D01*
X149343Y364200D02*
X153543Y360000D01*
X101000Y364200D02*
X149343D01*
X98400Y366800D02*
X101000Y364200D01*
X98400Y366800D02*
Y424800D01*
X117000Y443400D01*
X108500Y447400D02*
X223306D01*
X228662Y452756D01*
X188662D02*
X215806Y479900D01*
X251969Y433071D02*
X263780Y444882D01*
X262641Y290200D02*
X307087Y334646D01*
X138934Y290200D02*
X262641D01*
X94488Y334646D02*
X138934Y290200D01*
D14*
X307087Y334646D02*
D03*
Y354331D02*
D03*
X94488Y334646D02*
D03*
Y354331D02*
D03*
X271654Y413386D02*
D03*
X261654D02*
D03*
X281654D02*
D03*
X303150Y407323D02*
D03*
Y397323D02*
D03*
Y387323D02*
D03*
Y377323D02*
D03*
X163543Y295276D02*
D03*
X153543D02*
D03*
X187165D02*
D03*
X177165D02*
D03*
X210787D02*
D03*
X200787D02*
D03*
X234409D02*
D03*
X224409D02*
D03*
X258032D02*
D03*
X248032D02*
D03*
X163543Y314961D02*
D03*
X153543D02*
D03*
X187165D02*
D03*
X177165D02*
D03*
X210787D02*
D03*
X200787D02*
D03*
X234409D02*
D03*
X224409D02*
D03*
X258032D02*
D03*
X248032D02*
D03*
X163543Y334646D02*
D03*
X153543D02*
D03*
X187165D02*
D03*
X177165D02*
D03*
X210787D02*
D03*
X200787D02*
D03*
X234409D02*
D03*
X224409D02*
D03*
X258032D02*
D03*
X248032D02*
D03*
X163543Y354331D02*
D03*
X153543D02*
D03*
X187165D02*
D03*
X177165D02*
D03*
X210787D02*
D03*
X200787D02*
D03*
X234409D02*
D03*
X224409D02*
D03*
X258032D02*
D03*
X248032D02*
D03*
X163543Y374016D02*
D03*
X153543D02*
D03*
X187165Y374016D02*
D03*
X177165D02*
D03*
X210787Y374016D02*
D03*
X200787D02*
D03*
X234409D02*
D03*
X224409D02*
D03*
X258032D02*
D03*
X248032D02*
D03*
D15*
X228662Y452756D02*
D03*
X188662D02*
D03*
X228662Y433071D02*
D03*
X188662D02*
D03*
D16*
X307087Y503937D02*
D03*
X94488D02*
D03*
D17*
X251969Y497244D02*
D03*
D18*
X149606D02*
D03*
D19*
X263780Y454882D02*
D03*
Y444882D02*
D03*
X241969Y433071D02*
D03*
X251969D02*
D03*
D20*
X303150Y417323D02*
D03*
D21*
X263228Y461000D02*
D03*
X102421Y378600D02*
D03*
X117000Y443400D02*
D03*
X108500Y447400D02*
D03*
X215806Y479900D02*
D03*
M02*
