G04 Layer_Color=20142*
%FSLAX25Y25*%
%MOIN*%
G70*
G01*
G75*
%ADD27O,0.03162X0.10839*%
%ADD28R,0.03950X0.10642*%
G04:AMPARAMS|DCode=29|XSize=51.31mil|YSize=31.62mil|CornerRadius=9.91mil|HoleSize=0mil|Usage=FLASHONLY|Rotation=180.000|XOffset=0mil|YOffset=0mil|HoleType=Round|Shape=RoundedRectangle|*
%AMROUNDEDRECTD29*
21,1,0.05131,0.01181,0,0,180.0*
21,1,0.03150,0.03162,0,0,180.0*
1,1,0.01981,-0.01575,0.00591*
1,1,0.01981,0.01575,0.00591*
1,1,0.01981,0.01575,-0.00591*
1,1,0.01981,-0.01575,-0.00591*
%
%ADD29ROUNDEDRECTD29*%
%ADD30C,0.06800*%
%ADD31C,0.07493*%
%ADD32R,0.02769X0.07887*%
%ADD33C,0.06706*%
%ADD34C,0.02300*%
%ADD35C,0.05918*%
%ADD36C,0.00800*%
%ADD37R,0.06800X0.06800*%
%ADD38C,0.05800*%
D27*
X97421Y391929D02*
D03*
X102421D02*
D03*
X107421D02*
D03*
X112421D02*
D03*
X117421D02*
D03*
X122421D02*
D03*
X127421D02*
D03*
X132421D02*
D03*
X137421D02*
D03*
X142421D02*
D03*
X147421D02*
D03*
X152421D02*
D03*
X157421D02*
D03*
X162421D02*
D03*
X97421Y434843D02*
D03*
X102421D02*
D03*
X107421D02*
D03*
X112421D02*
D03*
X117421D02*
D03*
X122421D02*
D03*
X127421D02*
D03*
X132421D02*
D03*
X137421D02*
D03*
X142421D02*
D03*
X147421D02*
D03*
X152421D02*
D03*
X157421D02*
D03*
X162421D02*
D03*
D28*
X128228Y470433D02*
D03*
X133228D02*
D03*
X138228D02*
D03*
X148228D02*
D03*
X143228D02*
D03*
X118228D02*
D03*
X123228D02*
D03*
X113228D02*
D03*
X108228D02*
D03*
X103228D02*
D03*
X178228D02*
D03*
X183228D02*
D03*
X188228D02*
D03*
X198228D02*
D03*
X193228D02*
D03*
X168228D02*
D03*
X173228D02*
D03*
X163228D02*
D03*
X158228D02*
D03*
X153228D02*
D03*
X228228D02*
D03*
X233228D02*
D03*
X238228D02*
D03*
X248228D02*
D03*
X243228D02*
D03*
X218228D02*
D03*
X223228D02*
D03*
X213228D02*
D03*
X208228D02*
D03*
X203228D02*
D03*
X253228D02*
D03*
X258228D02*
D03*
X263228D02*
D03*
X273228D02*
D03*
X268228D02*
D03*
X293228D02*
D03*
X298228D02*
D03*
X288228D02*
D03*
X283228D02*
D03*
X278228D02*
D03*
D29*
X251969Y452362D02*
D03*
X241732Y444882D02*
D03*
X251969Y448622D02*
D03*
X241732Y452362D02*
D03*
X251969Y444882D02*
D03*
D30*
X307087Y334646D02*
D03*
Y354331D02*
D03*
X94488Y334646D02*
D03*
Y354331D02*
D03*
X303150Y407323D02*
D03*
Y397323D02*
D03*
Y387323D02*
D03*
Y377323D02*
D03*
X163543Y295276D02*
D03*
X153543D02*
D03*
X187165D02*
D03*
X177165D02*
D03*
X210787D02*
D03*
X200787D02*
D03*
X234409D02*
D03*
X224409D02*
D03*
X258032D02*
D03*
X248032D02*
D03*
X163543Y314961D02*
D03*
X153543D02*
D03*
X187165D02*
D03*
X177165D02*
D03*
X210787D02*
D03*
X200787D02*
D03*
X234409D02*
D03*
X224409D02*
D03*
X258032D02*
D03*
X248032D02*
D03*
X163543Y334646D02*
D03*
X153543D02*
D03*
X187165D02*
D03*
X177165D02*
D03*
X210787D02*
D03*
X200787D02*
D03*
X234409D02*
D03*
X224409D02*
D03*
X258032D02*
D03*
X248032D02*
D03*
X163543Y354331D02*
D03*
X153543D02*
D03*
X187165D02*
D03*
X177165D02*
D03*
X210787D02*
D03*
X200787D02*
D03*
X234409D02*
D03*
X224409D02*
D03*
X258032D02*
D03*
X248032D02*
D03*
X163543Y374016D02*
D03*
X153543D02*
D03*
X187165Y374016D02*
D03*
X177165D02*
D03*
X210787Y374016D02*
D03*
X200787D02*
D03*
X234409D02*
D03*
X224409D02*
D03*
X258032D02*
D03*
X248032D02*
D03*
D31*
X228662Y452756D02*
D03*
X188662D02*
D03*
X228662Y433071D02*
D03*
X188662D02*
D03*
D32*
X307087Y503937D02*
D03*
X94488D02*
D03*
D33*
X251969Y497244D02*
D03*
D34*
X149606D02*
D03*
D35*
X263780Y454882D02*
D03*
Y444882D02*
D03*
X241969Y433071D02*
D03*
X251969D02*
D03*
D36*
X271654Y413386D02*
D03*
X261654D02*
D03*
X281654D02*
D03*
D37*
X303150Y417323D02*
D03*
D38*
X263228Y461000D02*
D03*
X102421Y378600D02*
D03*
X117000Y443400D02*
D03*
X108500Y447400D02*
D03*
X215806Y479900D02*
D03*
M02*
