G04 Layer_Physical_Order=1*
G04 Layer_Color=25308*
%FSLAX25Y25*%
%MOIN*%
G70*
G01*
G75*
%ADD10O,0.02362X0.10039*%
%ADD11R,0.03150X0.09843*%
G04:AMPARAMS|DCode=12|XSize=43.31mil|YSize=23.62mil|CornerRadius=5.91mil|HoleSize=0mil|Usage=FLASHONLY|Rotation=180.000|XOffset=0mil|YOffset=0mil|HoleType=Round|Shape=RoundedRectangle|*
%AMROUNDEDRECTD12*
21,1,0.04331,0.01181,0,0,180.0*
21,1,0.03150,0.02362,0,0,180.0*
1,1,0.01181,-0.01575,0.00591*
1,1,0.01181,0.01575,0.00591*
1,1,0.01181,0.01575,-0.00591*
1,1,0.01181,-0.01575,-0.00591*
%
%ADD12ROUNDEDRECTD12*%
%ADD13C,0.01000*%
%ADD14C,0.06000*%
%ADD15C,0.06693*%
%ADD16R,0.01969X0.07087*%
%ADD17C,0.05906*%
%ADD18C,0.01500*%
%ADD19C,0.05118*%
%ADD20R,0.06000X0.06000*%
%ADD21C,0.05000*%
D10*
X97421Y391929D02*
D03*
X102421D02*
D03*
X107421D02*
D03*
X112421D02*
D03*
X117421D02*
D03*
X122421D02*
D03*
X127421D02*
D03*
X132421D02*
D03*
X137421D02*
D03*
X142421D02*
D03*
X147421D02*
D03*
X152421D02*
D03*
X157421D02*
D03*
X162421D02*
D03*
X97421Y434843D02*
D03*
X102421D02*
D03*
X107421D02*
D03*
X112421D02*
D03*
X117421D02*
D03*
X122421D02*
D03*
X127421D02*
D03*
X132421D02*
D03*
X137421D02*
D03*
X142421D02*
D03*
X147421D02*
D03*
X152421D02*
D03*
X157421D02*
D03*
X162421D02*
D03*
D11*
X128228Y470433D02*
D03*
X133228D02*
D03*
X138228D02*
D03*
X148228D02*
D03*
X143228D02*
D03*
X118228D02*
D03*
X123228D02*
D03*
X113228D02*
D03*
X108228D02*
D03*
X103228D02*
D03*
X178228D02*
D03*
X183228D02*
D03*
X188228D02*
D03*
X198228D02*
D03*
X193228D02*
D03*
X168228D02*
D03*
X173228D02*
D03*
X163228D02*
D03*
X158228D02*
D03*
X153228D02*
D03*
X228228D02*
D03*
X233228D02*
D03*
X238228D02*
D03*
X248228D02*
D03*
X243228D02*
D03*
X218228D02*
D03*
X223228D02*
D03*
X213228D02*
D03*
X208228D02*
D03*
X203228D02*
D03*
X253228D02*
D03*
X258228D02*
D03*
X263228D02*
D03*
X273228D02*
D03*
X268228D02*
D03*
X293228D02*
D03*
X298228D02*
D03*
X288228D02*
D03*
X283228D02*
D03*
X278228D02*
D03*
D12*
X251969Y452362D02*
D03*
X241732Y444882D02*
D03*
X251969Y448622D02*
D03*
X241732Y452362D02*
D03*
X251969Y444882D02*
D03*
D13*
X288754Y377700D02*
X303150D01*
X248462Y452362D02*
X249662D01*
X228662Y442900D02*
Y452756D01*
Y440338D02*
Y442900D01*
Y433071D02*
Y440338D01*
X102421Y434843D02*
Y440000D01*
X105784Y443362D01*
X110362D01*
X119756Y452756D01*
X188662D01*
X263228Y461000D02*
Y470433D01*
X102421Y378600D02*
Y391929D01*
X97421Y372100D02*
Y391929D01*
Y372100D02*
X99000Y370521D01*
Y339157D02*
Y370521D01*
X94488Y334646D02*
X99000Y339157D01*
X251969Y448622D02*
X260039D01*
X263780Y444882D01*
X298228Y422244D02*
Y470433D01*
Y422244D02*
X303150Y417323D01*
X248032Y374016D02*
Y394886D01*
X199000Y443918D02*
X248032Y394886D01*
X136339Y443918D02*
X199000D01*
X132421Y440000D02*
X136339Y443918D01*
X132421Y434843D02*
Y440000D01*
X122421Y428000D02*
Y434843D01*
Y428000D02*
X125821Y424600D01*
X168682D01*
X184000Y439918D01*
X194000D01*
X195650Y438268D01*
Y383802D02*
Y438268D01*
Y383802D02*
X200787Y378664D01*
Y374016D02*
Y378664D01*
X115506Y441906D02*
X117000Y443400D01*
X112421Y438600D02*
X115506Y441906D01*
X112421Y434843D02*
Y438600D01*
X183228Y464000D02*
Y470433D01*
Y464000D02*
X187328Y459900D01*
X192000D01*
X253500Y398400D01*
Y347900D02*
Y398400D01*
Y347900D02*
X271400Y330000D01*
X309600D01*
X311600Y332000D01*
Y349817D01*
X307087Y354331D02*
X311600Y349817D01*
X133228Y464885D02*
Y470433D01*
X132000Y463657D02*
X133228Y464885D01*
X110145Y463657D02*
X132000D01*
X94488Y448000D02*
X110145Y463657D01*
X94488Y354331D02*
Y448000D01*
X251969Y452362D02*
X261260D01*
X263780Y454882D01*
X97421Y434843D02*
Y440000D01*
X104821Y447400D01*
X108500D01*
X107421Y425079D02*
Y434843D01*
Y425079D02*
X112000Y420500D01*
X183868D01*
X188662Y425293D01*
Y433071D01*
X127421Y429000D02*
Y434843D01*
Y429000D02*
X128621Y427800D01*
X165082D01*
X179200Y441918D01*
X195995D01*
X197995Y439918D01*
Y400431D02*
Y439918D01*
Y400431D02*
X224409Y374016D01*
X107421Y391929D02*
Y401621D01*
X112000Y406200D01*
X185500D01*
X191650Y400050D01*
Y379052D02*
Y400050D01*
Y379052D02*
X191700Y379002D01*
Y358865D02*
Y379002D01*
X187165Y354331D02*
X191700Y358865D01*
X117421Y424500D02*
Y434843D01*
Y424500D02*
X119321Y422600D01*
X175516D01*
X183815Y430899D01*
Y435733D01*
X186000Y437918D01*
X192000D01*
X193650Y436268D01*
Y381000D02*
Y436268D01*
Y381000D02*
X193700Y380950D01*
Y330800D02*
Y380950D01*
X192600Y329700D02*
X193700Y330800D01*
X182111Y329700D02*
X192600D01*
X177165Y334646D02*
X182111Y329700D01*
X263780Y444882D02*
X273228Y454331D01*
Y470433D01*
X215806Y479900D02*
X264000D01*
X268228Y475672D01*
Y470433D02*
Y475672D01*
X182600Y339211D02*
X187165Y334646D01*
X182600Y339211D02*
Y402000D01*
X182200Y402400D02*
X182600Y402000D01*
X114821Y402400D02*
X182200D01*
X112421Y400000D02*
X114821Y402400D01*
X112421Y391929D02*
Y400000D01*
X117421Y391929D02*
Y398000D01*
X118621Y399200D01*
X164000D01*
X168100Y395100D01*
Y319517D02*
Y395100D01*
X163543Y314961D02*
X168100Y319517D01*
X303150Y377323D02*
Y377700D01*
X271654Y394800D02*
X288754Y377700D01*
X271654Y394800D02*
Y413386D01*
X122421Y384000D02*
Y391929D01*
Y384000D02*
X124621Y381800D01*
X152700D01*
X158500Y376000D01*
Y300319D02*
Y376000D01*
Y300319D02*
X163543Y295276D01*
X261654Y413386D02*
Y439328D01*
X256100Y444882D02*
X261654Y439328D01*
X251969Y444882D02*
X256100D01*
X303150Y417323D02*
X307700Y412772D01*
Y365800D02*
Y412772D01*
X302500Y360600D02*
X307700Y365800D01*
X302500Y339232D02*
Y360600D01*
Y339232D02*
X307087Y334646D01*
X241732Y444882D02*
Y446532D01*
X245550Y450350D01*
Y460278D01*
X243228Y462600D02*
X245550Y460278D01*
X243228Y462600D02*
Y470433D01*
X241732Y437071D02*
Y444882D01*
Y437071D02*
X241969Y436835D01*
Y433071D02*
Y436835D01*
X247800Y451700D02*
X248462Y452362D01*
X247800Y432000D02*
Y451700D01*
X244800Y429000D02*
X247800Y432000D01*
X240000Y429000D02*
X244800D01*
X228662Y440338D02*
X240000Y429000D01*
X249418Y444882D02*
X251969D01*
X248300Y446000D02*
X249418Y444882D01*
X248300Y446000D02*
Y451000D01*
X249662Y452362D01*
X251969D01*
X283228Y470433D02*
X288228D01*
X273228D02*
X278228D01*
X283228D01*
X288228D02*
X293228D01*
X298228D01*
X248032Y314961D02*
Y334646D01*
Y295276D02*
Y314961D01*
Y334646D02*
Y354331D01*
Y374016D01*
X224409Y314961D02*
Y334646D01*
Y295276D02*
Y314961D01*
Y334646D02*
Y354331D01*
Y374016D01*
X200787Y314961D02*
Y334646D01*
Y295276D02*
Y314961D01*
Y334646D02*
Y354331D01*
Y374016D01*
X177165Y314961D02*
Y334646D01*
Y295276D02*
Y314961D01*
Y334646D02*
Y354331D01*
Y374016D01*
X153543Y314961D02*
Y334646D01*
Y295276D02*
Y314961D01*
Y334646D02*
Y354331D01*
Y374016D01*
X248228Y470433D02*
X253228D01*
X258228D01*
X243228D02*
X248228D01*
X233228D02*
X238228D01*
X243228D01*
D14*
X307087Y334646D02*
D03*
Y354331D02*
D03*
X94488Y334646D02*
D03*
Y354331D02*
D03*
X303150Y407323D02*
D03*
Y397323D02*
D03*
Y387323D02*
D03*
Y377323D02*
D03*
X163543Y295276D02*
D03*
X153543D02*
D03*
X187165D02*
D03*
X177165D02*
D03*
X210787D02*
D03*
X200787D02*
D03*
X234409D02*
D03*
X224409D02*
D03*
X258032D02*
D03*
X248032D02*
D03*
X163543Y314961D02*
D03*
X153543D02*
D03*
X187165D02*
D03*
X177165D02*
D03*
X210787D02*
D03*
X200787D02*
D03*
X234409D02*
D03*
X224409D02*
D03*
X258032D02*
D03*
X248032D02*
D03*
X163543Y334646D02*
D03*
X153543D02*
D03*
X187165D02*
D03*
X177165D02*
D03*
X210787D02*
D03*
X200787D02*
D03*
X234409D02*
D03*
X224409D02*
D03*
X258032D02*
D03*
X248032D02*
D03*
X163543Y354331D02*
D03*
X153543D02*
D03*
X187165D02*
D03*
X177165D02*
D03*
X210787D02*
D03*
X200787D02*
D03*
X234409D02*
D03*
X224409D02*
D03*
X258032D02*
D03*
X248032D02*
D03*
X163543Y374016D02*
D03*
X153543D02*
D03*
X187165Y374016D02*
D03*
X177165D02*
D03*
X210787Y374016D02*
D03*
X200787D02*
D03*
X234409D02*
D03*
X224409D02*
D03*
X258032D02*
D03*
X248032D02*
D03*
D15*
X228662Y452756D02*
D03*
X188662D02*
D03*
X228662Y433071D02*
D03*
X188662D02*
D03*
D16*
X307087Y503937D02*
D03*
X94488D02*
D03*
D17*
X251969Y497244D02*
D03*
D18*
X149606D02*
D03*
D19*
X263780Y454882D02*
D03*
Y444882D02*
D03*
X241969Y433071D02*
D03*
X251969D02*
D03*
D20*
X303150Y417323D02*
D03*
D21*
X263228Y461000D02*
D03*
X102421Y378600D02*
D03*
X117000Y443400D02*
D03*
X108500Y447400D02*
D03*
X215806Y479900D02*
D03*
M02*
