0
SECTION
2
HEADER
9
$INSUNITS
70
4
9
$ACADVER
1
AC1014
9
$HANDSEED
5
FFFF
0
ENDSEC
0
SECTION
2
TABLES
0
TABLE
2
VPORT
5
8
100
AcDbSymbolTable
0
ENDTAB
0
TABLE
2
LTYPE
5
5
100
AcDbSymbolTable
0
LTYPE
5
14
100
AcDbSymbolTableRecord
100
AcDbLinetypeTableRecord
2
BYBLOCK
70
0
0
LTYPE
5
15
100
AcDbSymbolTableRecord
100
AcDbLinetypeTableRecord
2
BYLAYER
70
0
0
ENDTAB
0
TABLE
2
LAYER
5
2
100
AcDbSymbolTable
70
2
0
LAYER
5
50
100
AcDbSymbolTableRecord
100
AcDbLayerTableRecord
2
0
70
0
6
CONTINUOUS
0
ENDTAB
0
TABLE
2
STYLE
5
3
100
AcDbSymbolTable
70
1
0
STYLE
5
11
100
AcDbSymbolTableRecord
100
AcDbTextStyleTableRecord
2
STANDARD
70
0
0
ENDTAB
0
TABLE
2
VIEW
5
6
100
AcDbSymbolTable
70
0
0
ENDTAB
0
TABLE
2
UCS
5
7
100
AcDbSymbolTable
70
0
0
ENDTAB
0
TABLE
2
APPID
5
9
100
AcDbSymbolTable
70
2
0
APPID
5
12
100
AcDbSymbolTableRecord
100
AcDbRegAppTableRecord
2
ACAD
70
0
0
ENDTAB
0
TABLE
2
DIMSTYLE
5
A
100
AcDbSymbolTable
70
1
0
ENDTAB
0
TABLE
2
BLOCK_RECORD
5
1
100
AcDbSymbolTable
70
1
0
BLOCK_RECORD
5
1F
100
AcDbSymbolTableRecord
100
AcDbBlockTableRecord
2
*MODEL_SPACE
0
BLOCK_RECORD
5
1B
100
AcDbSymbolTableRecord
100
AcDbBlockTableRecord
2
*PAPER_SPACE
0
ENDTAB
0
ENDSEC
0
SECTION
2
BLOCKS
0
BLOCK
5
20
100
AcDbEntity
100
AcDbBlockBegin
2
*MODEL_SPACE
0
ENDBLK
5
21
100
AcDbEntity
100
AcDbBlockEnd
0
BLOCK
5
1C
100
AcDbEntity
100
AcDbBlockBegin
2
*PAPER_SPACE
0
ENDBLK
5
1D
100
AcDbEntity
100
AcDbBlockEnd
0
ENDSEC
0
SECTION
2
ENTITIES
0
LINE
5
100
100
AcDbEntity
8
0
100
AcDbLine
10
250
20
-9.9999999999999982
30
0
11
250
21
-190
31
0
0
LINE
5
101
100
AcDbEntity
8
0
100
AcDbLine
10
240
20
-200
30
0
11
10
21
-200
31
0
0
LINE
5
102
100
AcDbEntity
8
0
100
AcDbLine
10
0
20
-200
30
0
11
0
21
-10
31
0
0
CIRCLE
5
103
100
AcDbEntity
8
0
100
AcDbCircle
10
40
20
-115
30
0
40
6.5
0
CIRCLE
5
104
100
AcDbEntity
8
0
100
AcDbCircle
10
210
20
-115
30
0
40
6.5
0
LINE
5
105
100
AcDbEntity
8
0
100
AcDbLine
10
0
20
-200
30
0
11
-2.7554552980815448e-15
21
-155
31
0
0
LINE
5
106
100
AcDbEntity
8
0
100
AcDbLine
10
0
20
-200
30
0
11
85
21
-200
31
0
0
LINE
5
107
100
AcDbEntity
8
0
100
AcDbLine
10
85
20
-200
30
0
11
105
21
-200
31
0
0
LINE
5
108
100
AcDbEntity
8
0
100
AcDbLine
10
105
20
-200
30
0
11
125
21
-200
31
0
0
LINE
5
109
100
AcDbEntity
8
0
100
AcDbLine
10
125
20
-200
30
0
11
145
21
-200
31
0
0
LINE
5
110
100
AcDbEntity
8
0
100
AcDbLine
10
145
20
-200
30
0
11
165
21
-200
31
0
0
CIRCLE
5
111
100
AcDbEntity
8
0
100
AcDbCircle
10
85
20
-155
30
0
40
5.5
0
CIRCLE
5
112
100
AcDbEntity
8
0
100
AcDbCircle
10
105
20
-155
30
0
40
5.5
0
CIRCLE
5
113
100
AcDbEntity
8
0
100
AcDbCircle
10
125
20
-155
30
0
40
5.5
0
CIRCLE
5
114
100
AcDbEntity
8
0
100
AcDbCircle
10
145
20
-155
30
0
40
5.5
0
CIRCLE
5
115
100
AcDbEntity
8
0
100
AcDbCircle
10
165
20
-155
30
0
40
5.5
0
CIRCLE
5
116
100
AcDbEntity
8
0
100
AcDbCircle
10
165
20
-135
30
0
40
5.5
0
CIRCLE
5
117
100
AcDbEntity
8
0
100
AcDbCircle
10
165
20
-115
30
0
40
5.5
0
CIRCLE
5
118
100
AcDbEntity
8
0
100
AcDbCircle
10
145
20
-135
30
0
40
5.5
0
CIRCLE
5
119
100
AcDbEntity
8
0
100
AcDbCircle
10
125
20
-135
30
0
40
5.5
0
CIRCLE
5
120
100
AcDbEntity
8
0
100
AcDbCircle
10
105
20
-135
30
0
40
5.5
0
CIRCLE
5
121
100
AcDbEntity
8
0
100
AcDbCircle
10
85
20
-135
30
0
40
5.5
0
CIRCLE
5
122
100
AcDbEntity
8
0
100
AcDbCircle
10
145
20
-115
30
0
40
5.5
0
CIRCLE
5
123
100
AcDbEntity
8
0
100
AcDbCircle
10
125
20
-115
30
0
40
5.5
0
CIRCLE
5
124
100
AcDbEntity
8
0
100
AcDbCircle
10
105
20
-115
30
0
40
5.5
0
CIRCLE
5
125
100
AcDbEntity
8
0
100
AcDbCircle
10
85
20
-115
30
0
40
5.5
0
CIRCLE
5
126
100
AcDbEntity
8
0
100
AcDbCircle
10
165
20
-95
30
0
40
5.5
0
CIRCLE
5
127
100
AcDbEntity
8
0
100
AcDbCircle
10
145
20
-95
30
0
40
5.5
0
CIRCLE
5
128
100
AcDbEntity
8
0
100
AcDbCircle
10
125
20
-95
30
0
40
5.5
0
CIRCLE
5
129
100
AcDbEntity
8
0
100
AcDbCircle
10
105
20
-95
30
0
40
5.5
0
CIRCLE
5
130
100
AcDbEntity
8
0
100
AcDbCircle
10
85
20
-95
30
0
40
5.5
0
CIRCLE
5
131
100
AcDbEntity
8
0
100
AcDbCircle
10
165
20
-75
30
0
40
5.5
0
CIRCLE
5
132
100
AcDbEntity
8
0
100
AcDbCircle
10
145
20
-75
30
0
40
5.5
0
CIRCLE
5
133
100
AcDbEntity
8
0
100
AcDbCircle
10
125
20
-75
30
0
40
5.5
0
CIRCLE
5
134
100
AcDbEntity
8
0
100
AcDbCircle
10
105
20
-75
30
0
40
5.5
0
CIRCLE
5
135
100
AcDbEntity
8
0
100
AcDbCircle
10
85
20
-75
30
0
40
5.5
0
LINE
5
136
100
AcDbEntity
8
0
100
AcDbLine
10
85
20
-115
30
0
11
105
21
-115
31
0
0
LINE
5
137
100
AcDbEntity
8
0
100
AcDbLine
10
105
20
-115
30
0
11
125
21
-115
31
0
0
LINE
5
138
100
AcDbEntity
8
0
100
AcDbLine
10
125
20
-115
30
0
11
145
21
-115
31
0
0
LINE
5
139
100
AcDbEntity
8
0
100
AcDbLine
10
145
20
-115
30
0
11
165
21
-115
31
0
0
LINE
5
140
100
AcDbEntity
8
0
100
AcDbLine
10
85
20
-135
30
0
11
105
21
-135
31
0
0
LINE
5
141
100
AcDbEntity
8
0
100
AcDbLine
10
105
20
-135
30
0
11
125
21
-135
31
0
0
LINE
5
142
100
AcDbEntity
8
0
100
AcDbLine
10
125
20
-135
30
0
11
145
21
-135
31
0
0
LINE
5
143
100
AcDbEntity
8
0
100
AcDbLine
10
145
20
-135
30
0
11
165
21
-135
31
0
0
LINE
5
144
100
AcDbEntity
8
0
100
AcDbLine
10
85
20
-95
30
0
11
105
21
-95
31
0
0
LINE
5
145
100
AcDbEntity
8
0
100
AcDbLine
10
105
20
-95
30
0
11
125
21
-95
31
0
0
LINE
5
146
100
AcDbEntity
8
0
100
AcDbLine
10
125
20
-95
30
0
11
145
21
-95
31
0
0
LINE
5
147
100
AcDbEntity
8
0
100
AcDbLine
10
145
20
-95
30
0
11
165
21
-95
31
0
0
LINE
5
148
100
AcDbEntity
8
0
100
AcDbLine
10
85
20
-75
30
0
11
105
21
-75
31
0
0
LINE
5
149
100
AcDbEntity
8
0
100
AcDbLine
10
105
20
-75
30
0
11
125
21
-75
31
0
0
LINE
5
150
100
AcDbEntity
8
0
100
AcDbLine
10
125
20
-75
30
0
11
145
21
-75
31
0
0
LINE
5
151
100
AcDbEntity
8
0
100
AcDbLine
10
145
20
-75
30
0
11
165
21
-75
31
0
0
LINE
5
152
100
AcDbEntity
8
0
100
AcDbLine
10
85
20
-155
30
0
11
105
21
-155
31
0
0
LINE
5
153
100
AcDbEntity
8
0
100
AcDbLine
10
105
20
-155
30
0
11
125
21
-155
31
0
0
LINE
5
154
100
AcDbEntity
8
0
100
AcDbLine
10
125
20
-155
30
0
11
145
21
-155
31
0
0
LINE
5
155
100
AcDbEntity
8
0
100
AcDbLine
10
145
20
-155
30
0
11
165
21
-155
31
0
0
LINE
5
156
100
AcDbEntity
8
0
100
AcDbLine
10
85
20
-155
30
0
11
85
21
-135
31
0
0
LINE
5
157
100
AcDbEntity
8
0
100
AcDbLine
10
105
20
-155
30
0
11
105
21
-135
31
0
0
LINE
5
158
100
AcDbEntity
8
0
100
AcDbLine
10
125
20
-155
30
0
11
125
21
-135
31
0
0
LINE
5
159
100
AcDbEntity
8
0
100
AcDbLine
10
145
20
-155
30
0
11
145
21
-135
31
0
0
LINE
5
160
100
AcDbEntity
8
0
100
AcDbLine
10
165
20
-155
30
0
11
165
21
-135
31
0
0
LINE
5
161
100
AcDbEntity
8
0
100
AcDbLine
10
85
20
-135
30
0
11
85
21
-115
31
0
0
LINE
5
162
100
AcDbEntity
8
0
100
AcDbLine
10
105
20
-135
30
0
11
105
21
-115
31
0
0
LINE
5
163
100
AcDbEntity
8
0
100
AcDbLine
10
125
20
-135
30
0
11
125
21
-115
31
0
0
LINE
5
164
100
AcDbEntity
8
0
100
AcDbLine
10
145
20
-135
30
0
11
145
21
-115
31
0
0
LINE
5
165
100
AcDbEntity
8
0
100
AcDbLine
10
165
20
-135
30
0
11
165
21
-115
31
0
0
LINE
5
166
100
AcDbEntity
8
0
100
AcDbLine
10
165
20
-115
30
0
11
165
21
-95
31
0
0
LINE
5
167
100
AcDbEntity
8
0
100
AcDbLine
10
165
20
-95
30
0
11
165
21
-75
31
0
0
LINE
5
168
100
AcDbEntity
8
0
100
AcDbLine
10
145
20
-75
30
0
11
145
21
-95
31
0
0
LINE
5
169
100
AcDbEntity
8
0
100
AcDbLine
10
145
20
-95
30
0
11
145
21
-115
31
0
0
LINE
5
170
100
AcDbEntity
8
0
100
AcDbLine
10
125
20
-115
30
0
11
125
21
-95
31
0
0
LINE
5
171
100
AcDbEntity
8
0
100
AcDbLine
10
125
20
-95
30
0
11
125
21
-75
31
0
0
LINE
5
172
100
AcDbEntity
8
0
100
AcDbLine
10
105
20
-75
30
0
11
105
21
-95
31
0
0
LINE
5
173
100
AcDbEntity
8
0
100
AcDbLine
10
105
20
-95
30
0
11
105
21
-115
31
0
0
LINE
5
174
100
AcDbEntity
8
0
100
AcDbLine
10
85
20
-115
30
0
11
85
21
-95
31
0
0
LINE
5
175
100
AcDbEntity
8
0
100
AcDbLine
10
85
20
-95
30
0
11
85
21
-75
31
0
0
LINE
5
176
100
AcDbEntity
8
0
100
AcDbLine
10
165
20
-155
30
0
11
210
21
-155
31
0
0
LINE
5
177
100
AcDbEntity
8
0
100
AcDbLine
10
210
20
-155
30
0
11
210
21
-115
31
0
0
LINE
5
178
100
AcDbEntity
8
0
100
AcDbLine
10
85
20
-155
30
0
11
-2.7554552980815448e-15
21
-155
31
0
0
LINE
5
179
100
AcDbEntity
8
0
100
AcDbLine
10
9.9999999999999982
20
2.2204460492503131e-15
30
0
11
90.500000000000028
21
0
31
0
0
LINE
5
180
100
AcDbEntity
8
0
100
AcDbLine
10
154.5
20
-4.9999999999999813
30
0
11
154.5
21
-48.000000000000007
31
0
0
LINE
5
181
100
AcDbEntity
8
0
100
AcDbLine
10
154.5
20
-48.000000000000007
30
0
11
95.5
21
-48.000000000000007
31
0
0
LINE
5
182
100
AcDbEntity
8
0
100
AcDbLine
10
95.5
20
-48.000000000000007
30
0
11
95.5
21
-4.9999999999999991
31
0
0
LINE
5
183
100
AcDbEntity
8
0
100
AcDbLine
10
95.5
20
0
30
0
11
0
21
0
31
0
0
LINE
5
184
100
AcDbEntity
8
0
100
AcDbLine
10
159.5
20
3.8857805861880479e-15
30
0
11
240
21
1.3322676295501878e-14
31
0
0
LINE
5
185
100
AcDbEntity
8
0
100
AcDbLine
10
-1.1102230246251565e-14
20
-190
30
0
11
0
21
-185
31
0
0
LINE
5
186
100
AcDbEntity
8
0
100
AcDbLine
10
0
20
-185
30
0
11
250
21
-185
31
0
0
CIRCLE
5
187
100
AcDbEntity
8
0
100
AcDbCircle
10
25
20
-185
30
0
40
1.9999999999999969
0
CIRCLE
5
188
100
AcDbEntity
8
0
100
AcDbCircle
10
75
20
-185
30
0
40
2.0000000000000058
0
CIRCLE
5
189
100
AcDbEntity
8
0
100
AcDbCircle
10
125
20
-185
30
0
40
1.9999999999999929
0
CIRCLE
5
190
100
AcDbEntity
8
0
100
AcDbCircle
10
225
20
-185
30
0
40
1.9999999999999853
0
CIRCLE
5
191
100
AcDbEntity
8
0
100
AcDbCircle
10
175
20
-185
30
0
40
1.9999999999999931
0
ARC
5
192
100
AcDbEntity
8
0
100
AcDbCircle
10
10.000000000000021
20
-189.99999999999997
30
0
40
10.000000000000034
100
AcDbArc
50
180
51
269.99999999999989
0
ARC
5
193
100
AcDbEntity
8
0
100
AcDbCircle
10
239.99999999999997
20
-189.99999999999997
30
0
40
10.000000000000036
100
AcDbArc
50
270.00000000000017
51
360
0
ARC
5
194
100
AcDbEntity
8
0
100
AcDbCircle
10
239.99999999999997
20
-10.000000000000021
30
0
40
10.000000000000036
100
AcDbArc
50
0
51
89.999999999999844
0
ARC
5
195
100
AcDbEntity
8
0
100
AcDbCircle
10
9.9999999999999911
20
-9.9999999999999893
30
0
40
9.9999999999999911
100
AcDbArc
50
89.999999999999972
51
180
0
ARC
5
196
100
AcDbEntity
8
0
100
AcDbCircle
10
90.5
20
-5.0000000000000071
30
0
40
5
100
AcDbArc
50
0
51
89.999999999999673
0
ARC
5
197
100
AcDbEntity
8
0
100
AcDbCircle
10
159.49999999999997
20
-4.9999999999999609
30
0
40
4.9999999999999645
100
AcDbArc
50
89.999999999999673
51
180
0
CIRCLE
5
198
100
AcDbEntity
8
0
100
AcDbCircle
10
239.99999999999997
20
-10.000000000000021
30
0
40
2.000000000000016
0
CIRCLE
5
199
100
AcDbEntity
8
0
100
AcDbCircle
10
240
20
-18.000000000000021
30
0
40
3.0000000000000071
0
ENDSEC
0
SECTION
2
OBJECTS
0
DICTIONARY
5
C
100
AcDbDictionary
3
ACAD_GROUP
350
D
3
ACAD_MLINESTYLE
350
17
0
DICTIONARY
5
D
100
AcDbDictionary
0
DICTIONARY
5
1A
330
C
100
AcDbDictionary
0
DICTIONARY
5
17
100
AcDbDictionary
0
ENDSEC
0
EOF
