0
SECTION
2
HEADER
9
$INSUNITS
70
4
9
$ACADVER
1
AC1014
9
$HANDSEED
5
FFFF
0
ENDSEC
0
SECTION
2
TABLES
0
TABLE
2
VPORT
5
8
100
AcDbSymbolTable
0
ENDTAB
0
TABLE
2
LTYPE
5
5
100
AcDbSymbolTable
0
LTYPE
5
14
100
AcDbSymbolTableRecord
100
AcDbLinetypeTableRecord
2
BYBLOCK
70
0
0
LTYPE
5
15
100
AcDbSymbolTableRecord
100
AcDbLinetypeTableRecord
2
BYLAYER
70
0
0
ENDTAB
0
TABLE
2
LAYER
5
2
100
AcDbSymbolTable
70
2
0
LAYER
5
50
100
AcDbSymbolTableRecord
100
AcDbLayerTableRecord
2
0
70
0
6
CONTINUOUS
0
ENDTAB
0
TABLE
2
STYLE
5
3
100
AcDbSymbolTable
70
1
0
STYLE
5
11
100
AcDbSymbolTableRecord
100
AcDbTextStyleTableRecord
2
STANDARD
70
0
0
ENDTAB
0
TABLE
2
VIEW
5
6
100
AcDbSymbolTable
70
0
0
ENDTAB
0
TABLE
2
UCS
5
7
100
AcDbSymbolTable
70
0
0
ENDTAB
0
TABLE
2
APPID
5
9
100
AcDbSymbolTable
70
2
0
APPID
5
12
100
AcDbSymbolTableRecord
100
AcDbRegAppTableRecord
2
ACAD
70
0
0
ENDTAB
0
TABLE
2
DIMSTYLE
5
A
100
AcDbSymbolTable
70
1
0
ENDTAB
0
TABLE
2
BLOCK_RECORD
5
1
100
AcDbSymbolTable
70
1
0
BLOCK_RECORD
5
1F
100
AcDbSymbolTableRecord
100
AcDbBlockTableRecord
2
*MODEL_SPACE
0
BLOCK_RECORD
5
1B
100
AcDbSymbolTableRecord
100
AcDbBlockTableRecord
2
*PAPER_SPACE
0
ENDTAB
0
ENDSEC
0
SECTION
2
BLOCKS
0
BLOCK
5
20
100
AcDbEntity
100
AcDbBlockBegin
2
*MODEL_SPACE
0
ENDBLK
5
21
100
AcDbEntity
100
AcDbBlockEnd
0
BLOCK
5
1C
100
AcDbEntity
100
AcDbBlockBegin
2
*PAPER_SPACE
0
ENDBLK
5
1D
100
AcDbEntity
100
AcDbBlockEnd
0
ENDSEC
0
SECTION
2
ENTITIES
0
LINE
5
100
100
AcDbEntity
8
0
100
AcDbLine
10
249.99999313368744
20
-9.9414057365747812
30
0
11
249.99999313368744
21
-189.99999999999997
31
0
0
CIRCLE
5
101
100
AcDbEntity
8
0
100
AcDbCircle
10
40
20
-115
30
0
40
6.5
0
CIRCLE
5
102
100
AcDbEntity
8
0
100
AcDbCircle
10
210
20
-115
30
0
40
6.5
0
CIRCLE
5
103
100
AcDbEntity
8
0
100
AcDbCircle
10
85
20
-155
30
0
40
5.5
0
CIRCLE
5
104
100
AcDbEntity
8
0
100
AcDbCircle
10
105
20
-155
30
0
40
5.5
0
CIRCLE
5
105
100
AcDbEntity
8
0
100
AcDbCircle
10
125
20
-155
30
0
40
5.5
0
CIRCLE
5
106
100
AcDbEntity
8
0
100
AcDbCircle
10
145
20
-155
30
0
40
5.5
0
CIRCLE
5
107
100
AcDbEntity
8
0
100
AcDbCircle
10
165
20
-155
30
0
40
5.5
0
CIRCLE
5
108
100
AcDbEntity
8
0
100
AcDbCircle
10
165
20
-135
30
0
40
5.5
0
CIRCLE
5
109
100
AcDbEntity
8
0
100
AcDbCircle
10
165
20
-115
30
0
40
5.5
0
CIRCLE
5
110
100
AcDbEntity
8
0
100
AcDbCircle
10
145
20
-135
30
0
40
5.5
0
CIRCLE
5
111
100
AcDbEntity
8
0
100
AcDbCircle
10
125
20
-135
30
0
40
5.5
0
CIRCLE
5
112
100
AcDbEntity
8
0
100
AcDbCircle
10
105
20
-135
30
0
40
5.5
0
CIRCLE
5
113
100
AcDbEntity
8
0
100
AcDbCircle
10
85
20
-135
30
0
40
5.5
0
CIRCLE
5
114
100
AcDbEntity
8
0
100
AcDbCircle
10
145
20
-115
30
0
40
5.5
0
CIRCLE
5
115
100
AcDbEntity
8
0
100
AcDbCircle
10
125
20
-115
30
0
40
5.5
0
CIRCLE
5
116
100
AcDbEntity
8
0
100
AcDbCircle
10
105
20
-115
30
0
40
5.5
0
CIRCLE
5
117
100
AcDbEntity
8
0
100
AcDbCircle
10
85
20
-115
30
0
40
5.5
0
CIRCLE
5
118
100
AcDbEntity
8
0
100
AcDbCircle
10
165
20
-95
30
0
40
5.5
0
CIRCLE
5
119
100
AcDbEntity
8
0
100
AcDbCircle
10
145
20
-95
30
0
40
5.5
0
CIRCLE
5
120
100
AcDbEntity
8
0
100
AcDbCircle
10
125
20
-95
30
0
40
5.5
0
CIRCLE
5
121
100
AcDbEntity
8
0
100
AcDbCircle
10
105
20
-95
30
0
40
5.5
0
CIRCLE
5
122
100
AcDbEntity
8
0
100
AcDbCircle
10
85
20
-95
30
0
40
5.5
0
CIRCLE
5
123
100
AcDbEntity
8
0
100
AcDbCircle
10
165
20
-75
30
0
40
5.5
0
CIRCLE
5
124
100
AcDbEntity
8
0
100
AcDbCircle
10
145
20
-75
30
0
40
5.5
0
CIRCLE
5
125
100
AcDbEntity
8
0
100
AcDbCircle
10
125
20
-75
30
0
40
5.5
0
CIRCLE
5
126
100
AcDbEntity
8
0
100
AcDbCircle
10
105
20
-75
30
0
40
5.5
0
CIRCLE
5
127
100
AcDbEntity
8
0
100
AcDbCircle
10
85
20
-75
30
0
40
5.5
0
LINE
5
128
100
AcDbEntity
8
0
100
AcDbLine
10
154.5
20
-4.9414057365747466
30
0
11
154.5
21
-48.000000000000007
31
0
0
LINE
5
129
100
AcDbEntity
8
0
100
AcDbLine
10
154.5
20
-48.000000000000007
30
0
11
95.5
21
-48.000000000000007
31
0
0
LINE
5
130
100
AcDbEntity
8
0
100
AcDbLine
10
159.49999999999997
20
0.058594263425221574
30
0
11
239.99999313368744
21
0.058594263425221567
31
0
0
ARC
5
131
100
AcDbEntity
8
0
100
AcDbCircle
10
10.000000000000021
20
-189.99999999999997
30
0
40
10.000000000000034
100
AcDbArc
50
180
51
269.99999999999989
0
ARC
5
132
100
AcDbEntity
8
0
100
AcDbCircle
10
239.99999313368738
20
-189.99999999999997
30
0
40
10.000000000000036
100
AcDbArc
50
-90
51
0
0
ARC
5
133
100
AcDbEntity
8
0
100
AcDbCircle
10
239.99999313368744
20
-9.9414057365747794
30
0
40
10
100
AcDbArc
50
0
51
90
0
ARC
5
134
100
AcDbEntity
8
0
100
AcDbCircle
10
159.49999999999997
20
-4.9414057365747457
30
0
40
4.999999999999968
100
AcDbArc
50
90
51
180
0
CIRCLE
5
135
100
AcDbEntity
8
0
100
AcDbCircle
10
239.99999313368744
20
-9.9414057365747794
30
0
40
2.000000000000016
0
CIRCLE
5
136
100
AcDbEntity
8
0
100
AcDbCircle
10
239.99999313368744
20
-17.941405736574779
30
0
40
3.0000000000000071
0
LINE
5
137
100
AcDbEntity
8
0
100
AcDbLine
10
60
20
1.9032394424255049e-14
30
0
11
1.6653345121223167e-14
21
-60
31
0
0
LINE
5
138
100
AcDbEntity
8
0
100
AcDbLine
10
0
20
-60
30
0
11
-1.1102230246251565e-14
21
-190
31
0
0
LINE
5
139
100
AcDbEntity
8
0
100
AcDbLine
10
60
20
1.9032394424255049e-14
30
0
11
60
21
-29.999999999999982
31
0
0
LINE
5
140
100
AcDbEntity
8
0
100
AcDbLine
10
60
20
-29.999999999999982
30
0
11
90
21
1.9032394424255049e-14
31
0
0
LINE
5
141
100
AcDbEntity
8
0
100
AcDbLine
10
95.5
20
-12
30
0
11
90
21
-17.500000000000007
31
0
0
LINE
5
142
100
AcDbEntity
8
0
100
AcDbLine
10
90
20
1.9032394424255049e-14
30
0
11
90
21
-17.500000000000007
31
0
0
LINE
5
143
100
AcDbEntity
8
0
100
AcDbLine
10
95.5
20
-12
30
0
11
95.5
21
-48.000000000000007
31
0
0
LINE
5
144
100
AcDbEntity
8
0
100
AcDbLine
10
190.75525143176634
20
-30.006344566058786
30
0
11
213.76403478893064
21
-30.006344566058779
31
0
0
LINE
5
145
100
AcDbEntity
8
0
100
AcDbLine
10
232.21852290289061
20
-48.382497683102201
30
0
11
232.21852290289061
21
-48.382497683102201
31
0
0
LINE
5
146
100
AcDbEntity
8
0
100
AcDbLine
10
213.75781615497027
20
-66.858159612516928
30
0
11
190.75398088174398
21
-66.858159612544114
31
0
0
LINE
5
147
100
AcDbEntity
8
0
100
AcDbLine
10
172.30334677867108
20
-48.637187424705942
30
0
11
172.30334677867108
21
-48.637187424705942
31
0
0
ARC
5
148
100
AcDbEntity
8
0
100
AcDbCircle
10
213.76403478893064
20
-48.460999645642787
30
0
40
18.454655079583915
100
AcDbArc
50
0.24372412717440628
51
90
0
ARC
5
149
100
AcDbEntity
8
0
100
AcDbCircle
10
190.75525143176634
20
-48.459108516869385
30
0
40
18.452763950810599
100
AcDbArc
50
90
51
180.55294308472847
0
ARC
5
150
100
AcDbEntity
8
0
100
AcDbCircle
10
190.75398088172219
20
-48.406078149968096
30
0
40
18.452081462576022
100
AcDbArc
50
180.71763894521393
51
270.0000000000677
0
LWPOLYLINE
5
151
100
AcDbEntity
8
0
100
AcDbPolyline
90
6
70
1
43
0.0
10
213.22394817083477
20
-36.957423713246293
42
-0.42657087162769397
10
225.28014333501358
20
-48.40445990486608
42
-0.41481096623471342
10
213.75779681816533
20
-59.919552048513694
10
190.75750823971964
20
-59.919552048560874
42
-0.41029618394611472
10
179.24158685019103
20
-48.563803603207695
42
-0.40329391149993965
10
190.2198265129793
20
-36.957423713569192
0
CIRCLE
5
152
100
AcDbEntity
8
0
100
AcDbCircle
10
190.7539808817221
20
-48.406078149968074
30
0
40
3.5000000000000004
0
CIRCLE
5
153
100
AcDbEntity
8
0
100
AcDbCircle
10
213.77315303040209
20
-48.41256913305098
30
0
40
3.5000000000000142
0
LINE
5
154
100
AcDbEntity
8
0
100
AcDbLine
10
213.75781615497027
20
-66.858159612516928
30
0
11
213.72265542489652
21
-66.858159612516928
31
0
0
LINE
5
155
100
AcDbEntity
8
0
100
AcDbLine
10
232.21852479271431
20
-48.370720817159231
30
0
11
232.21852290289061
21
-48.382497683102201
31
0
0
LINE
5
156
100
AcDbEntity
8
0
100
AcDbLine
10
14.999999999999989
20
-200
30
0
11
14.999999999999989
21
-185
31
0
0
LINE
5
157
100
AcDbEntity
8
0
100
AcDbLine
10
34.999999999999993
20
-200
30
0
11
34.999999999999993
21
-185
31
0
0
LINE
5
158
100
AcDbEntity
8
0
100
AcDbLine
10
24.999999999999986
20
-175
30
0
11
24.999999999999986
21
-175
31
0
0
ARC
5
159
100
AcDbEntity
8
0
100
AcDbCircle
10
25.000000000000014
20
-185.00000000000003
30
0
40
10.000000000000036
100
AcDbArc
50
90.000000000000171
51
180
0
ARC
5
160
100
AcDbEntity
8
0
100
AcDbCircle
10
24.999999999999968
20
-185.00000000000003
30
0
40
10.000000000000021
100
AcDbArc
50
0
51
89.999999999999901
0
LINE
5
161
100
AcDbEntity
8
0
100
AcDbLine
10
64.999999999999986
20
-200
30
0
11
64.999999999999986
21
-185
31
0
0
LINE
5
162
100
AcDbEntity
8
0
100
AcDbLine
10
85
20
-200
30
0
11
85
21
-185
31
0
0
LINE
5
163
100
AcDbEntity
8
0
100
AcDbLine
10
74.999999999999986
20
-175
30
0
11
74.999999999999986
21
-175
31
0
0
ARC
5
164
100
AcDbEntity
8
0
100
AcDbCircle
10
75.000000000000014
20
-185.00000000000003
30
0
40
10.000000000000036
100
AcDbArc
50
90.000000000000171
51
180
0
ARC
5
165
100
AcDbEntity
8
0
100
AcDbCircle
10
74.999999999999986
20
-185
30
0
40
10.000000000000018
100
AcDbArc
50
0
51
90
0
LINE
5
166
100
AcDbEntity
8
0
100
AcDbLine
10
115
20
-200
30
0
11
115
21
-185
31
0
0
LINE
5
167
100
AcDbEntity
8
0
100
AcDbLine
10
135
20
-200
30
0
11
135
21
-185
31
0
0
LINE
5
168
100
AcDbEntity
8
0
100
AcDbLine
10
125
20
-175
30
0
11
125
21
-175
31
0
0
ARC
5
169
100
AcDbEntity
8
0
100
AcDbCircle
10
125.00000000000001
20
-185
30
0
40
10
100
AcDbArc
50
90.000000000000099
51
180
0
ARC
5
170
100
AcDbEntity
8
0
100
AcDbCircle
10
124.99999999999999
20
-185
30
0
40
10.000000000000018
100
AcDbArc
50
0
51
89.999999999999929
0
LINE
5
171
100
AcDbEntity
8
0
100
AcDbLine
10
185
20
-200
30
0
11
185
21
-185
31
0
0
LINE
5
172
100
AcDbEntity
8
0
100
AcDbLine
10
175
20
-175
30
0
11
175
21
-175
31
0
0
LINE
5
173
100
AcDbEntity
8
0
100
AcDbLine
10
165
20
-185
30
0
11
165
21
-200
31
0
0
ARC
5
174
100
AcDbEntity
8
0
100
AcDbCircle
10
175.00000000000003
20
-185.00000000000003
30
0
40
10.000000000000036
100
AcDbArc
50
90.000000000000171
51
180
0
ARC
5
175
100
AcDbEntity
8
0
100
AcDbCircle
10
174.99999999999997
20
-185.00000000000003
30
0
40
10.000000000000036
100
AcDbArc
50
0
51
89.999999999999844
0
LINE
5
176
100
AcDbEntity
8
0
100
AcDbLine
10
215
20
-200
30
0
11
215
21
-185
31
0
0
LINE
5
177
100
AcDbEntity
8
0
100
AcDbLine
10
225
20
-175
30
0
11
225
21
-175
31
0
0
LINE
5
178
100
AcDbEntity
8
0
100
AcDbLine
10
235
20
-185
30
0
11
235
21
-200
31
0
0
ARC
5
179
100
AcDbEntity
8
0
100
AcDbCircle
10
225.00000000000003
20
-185.00000000000003
30
0
40
10.000000000000036
100
AcDbArc
50
90.000000000000171
51
180
0
ARC
5
180
100
AcDbEntity
8
0
100
AcDbCircle
10
224.99999999999997
20
-185.00000000000003
30
0
40
10.000000000000036
100
AcDbArc
50
0
51
89.999999999999844
0
LINE
5
181
100
AcDbEntity
8
0
100
AcDbLine
10
10
20
-200
30
0
11
14.999999999999989
21
-200
31
0
0
LINE
5
182
100
AcDbEntity
8
0
100
AcDbLine
10
34.999999999999993
20
-200
30
0
11
64.999999999999986
21
-200
31
0
0
LINE
5
183
100
AcDbEntity
8
0
100
AcDbLine
10
85
20
-200
30
0
11
115
21
-200
31
0
0
LINE
5
184
100
AcDbEntity
8
0
100
AcDbLine
10
135
20
-200
30
0
11
165
21
-200
31
0
0
LINE
5
185
100
AcDbEntity
8
0
100
AcDbLine
10
185
20
-200
30
0
11
215
21
-200
31
0
0
LINE
5
186
100
AcDbEntity
8
0
100
AcDbLine
10
235
20
-200
30
0
11
239.99999313368738
21
-200
31
0
0
LINE
5
187
100
AcDbEntity
8
0
100
AcDbLine
10
213.72265542489652
20
-66.858159612516928
30
0
11
213.71852554637454
21
-66.858159612516928
31
0
0
LINE
5
188
100
AcDbEntity
8
0
100
AcDbLine
10
232.21852550976109
20
-48.359323516695795
30
0
11
232.21852479271431
21
-48.370720817159231
31
0
0
LINE
5
189
100
AcDbEntity
8
0
100
AcDbLine
10
232.21852479271431
20
-48.370720817159231
30
0
11
213.72265542535476
21
-48.370719996122027
31
0
0
LINE
5
190
100
AcDbEntity
8
0
100
AcDbLine
10
213.72265542535476
20
-48.370719996122027
30
0
11
213.72265542489652
21
-66.858159612516928
31
0
0
ARC
5
191
100
AcDbEntity
8
0
100
AcDbCircle
10
213.71852554637454
20
-48.358159612517603
30
0
40
18.499999999999332
100
AcDbArc
50
270
51
359.99639530831377
0
ENDSEC
0
SECTION
2
OBJECTS
0
DICTIONARY
5
C
100
AcDbDictionary
3
ACAD_GROUP
350
D
3
ACAD_MLINESTYLE
350
17
0
DICTIONARY
5
D
100
AcDbDictionary
0
DICTIONARY
5
1A
330
C
100
AcDbDictionary
0
DICTIONARY
5
17
100
AcDbDictionary
0
ENDSEC
0
EOF
