G04 Layer_Color=15132400*
%FSLAX44Y44*%
%MOMM*%
G71*
G01*
G75*
%ADD34C,0.2540*%
%ADD35C,0.2000*%
D34*
X1114000Y657000D02*
X1174000D01*
X1114000D02*
Y717000D01*
X1174000D01*
Y657000D02*
Y717000D01*
X334000D02*
X394000D01*
Y657000D02*
Y717000D01*
X334000Y657000D02*
X394000D01*
X334000D02*
Y717000D01*
X475950Y1147590D02*
Y1249190D01*
X1038560D01*
Y1171720D02*
Y1249190D01*
X1014430Y1147590D02*
X1038560Y1171720D01*
X475950Y1147590D02*
X1014430D01*
X487423Y1268219D02*
X479805D01*
X477266Y1265679D01*
Y1260601D01*
X479805Y1258062D01*
X487423D01*
X495040D02*
X500119D01*
X502658Y1260601D01*
Y1265679D01*
X500119Y1268219D01*
X495040D01*
X492501Y1265679D01*
Y1260601D01*
X495040Y1258062D01*
X507736D02*
Y1268219D01*
X515354D01*
X517893Y1265679D01*
Y1258062D01*
X607618Y1024953D02*
Y1009718D01*
X615235D01*
X617775Y1012257D01*
Y1022414D01*
X615235Y1024953D01*
X607618D01*
X633010Y1009718D02*
X622853D01*
X633010Y1019875D01*
Y1022414D01*
X630471Y1024953D01*
X625392D01*
X622853Y1022414D01*
X732618Y1024953D02*
Y1009718D01*
X740236D01*
X742775Y1012257D01*
Y1022414D01*
X740236Y1024953D01*
X732618D01*
X747853Y1022414D02*
X750392Y1024953D01*
X755471D01*
X758010Y1022414D01*
Y1019875D01*
X755471Y1017336D01*
X752931D01*
X755471D01*
X758010Y1014796D01*
Y1012257D01*
X755471Y1009718D01*
X750392D01*
X747853Y1012257D01*
X857618Y1024953D02*
Y1009718D01*
X865236D01*
X867775Y1012257D01*
Y1022414D01*
X865236Y1024953D01*
X857618D01*
X880471Y1009718D02*
Y1024953D01*
X872853Y1017336D01*
X883010D01*
X982618Y1024953D02*
Y1009718D01*
X990236D01*
X992775Y1012257D01*
Y1022414D01*
X990236Y1024953D01*
X982618D01*
X1008010D02*
X997853D01*
Y1017336D01*
X1002931Y1019875D01*
X1005471D01*
X1008010Y1017336D01*
Y1012257D01*
X1005471Y1009718D01*
X1000392D01*
X997853Y1012257D01*
X482618Y924953D02*
Y909718D01*
X490235D01*
X492775Y912257D01*
Y922414D01*
X490235Y924953D01*
X482618D01*
X508010D02*
X502931Y922414D01*
X497853Y917336D01*
Y912257D01*
X500392Y909718D01*
X505471D01*
X508010Y912257D01*
Y914796D01*
X505471Y917336D01*
X497853D01*
X607618Y924953D02*
Y909718D01*
X615235D01*
X617775Y912257D01*
Y922414D01*
X615235Y924953D01*
X607618D01*
X622853D02*
X633010D01*
Y922414D01*
X622853Y912257D01*
Y909718D01*
X732618Y924953D02*
Y909718D01*
X740236D01*
X742775Y912257D01*
Y922414D01*
X740236Y924953D01*
X732618D01*
X747853Y922414D02*
X750392Y924953D01*
X755471D01*
X758010Y922414D01*
Y919875D01*
X755471Y917336D01*
X758010Y914796D01*
Y912257D01*
X755471Y909718D01*
X750392D01*
X747853Y912257D01*
Y914796D01*
X750392Y917336D01*
X747853Y919875D01*
Y922414D01*
X750392Y917336D02*
X755471D01*
X857618Y924953D02*
Y909718D01*
X865236D01*
X867775Y912257D01*
Y922414D01*
X865236Y924953D01*
X857618D01*
X872853Y912257D02*
X875392Y909718D01*
X880471D01*
X883010Y912257D01*
Y922414D01*
X880471Y924953D01*
X875392D01*
X872853Y922414D01*
Y919875D01*
X875392Y917336D01*
X883010D01*
X982618Y924953D02*
Y909718D01*
X990236D01*
X992775Y912257D01*
Y922414D01*
X990236Y924953D01*
X982618D01*
X997853Y909718D02*
X1002931D01*
X1000392D01*
Y924953D01*
X997853Y922414D01*
X1010549D02*
X1013088Y924953D01*
X1018167D01*
X1020706Y922414D01*
Y912257D01*
X1018167Y909718D01*
X1013088D01*
X1010549Y912257D01*
Y922414D01*
X482618Y824953D02*
Y809718D01*
X490235D01*
X492775Y812257D01*
Y822414D01*
X490235Y824953D01*
X482618D01*
X497853Y809718D02*
X502931D01*
X500392D01*
Y824953D01*
X497853Y822414D01*
X510549Y809718D02*
X515627D01*
X513088D01*
Y824953D01*
X510549Y822414D01*
X607618Y824953D02*
Y809718D01*
X615235D01*
X617775Y812257D01*
Y822414D01*
X615235Y824953D01*
X607618D01*
X622853Y809718D02*
X627931D01*
X625392D01*
Y824953D01*
X622853Y822414D01*
X645706Y809718D02*
X635549D01*
X645706Y819875D01*
Y822414D01*
X643167Y824953D01*
X638088D01*
X635549Y822414D01*
X732618Y824953D02*
Y809718D01*
X740236D01*
X742775Y812257D01*
Y822414D01*
X740236Y824953D01*
X732618D01*
X747853Y809718D02*
X752931D01*
X750392D01*
Y824953D01*
X747853Y822414D01*
X760549D02*
X763088Y824953D01*
X768167D01*
X770706Y822414D01*
Y819875D01*
X768167Y817336D01*
X765627D01*
X768167D01*
X770706Y814796D01*
Y812257D01*
X768167Y809718D01*
X763088D01*
X760549Y812257D01*
X857618Y824953D02*
Y809718D01*
X865236D01*
X867775Y812257D01*
Y822414D01*
X865236Y824953D01*
X857618D01*
X872853Y809718D02*
X877931D01*
X875392D01*
Y824953D01*
X872853Y822414D01*
X893167Y809718D02*
Y824953D01*
X885549Y817336D01*
X895706D01*
X982618Y824953D02*
Y809718D01*
X990236D01*
X992775Y812257D01*
Y822414D01*
X990236Y824953D01*
X982618D01*
X997853Y809718D02*
X1002931D01*
X1000392D01*
Y824953D01*
X997853Y822414D01*
X1020706Y824953D02*
X1010549D01*
Y817336D01*
X1015627Y819875D01*
X1018167D01*
X1020706Y817336D01*
Y812257D01*
X1018167Y809718D01*
X1013088D01*
X1010549Y812257D01*
X482618Y724953D02*
Y709718D01*
X490235D01*
X492775Y712257D01*
Y722414D01*
X490235Y724953D01*
X482618D01*
X497853Y709718D02*
X502931D01*
X500392D01*
Y724953D01*
X497853Y722414D01*
X520706Y724953D02*
X515627Y722414D01*
X510549Y717336D01*
Y712257D01*
X513088Y709718D01*
X518167D01*
X520706Y712257D01*
Y714796D01*
X518167Y717336D01*
X510549D01*
X607618Y724953D02*
Y709718D01*
X615235D01*
X617775Y712257D01*
Y722414D01*
X615235Y724953D01*
X607618D01*
X622853Y709718D02*
X627931D01*
X625392D01*
Y724953D01*
X622853Y722414D01*
X635549Y724953D02*
X645706D01*
Y722414D01*
X635549Y712257D01*
Y709718D01*
X732618Y724953D02*
Y709718D01*
X740236D01*
X742775Y712257D01*
Y722414D01*
X740236Y724953D01*
X732618D01*
X747853Y709718D02*
X752931D01*
X750392D01*
Y724953D01*
X747853Y722414D01*
X760549D02*
X763088Y724953D01*
X768167D01*
X770706Y722414D01*
Y719875D01*
X768167Y717336D01*
X770706Y714796D01*
Y712257D01*
X768167Y709718D01*
X763088D01*
X760549Y712257D01*
Y714796D01*
X763088Y717336D01*
X760549Y719875D01*
Y722414D01*
X763088Y717336D02*
X768167D01*
X857618Y724953D02*
Y709718D01*
X865236D01*
X867775Y712257D01*
Y722414D01*
X865236Y724953D01*
X857618D01*
X872853Y709718D02*
X877931D01*
X875392D01*
Y724953D01*
X872853Y722414D01*
X885549Y712257D02*
X888088Y709718D01*
X893167D01*
X895706Y712257D01*
Y722414D01*
X893167Y724953D01*
X888088D01*
X885549Y722414D01*
Y719875D01*
X888088Y717336D01*
X895706D01*
X982618Y724953D02*
Y709718D01*
X990236D01*
X992775Y712257D01*
Y722414D01*
X990236Y724953D01*
X982618D01*
X1008010Y709718D02*
X997853D01*
X1008010Y719875D01*
Y722414D01*
X1005471Y724953D01*
X1000392D01*
X997853Y722414D01*
X1013088D02*
X1015627Y724953D01*
X1020706D01*
X1023245Y722414D01*
Y712257D01*
X1020706Y709718D01*
X1015627D01*
X1013088Y712257D01*
Y722414D01*
X482618Y624953D02*
Y609718D01*
X490235D01*
X492775Y612257D01*
Y622414D01*
X490235Y624953D01*
X482618D01*
X508010Y609718D02*
X497853D01*
X508010Y619875D01*
Y622414D01*
X505471Y624953D01*
X500392D01*
X497853Y622414D01*
X513088Y609718D02*
X518167D01*
X515627D01*
Y624953D01*
X513088Y622414D01*
X607618Y624953D02*
Y609718D01*
X615235D01*
X617775Y612257D01*
Y622414D01*
X615235Y624953D01*
X607618D01*
X633010Y609718D02*
X622853D01*
X633010Y619875D01*
Y622414D01*
X630471Y624953D01*
X625392D01*
X622853Y622414D01*
X648245Y609718D02*
X638088D01*
X648245Y619875D01*
Y622414D01*
X645706Y624953D01*
X640627D01*
X638088Y622414D01*
X732618Y624953D02*
Y609718D01*
X740236D01*
X742775Y612257D01*
Y622414D01*
X740236Y624953D01*
X732618D01*
X758010Y609718D02*
X747853D01*
X758010Y619875D01*
Y622414D01*
X755471Y624953D01*
X750392D01*
X747853Y622414D01*
X763088D02*
X765627Y624953D01*
X770706D01*
X773245Y622414D01*
Y619875D01*
X770706Y617336D01*
X768167D01*
X770706D01*
X773245Y614796D01*
Y612257D01*
X770706Y609718D01*
X765627D01*
X763088Y612257D01*
X857618Y624953D02*
Y609718D01*
X865236D01*
X867775Y612257D01*
Y622414D01*
X865236Y624953D01*
X857618D01*
X883010Y609718D02*
X872853D01*
X883010Y619875D01*
Y622414D01*
X880471Y624953D01*
X875392D01*
X872853Y622414D01*
X895706Y609718D02*
Y624953D01*
X888088Y617336D01*
X898245D01*
X982618Y624953D02*
Y609718D01*
X990236D01*
X992775Y612257D01*
Y622414D01*
X990236Y624953D01*
X982618D01*
X1008010Y609718D02*
X997853D01*
X1008010Y619875D01*
Y622414D01*
X1005471Y624953D01*
X1000392D01*
X997853Y622414D01*
X1023245Y624953D02*
X1013088D01*
Y617336D01*
X1018167Y619875D01*
X1020706D01*
X1023245Y617336D01*
Y612257D01*
X1020706Y609718D01*
X1015627D01*
X1013088Y612257D01*
X343677Y768784D02*
X341138Y771323D01*
X336059D01*
X333520Y768784D01*
Y766245D01*
X336059Y763705D01*
X341138D01*
X343677Y761166D01*
Y758627D01*
X341138Y756088D01*
X336059D01*
X333520Y758627D01*
X348755Y766245D02*
Y758627D01*
X351294Y756088D01*
X353834Y758627D01*
X356373Y756088D01*
X358912Y758627D01*
Y766245D01*
X363990Y763705D02*
X374147D01*
X379225Y756088D02*
Y766245D01*
X384304Y771323D01*
X389382Y766245D01*
Y756088D01*
Y763705D01*
X379225D01*
X1123693Y764282D02*
X1121153Y766821D01*
X1116075D01*
X1113536Y764282D01*
Y761743D01*
X1116075Y759203D01*
X1121153D01*
X1123693Y756664D01*
Y754125D01*
X1121153Y751586D01*
X1116075D01*
X1113536Y754125D01*
X1128771Y761743D02*
Y754125D01*
X1131310Y751586D01*
X1133849Y754125D01*
X1136389Y751586D01*
X1138928Y754125D01*
Y761743D01*
X1144006Y759203D02*
X1154163D01*
X1159241Y766821D02*
Y751586D01*
X1166859D01*
X1169398Y754125D01*
Y756664D01*
X1166859Y759203D01*
X1159241D01*
X1166859D01*
X1169398Y761743D01*
Y764282D01*
X1166859Y766821D01*
X1159241D01*
X482491Y1024826D02*
Y1009591D01*
X490108D01*
X492648Y1012130D01*
Y1022287D01*
X490108Y1024826D01*
X482491D01*
X497726Y1009591D02*
X502804D01*
X500265D01*
Y1024826D01*
X497726Y1022287D01*
D35*
X607000Y990000D02*
Y996665D01*
X610332Y999997D01*
X613665Y996665D01*
Y990000D01*
Y994998D01*
X607000D01*
X732000Y990000D02*
Y996665D01*
X735332Y999997D01*
X738664Y996665D01*
Y990000D01*
Y994998D01*
X732000D01*
X857000Y990000D02*
Y996665D01*
X860332Y999997D01*
X863664Y996665D01*
Y990000D01*
Y994998D01*
X857000D01*
X982000Y990000D02*
Y996665D01*
X985332Y999997D01*
X988664Y996665D01*
Y990000D01*
Y994998D01*
X982000D01*
X482000Y890000D02*
Y896665D01*
X485332Y899997D01*
X488665Y896665D01*
Y890000D01*
Y894998D01*
X482000D01*
X607000Y890000D02*
Y896665D01*
X610332Y899997D01*
X613665Y896665D01*
Y890000D01*
Y894998D01*
X607000D01*
X732000Y890000D02*
Y896665D01*
X735332Y899997D01*
X738664Y896665D01*
Y890000D01*
Y894998D01*
X732000D01*
X857000Y890000D02*
Y896665D01*
X860332Y899997D01*
X863664Y896665D01*
Y890000D01*
Y894998D01*
X857000D01*
X982000Y890000D02*
Y896665D01*
X985332Y899997D01*
X988664Y896665D01*
Y890000D01*
Y894998D01*
X982000D01*
X482000Y790000D02*
Y796665D01*
X485332Y799997D01*
X488665Y796665D01*
Y790000D01*
Y794998D01*
X482000D01*
X607000Y790000D02*
Y796665D01*
X610332Y799997D01*
X613665Y796665D01*
Y790000D01*
Y794998D01*
X607000D01*
X732000Y790000D02*
Y796665D01*
X735332Y799997D01*
X738664Y796665D01*
Y790000D01*
Y794998D01*
X732000D01*
X857000Y790000D02*
Y796665D01*
X860332Y799997D01*
X863664Y796665D01*
Y790000D01*
Y794998D01*
X857000D01*
X982000Y790000D02*
Y796665D01*
X985332Y799997D01*
X988664Y796665D01*
Y790000D01*
Y794998D01*
X982000D01*
X482000Y690000D02*
Y696665D01*
X485332Y699997D01*
X488665Y696665D01*
Y690000D01*
Y694998D01*
X482000D01*
X607000Y690000D02*
Y696665D01*
X610332Y699997D01*
X613665Y696665D01*
Y690000D01*
Y694998D01*
X607000D01*
X732000Y690000D02*
Y696665D01*
X735332Y699997D01*
X738664Y696665D01*
Y690000D01*
Y694998D01*
X732000D01*
X857000Y690000D02*
Y696665D01*
X860332Y699997D01*
X863664Y696665D01*
Y690000D01*
Y694998D01*
X857000D01*
X982000Y690000D02*
Y696665D01*
X985332Y699997D01*
X988664Y696665D01*
Y690000D01*
Y694998D01*
X982000D01*
X482000Y590000D02*
Y596665D01*
X485332Y599997D01*
X488665Y596665D01*
Y590000D01*
Y594998D01*
X482000D01*
X607000Y590000D02*
Y596665D01*
X610332Y599997D01*
X613665Y596665D01*
Y590000D01*
Y594998D01*
X607000D01*
X732000Y590000D02*
Y596665D01*
X735332Y599997D01*
X738664Y596665D01*
Y590000D01*
Y594998D01*
X732000D01*
X857000Y590000D02*
Y596665D01*
X860332Y599997D01*
X863664Y596665D01*
Y590000D01*
Y594998D01*
X857000D01*
X982000Y590000D02*
Y596665D01*
X985332Y599997D01*
X988664Y596665D01*
Y590000D01*
Y594998D01*
X982000D01*
X482000Y990000D02*
Y996665D01*
X485332Y999997D01*
X488665Y996665D01*
Y990000D01*
Y994998D01*
X482000D01*
M02*
