G04 Layer_Physical_Order=2*
G04 Layer_Color=11436288*
%FSLAX44Y44*%
%MOMM*%
G71*
G01*
G75*
%ADD12C,0.3000*%
%ADD13C,1.5240*%
%ADD14R,0.5000X1.8000*%
%ADD15C,1.5000*%
%ADD16C,0.3810*%
%ADD17C,1.3000*%
%ADD18C,3.0000*%
%ADD19R,1.8000X1.8000*%
%ADD20C,1.8000*%
G04:AMPARAMS|DCode=21|XSize=1.5mm|YSize=1.5mm|CornerRadius=0.1875mm|HoleSize=0mm|Usage=FLASHONLY|Rotation=180.000|XOffset=0mm|YOffset=0mm|HoleType=Round|Shape=RoundedRectangle|*
%AMROUNDEDRECTD21*
21,1,1.5000,1.1250,0,0,180.0*
21,1,1.1250,1.5000,0,0,180.0*
1,1,0.3750,-0.5625,0.5625*
1,1,0.3750,0.5625,0.5625*
1,1,0.3750,0.5625,-0.5625*
1,1,0.3750,-0.5625,-0.5625*
%
%ADD21ROUNDEDRECTD21*%
%ADD22C,1.7000*%
%ADD23O,2.0320X4.0640*%
%ADD24C,1.2700*%
%ADD25O,0.6000X2.5500*%
%ADD26R,1.4000X3.5600*%
%ADD27R,1.3000X2.7000*%
%ADD28R,2.7000X1.3000*%
%ADD29O,2.0000X0.4500*%
%ADD30R,2.1590X2.7430*%
%ADD31R,1.6000X1.2000*%
%ADD32R,1.5000X0.8000*%
G04:AMPARAMS|DCode=33|XSize=1.1mm|YSize=0.6mm|CornerRadius=0.15mm|HoleSize=0mm|Usage=FLASHONLY|Rotation=180.000|XOffset=0mm|YOffset=0mm|HoleType=Round|Shape=RoundedRectangle|*
%AMROUNDEDRECTD33*
21,1,1.1000,0.3000,0,0,180.0*
21,1,0.8000,0.6000,0,0,180.0*
1,1,0.3000,-0.4000,0.1500*
1,1,0.3000,0.4000,0.1500*
1,1,0.3000,0.4000,-0.1500*
1,1,0.3000,-0.4000,-0.1500*
%
%ADD33ROUNDEDRECTD33*%
D12*
X826208Y1219000D02*
X862838Y1182370D01*
X734450Y1219000D02*
X826208D01*
X721950Y1206500D02*
X734450Y1219000D01*
X843370Y1228000D02*
X880872Y1190498D01*
X730922Y1228000D02*
X843370D01*
X709250Y1206328D02*
X730922Y1228000D01*
X981768Y1056179D02*
X986357Y1051590D01*
X981768Y1056179D02*
X986357Y1060768D01*
Y1047000D02*
Y1051590D01*
Y1060768D02*
Y1065357D01*
X957646Y1056145D02*
X979846Y1056168D01*
X957646Y1056145D02*
Y1056145D01*
X946546Y1056134D02*
X957646Y1056145D01*
X813344Y1056000D02*
X857745Y1056045D01*
X946546Y1056134D01*
X803134Y1045790D02*
X813344Y1056000D01*
X986357Y1047000D02*
X1000000D01*
X987000Y1066000D02*
X1000000D01*
X986357Y1065357D02*
X987000Y1066000D01*
X272000Y1067528D02*
X281472Y1077000D01*
X272000Y1040800D02*
Y1067528D01*
Y1040800D02*
X308000Y1004800D01*
X453636Y1111750D02*
X466000Y1124114D01*
Y1081440D02*
Y1124114D01*
Y1081440D02*
X472440Y1075000D01*
X475996Y1099000D02*
Y1143004D01*
Y1099000D02*
X482000D01*
X976376Y1066000D02*
Y1069594D01*
X1097600Y1042600D02*
X1107440D01*
X290500Y1105250D02*
X343500D01*
X289402D02*
X290500D01*
Y1117600D01*
Y1077000D02*
Y1105250D01*
X288798Y1077000D02*
Y1104646D01*
Y1077000D02*
X290500D01*
X281472D02*
X288798D01*
X388400Y825500D02*
X487680D01*
X658450Y1178560D02*
Y1193500D01*
Y1169080D02*
Y1178560D01*
X377166Y1036090D02*
Y1078304D01*
Y1031240D02*
Y1036090D01*
X391160Y1159764D02*
X399700D01*
X353000Y1039876D02*
X365760D01*
X548640Y998474D02*
X651510Y1101344D01*
X683696Y1045790D02*
X803134D01*
X658450Y1071036D02*
X683696Y1045790D01*
X658450Y1071036D02*
Y1084500D01*
X295402Y992202D02*
X308000Y1004800D01*
X295402Y890778D02*
Y992202D01*
Y890778D02*
X309880Y876300D01*
X463804D01*
X541782Y954278D01*
X1180678D01*
X1200000Y973600D01*
X388400Y825300D02*
Y825500D01*
X487680D02*
X503936Y841756D01*
Y894080D01*
X518160Y908304D01*
X1158240D01*
X1211834Y961898D01*
Y1012566D01*
X1200000Y1024400D02*
X1211834Y1012566D01*
X1208136Y562864D02*
X1221000Y550000D01*
X1028954Y562864D02*
X1208136D01*
X1013968Y547878D02*
X1028954Y562864D01*
X475996Y547878D02*
X1013968D01*
X753954Y1101344D02*
X911860D01*
X747350Y1094740D02*
X753954Y1101344D01*
X747350Y1084500D02*
Y1094740D01*
X658450Y1169080D02*
X681228Y1146302D01*
X957727D01*
X1000000Y1104029D01*
Y1096000D02*
Y1104029D01*
X482000Y1075000D02*
X576906D01*
X599418Y1097512D01*
Y1119528D01*
X658450Y1178560D01*
X353000Y1047000D02*
Y1061780D01*
X327660Y1087120D02*
X353000Y1061780D01*
X327660Y1087120D02*
Y1096210D01*
X330200Y1098750D01*
X343500D01*
X338100Y1117150D02*
Y1162000D01*
Y1117150D02*
X343500Y1111750D01*
X386500Y1098750D02*
X399742D01*
X402590Y1101598D01*
X456692D01*
Y1042492D02*
Y1101598D01*
X419000Y1004800D02*
X456692Y1042492D01*
X1004530Y991870D02*
X1016400Y980000D01*
X903270Y991870D02*
X1004530D01*
X891400Y980000D02*
X903270Y991870D01*
X879530D02*
X891400Y980000D01*
X778270Y991870D02*
X879530D01*
X766400Y980000D02*
X778270Y991870D01*
X516400Y980000D02*
X560392D01*
X572262Y991870D01*
X629530D01*
X641400Y980000D01*
X754530Y991870D02*
X766400Y980000D01*
X653270Y991870D02*
X754530D01*
X641400Y980000D02*
X653270Y991870D01*
X1004606Y891794D02*
X1016400Y880000D01*
X903194Y891794D02*
X1004606D01*
X891400Y880000D02*
X903194Y891794D01*
X879606D02*
X891400Y880000D01*
X778194Y891794D02*
X879606D01*
X766400Y880000D02*
X778194Y891794D01*
X586800Y1106230D02*
Y1215704D01*
X612648Y1241552D01*
X671658D01*
X683850Y1229360D01*
Y1193500D02*
Y1229360D01*
X629606Y891794D02*
X641400Y880000D01*
X528194Y891794D02*
X629606D01*
X516400Y880000D02*
X528194Y891794D01*
X754606D02*
X766400Y880000D01*
X653194Y891794D02*
X754606D01*
X641400Y880000D02*
X653194Y891794D01*
X1004682Y791718D02*
X1016400Y780000D01*
X903118Y791718D02*
X1004682D01*
X891400Y780000D02*
X903118Y791718D01*
X879682D02*
X891400Y780000D01*
X778118Y791718D02*
X879682D01*
X766400Y780000D02*
X778118Y791718D01*
X696550Y1193500D02*
Y1240200D01*
X689610Y1247140D02*
X696550Y1240200D01*
X594106Y1247140D02*
X689610D01*
X566928Y1219962D02*
X594106Y1247140D01*
X566928Y1128014D02*
Y1219962D01*
X629682Y791718D02*
X641400Y780000D01*
X528118Y791718D02*
X629682D01*
X516400Y780000D02*
X528118Y791718D01*
X754682D02*
X766400Y780000D01*
X653118Y791718D02*
X754682D01*
X641400Y780000D02*
X653118Y791718D01*
X1004504Y691896D02*
X1016400Y680000D01*
X903296Y691896D02*
X1004504D01*
X891400Y680000D02*
X903296Y691896D01*
X879504D02*
X891400Y680000D01*
X778296Y691896D02*
X879504D01*
X766400Y680000D02*
X778296Y691896D01*
X709250Y1193500D02*
Y1206328D01*
X880872Y1190498D02*
X1005840D01*
X629504Y691896D02*
X641400Y680000D01*
X528296Y691896D02*
X629504D01*
X516400Y680000D02*
X528296Y691896D01*
X754504D02*
X766400Y680000D01*
X653296Y691896D02*
X754504D01*
X641400Y680000D02*
X653296Y691896D01*
X1004580Y591820D02*
X1016400Y580000D01*
X903220Y591820D02*
X1004580D01*
X891400Y580000D02*
X903220Y591820D01*
X879580D02*
X891400Y580000D01*
X778220Y591820D02*
X879580D01*
X766400Y580000D02*
X778220Y591820D01*
X629580D02*
X641400Y580000D01*
X528220Y591820D02*
X629580D01*
X516400Y580000D02*
X528220Y591820D01*
X754580D02*
X766400Y580000D01*
X653220Y591820D02*
X754580D01*
X641400Y580000D02*
X653220Y591820D01*
X651510Y1101344D02*
X667848D01*
X671150Y1084500D01*
X548640Y998474D02*
X1109726D01*
X542290Y992124D02*
X548640Y998474D01*
X441960Y992124D02*
X542290D01*
X435356Y998728D02*
X441960Y992124D01*
X435356Y998728D02*
Y1011174D01*
X447802Y1023620D01*
X452882D01*
X1107440Y1042600D02*
X1120140Y1029900D01*
Y987298D02*
Y1029900D01*
X1097280Y964438D02*
X1120140Y987298D01*
X531114Y964438D02*
X1097280D01*
X457200Y890524D02*
X531114Y964438D01*
X376676Y890524D02*
X457200D01*
X364000Y903200D02*
X376676Y890524D01*
X524510Y1004570D02*
X626872Y1106932D01*
X690880D01*
X696550Y1101262D01*
Y1084500D02*
Y1101262D01*
X343500Y1092250D02*
X363220D01*
X377166Y1036090D02*
X388366Y1024890D01*
X353000Y1039876D02*
Y1047000D01*
X365760Y1039876D02*
X366776Y1038860D01*
X448000Y1004800D02*
X457205Y1014005D01*
X462688D01*
X472186Y1023503D01*
Y1074746D01*
X472440Y1075000D01*
X734650Y1069340D02*
Y1084500D01*
Y1069340D02*
X737444Y1066546D01*
X786130D01*
X790956Y1061720D01*
X962914Y1091438D02*
Y1119378D01*
X939038Y1067562D02*
X962914Y1091438D01*
X812292Y1067562D02*
X939038D01*
X796060Y1051330D02*
X812292Y1067562D01*
X785344Y1051330D02*
X796060D01*
X778002Y1058672D02*
X785344Y1051330D01*
X690880Y1058672D02*
X778002D01*
X683850Y1065702D02*
X690880Y1058672D01*
X683850Y1065702D02*
Y1084500D01*
X962152Y1182370D02*
X973328Y1171194D01*
X862838Y1182370D02*
X962152D01*
X721950Y1193500D02*
Y1206500D01*
X1000000Y1096000D02*
X1075182Y1171182D01*
Y1209040D01*
X1085596Y1219454D01*
X1193146D01*
X1207600Y1205000D01*
X671150Y1176274D02*
Y1193500D01*
Y1176274D02*
X943610D01*
X992124Y1127760D01*
X413238Y1091000D02*
X439000D01*
X411988Y1092250D02*
X413238Y1091000D01*
X386500Y1092250D02*
X411988D01*
X386500Y1051218D02*
Y1092250D01*
Y1051218D02*
X398756Y1038962D01*
Y1011556D02*
Y1038962D01*
X392000Y1004800D02*
X398756Y1011556D01*
X325000Y1031868D02*
Y1047000D01*
Y1031868D02*
X328398Y1028470D01*
X374396D01*
X377166Y1031240D01*
X363220Y1092250D02*
X377166Y1078304D01*
X418997Y1195303D02*
X454300Y1160000D01*
X371402Y1195303D02*
X418997D01*
X338100Y1162000D02*
X371402Y1195303D01*
X388366Y1162558D02*
Y1184910D01*
Y1162558D02*
X391160Y1159764D01*
X399700D02*
Y1160000D01*
X448462Y1216000D02*
X465582Y1198880D01*
X472440Y1075000D02*
X482000D01*
X423000Y1216000D02*
X448462D01*
X465582Y1123696D02*
Y1198880D01*
X386500Y1111750D02*
X453636D01*
X1021500Y1056500D02*
X1033000Y1068000D01*
X1000000Y1056500D02*
X1021500D01*
X729824Y1105154D02*
X741000D01*
X721950Y1097280D02*
X729824Y1105154D01*
X721950Y1084500D02*
Y1097280D01*
X616000Y1118870D02*
X697820D01*
X709250Y1107440D01*
Y1084500D02*
Y1107440D01*
X691388Y561340D02*
X1012698D01*
X1019810Y568452D01*
X1219200D01*
X1232662Y554990D01*
Y538480D02*
Y554990D01*
X1221994Y527812D02*
X1232662Y538480D01*
X1213188Y527812D02*
X1221994D01*
X1191000Y550000D02*
X1213188Y527812D01*
X308000Y1004800D02*
X320676Y992124D01*
X402082D01*
X405638Y995680D01*
Y1057158D01*
X411480Y1063000D01*
X439000D01*
X974000Y1066000D02*
X976376D01*
Y1069594D02*
X980440Y1073658D01*
X999998D01*
X1048258Y1121918D01*
X1176661D01*
X1177159Y1121420D01*
X1209538Y1121420D01*
X1219200Y1111758D01*
Y949452D02*
Y1111758D01*
X1204214Y934466D02*
X1219200Y949452D01*
X1204214Y861785D02*
Y934466D01*
Y861785D02*
X1216000Y850000D01*
Y870000D02*
X1227836Y881836D01*
Y1118324D01*
X1219200Y1126960D02*
X1227836Y1118324D01*
X1187440Y1126960D02*
X1219200D01*
X1168400Y1146000D02*
X1187440Y1126960D01*
X1153000Y1146000D02*
X1168400D01*
X1106000Y1205000D02*
X1132694Y1178306D01*
X1167694D01*
X1200000Y1146000D01*
X288798Y1104646D02*
X289402Y1105250D01*
X325000Y1047000D02*
Y1063000D01*
X290500D02*
X325000D01*
X1097600Y1042600D02*
X1153000Y1098000D01*
X1033000Y1042600D02*
X1097600D01*
X316000Y1225000D02*
X328488Y1237488D01*
X401512D01*
X423000Y1216000D01*
X371732Y950468D02*
X419000Y903200D01*
X355268Y950468D02*
X371732D01*
X308000Y903200D02*
X355268Y950468D01*
X974600Y1081116D02*
Y1096000D01*
X974000Y1080516D02*
X974600Y1081116D01*
X974000Y1066000D02*
Y1080516D01*
X336000Y903200D02*
X364000D01*
X1018622Y1042600D02*
X1033000D01*
X1014222Y1047000D02*
X1018622Y1042600D01*
X1000000Y1047000D02*
X1014222D01*
X293900Y1121000D02*
Y1162000D01*
X290500Y1117600D02*
X293900Y1121000D01*
X368196Y1105250D02*
X386500D01*
X361696Y1098750D02*
X368196Y1105250D01*
X343500Y1098750D02*
X361696D01*
D13*
X1161000Y550000D02*
D03*
X1191000D02*
D03*
X1221000D02*
D03*
X1216000Y830000D02*
D03*
Y850000D02*
D03*
Y870000D02*
D03*
Y890000D02*
D03*
Y910000D02*
D03*
X316000Y1225000D02*
D03*
X341000D02*
D03*
X641400Y980000D02*
D03*
X616000D02*
D03*
X766400D02*
D03*
X741000D02*
D03*
X891400D02*
D03*
X866000D02*
D03*
X1016400D02*
D03*
X991000D02*
D03*
X516400Y880000D02*
D03*
X491000D02*
D03*
X641400D02*
D03*
X616000D02*
D03*
X766400D02*
D03*
X741000D02*
D03*
X891400D02*
D03*
X866000D02*
D03*
X1016400D02*
D03*
X991000D02*
D03*
X516400Y780000D02*
D03*
X491000D02*
D03*
X641400D02*
D03*
X616000D02*
D03*
X766400D02*
D03*
X741000D02*
D03*
X891400D02*
D03*
X866000D02*
D03*
X1016400D02*
D03*
X991000D02*
D03*
X516400Y680000D02*
D03*
X491000D02*
D03*
X641400D02*
D03*
X616000D02*
D03*
X766400D02*
D03*
X741000D02*
D03*
X891400D02*
D03*
X866000D02*
D03*
X1016400D02*
D03*
X991000D02*
D03*
X516400Y580000D02*
D03*
X491000D02*
D03*
X641400D02*
D03*
X616000D02*
D03*
X766400D02*
D03*
X741000D02*
D03*
X891400D02*
D03*
X866000D02*
D03*
X1016400D02*
D03*
X991000D02*
D03*
X1200000Y999000D02*
D03*
Y1024400D02*
D03*
Y973600D02*
D03*
X516400Y980000D02*
D03*
X491000D02*
D03*
D14*
X1027430Y1234440D02*
D03*
X487430D02*
D03*
D15*
X887430Y1217440D02*
D03*
X423000Y1216000D02*
D03*
D16*
X627430Y1217440D02*
D03*
D17*
X974600Y1096000D02*
D03*
X1000000D02*
D03*
X1033000Y1042600D02*
D03*
Y1068000D02*
D03*
X336600Y862000D02*
D03*
X362000D02*
D03*
D18*
X1200000Y1146000D02*
D03*
X1153000D02*
D03*
X1106000D02*
D03*
Y1098000D02*
D03*
X1153000D02*
D03*
X1200000D02*
D03*
D19*
X1207600Y1205000D02*
D03*
D20*
X1182200D02*
D03*
X1156800D02*
D03*
X1131400D02*
D03*
X1106000D02*
D03*
D21*
X403000Y1216000D02*
D03*
D22*
X448000Y903200D02*
D03*
Y1004800D02*
D03*
X392000Y903200D02*
D03*
Y1004800D02*
D03*
X336000Y903200D02*
D03*
Y1004800D02*
D03*
X364000Y903200D02*
D03*
Y1004800D02*
D03*
X308000Y903200D02*
D03*
Y1004800D02*
D03*
X419000D02*
D03*
Y903200D02*
D03*
D23*
X337600Y825300D02*
D03*
X363000D02*
D03*
X388400D02*
D03*
D24*
X475996Y547878D02*
D03*
X911860Y1101344D02*
D03*
X586800Y1106230D02*
D03*
X566928Y1128014D02*
D03*
X1005840Y1190498D02*
D03*
X452882Y1023620D02*
D03*
X1109726Y998474D02*
D03*
X524510Y1004570D02*
D03*
X388366Y1024890D02*
D03*
X366776Y1038860D02*
D03*
X790956Y1061720D02*
D03*
X962914Y1119378D02*
D03*
X973328Y1171194D02*
D03*
X992124Y1127760D02*
D03*
X388366Y1184910D02*
D03*
X475996Y1143004D02*
D03*
X741000Y1105154D02*
D03*
X616000Y1118870D02*
D03*
X691388Y561340D02*
D03*
D25*
X658450Y1193500D02*
D03*
X671150D02*
D03*
X683850D02*
D03*
X696550D02*
D03*
X709250D02*
D03*
X721950D02*
D03*
X734650D02*
D03*
X747350D02*
D03*
X760050D02*
D03*
X772750D02*
D03*
X785450D02*
D03*
X798150D02*
D03*
X810850D02*
D03*
X823550D02*
D03*
X658450Y1084500D02*
D03*
X671150D02*
D03*
X683850D02*
D03*
X696550D02*
D03*
X709250D02*
D03*
X721950D02*
D03*
X734650D02*
D03*
X747350D02*
D03*
X760050D02*
D03*
X772750D02*
D03*
X785450D02*
D03*
X798150D02*
D03*
X810850D02*
D03*
X823550D02*
D03*
D26*
X454300Y1160000D02*
D03*
X399700D02*
D03*
D27*
X325000Y1052000D02*
D03*
X353000D02*
D03*
D28*
X430000Y1060000D02*
D03*
Y1088000D02*
D03*
D29*
X343500Y1092250D02*
D03*
Y1098750D02*
D03*
Y1105250D02*
D03*
Y1111750D02*
D03*
X386500Y1092250D02*
D03*
Y1098750D02*
D03*
Y1105250D02*
D03*
Y1111750D02*
D03*
D30*
X293900Y1162000D02*
D03*
X338100D02*
D03*
D31*
X482000Y1075000D02*
D03*
Y1099000D02*
D03*
D32*
X290500Y1077000D02*
D03*
Y1063000D02*
D03*
D33*
X1000000Y1047000D02*
D03*
X974000Y1066000D02*
D03*
X1000000Y1056500D02*
D03*
X974000Y1047000D02*
D03*
X1000000Y1066000D02*
D03*
M02*
