G04 Layer_Color=20142*
%FSLAX44Y44*%
%MOMM*%
G71*
G01*
G75*
%ADD36R,1.6032X2.3032*%
%ADD37R,1.0032X2.7032*%
%ADD38C,1.7272*%
%ADD39R,0.7032X2.0032*%
%ADD40C,1.7032*%
%ADD41C,0.5842*%
%ADD42C,1.5032*%
%ADD43C,3.2032*%
%ADD44R,2.0032X2.0032*%
%ADD45C,2.0032*%
G04:AMPARAMS|DCode=46|XSize=1.7032mm|YSize=1.7032mm|CornerRadius=0.2891mm|HoleSize=0mm|Usage=FLASHONLY|Rotation=180.000|XOffset=0mm|YOffset=0mm|HoleType=Round|Shape=RoundedRectangle|*
%AMROUNDEDRECTD46*
21,1,1.7032,1.1250,0,0,180.0*
21,1,1.1250,1.7032,0,0,180.0*
1,1,0.5782,-0.5625,0.5625*
1,1,0.5782,0.5625,0.5625*
1,1,0.5782,0.5625,-0.5625*
1,1,0.5782,-0.5625,-0.5625*
%
%ADD46ROUNDEDRECTD46*%
%ADD47C,1.9032*%
%ADD48O,2.2352X4.2672*%
%ADD49C,1.4732*%
D36*
X1169000Y637000D02*
D03*
X1166500Y732500D02*
D03*
X1121500D02*
D03*
X1119000Y637000D02*
D03*
X339000Y737000D02*
D03*
X341500Y641500D02*
D03*
X386500D02*
D03*
X389000Y737000D02*
D03*
D37*
X573130Y1149340D02*
D03*
X585830D02*
D03*
X598530D02*
D03*
X623930D02*
D03*
X611230D02*
D03*
X547730D02*
D03*
X560430D02*
D03*
X535030D02*
D03*
X522330D02*
D03*
X509630D02*
D03*
X700130D02*
D03*
X712830D02*
D03*
X725530D02*
D03*
X750930D02*
D03*
X738230D02*
D03*
X674730D02*
D03*
X687430D02*
D03*
X662030D02*
D03*
X649330D02*
D03*
X636630D02*
D03*
X827130D02*
D03*
X839830D02*
D03*
X852530D02*
D03*
X877930D02*
D03*
X865230D02*
D03*
X801730D02*
D03*
X814430D02*
D03*
X789030D02*
D03*
X776330D02*
D03*
X763630D02*
D03*
X890630D02*
D03*
X903330D02*
D03*
X916030D02*
D03*
X941430D02*
D03*
X928730D02*
D03*
X992230D02*
D03*
X1004930D02*
D03*
X979530D02*
D03*
X966830D02*
D03*
X954130D02*
D03*
D38*
X1161000Y550000D02*
D03*
X1191000D02*
D03*
X1221000D02*
D03*
X1216000Y830000D02*
D03*
Y850000D02*
D03*
Y870000D02*
D03*
Y890000D02*
D03*
Y910000D02*
D03*
X316000Y1225000D02*
D03*
X341000D02*
D03*
X641400Y980000D02*
D03*
X616000D02*
D03*
X766400D02*
D03*
X741000D02*
D03*
X891400D02*
D03*
X866000D02*
D03*
X1016400D02*
D03*
X991000D02*
D03*
X516400Y880000D02*
D03*
X491000D02*
D03*
X641400D02*
D03*
X616000D02*
D03*
X766400D02*
D03*
X741000D02*
D03*
X891400D02*
D03*
X866000D02*
D03*
X1016400D02*
D03*
X991000D02*
D03*
X516400Y780000D02*
D03*
X491000D02*
D03*
X641400D02*
D03*
X616000D02*
D03*
X766400D02*
D03*
X741000D02*
D03*
X891400D02*
D03*
X866000D02*
D03*
X1016400D02*
D03*
X991000D02*
D03*
X516400Y680000D02*
D03*
X491000D02*
D03*
X641400D02*
D03*
X616000D02*
D03*
X766400D02*
D03*
X741000D02*
D03*
X891400D02*
D03*
X866000D02*
D03*
X1016400D02*
D03*
X991000D02*
D03*
X516400Y580000D02*
D03*
X491000D02*
D03*
X641400D02*
D03*
X616000D02*
D03*
X766400D02*
D03*
X741000D02*
D03*
X891400D02*
D03*
X866000D02*
D03*
X1016400D02*
D03*
X991000D02*
D03*
X1200000Y999000D02*
D03*
Y1024400D02*
D03*
Y973600D02*
D03*
X516400Y980000D02*
D03*
X491000D02*
D03*
D39*
X1027430Y1234440D02*
D03*
X487430D02*
D03*
D40*
X887430Y1217440D02*
D03*
X423000Y1216000D02*
D03*
D41*
X627430Y1217440D02*
D03*
D42*
X974600Y1096000D02*
D03*
X1000000D02*
D03*
X1033000Y1042600D02*
D03*
Y1068000D02*
D03*
X336600Y862000D02*
D03*
X362000D02*
D03*
D43*
X1200000Y1146000D02*
D03*
X1153000D02*
D03*
X1106000D02*
D03*
Y1098000D02*
D03*
X1153000D02*
D03*
X1200000D02*
D03*
D44*
X1207600Y1205000D02*
D03*
D45*
X1182200D02*
D03*
X1156800D02*
D03*
X1131400D02*
D03*
X1106000D02*
D03*
D46*
X403000Y1216000D02*
D03*
D47*
X448000Y903200D02*
D03*
Y1004800D02*
D03*
X392000Y903200D02*
D03*
Y1004800D02*
D03*
X336000Y903200D02*
D03*
Y1004800D02*
D03*
X364000Y903200D02*
D03*
Y1004800D02*
D03*
X308000Y903200D02*
D03*
Y1004800D02*
D03*
X419000D02*
D03*
Y903200D02*
D03*
D48*
X337600Y825300D02*
D03*
X363000D02*
D03*
X388400D02*
D03*
D49*
X475996Y547878D02*
D03*
X911860Y1101344D02*
D03*
X586800Y1106230D02*
D03*
X566928Y1128014D02*
D03*
X1005840Y1190498D02*
D03*
X452882Y1023620D02*
D03*
X1109726Y998474D02*
D03*
X524510Y1004570D02*
D03*
X388366Y1024890D02*
D03*
X366776Y1038860D02*
D03*
X790956Y1061720D02*
D03*
X962914Y1119378D02*
D03*
X973328Y1171194D02*
D03*
X992124Y1127760D02*
D03*
X388366Y1184910D02*
D03*
X475996Y1143004D02*
D03*
X741000Y1105154D02*
D03*
X616000Y1118870D02*
D03*
X691388Y561340D02*
D03*
M02*
