G04 Layer_Physical_Order=1*
G04 Layer_Color=25308*
%FSLAX44Y44*%
%MOMM*%
G71*
G01*
G75*
%ADD10R,1.4000X2.1000*%
%ADD11R,0.8000X2.5000*%
%ADD12C,0.3000*%
%ADD13C,1.5240*%
%ADD14R,0.5000X1.8000*%
%ADD15C,1.5000*%
%ADD16C,0.3810*%
%ADD17C,1.3000*%
%ADD18C,3.0000*%
%ADD19R,1.8000X1.8000*%
%ADD20C,1.8000*%
G04:AMPARAMS|DCode=21|XSize=1.5mm|YSize=1.5mm|CornerRadius=0.1875mm|HoleSize=0mm|Usage=FLASHONLY|Rotation=180.000|XOffset=0mm|YOffset=0mm|HoleType=Round|Shape=RoundedRectangle|*
%AMROUNDEDRECTD21*
21,1,1.5000,1.1250,0,0,180.0*
21,1,1.1250,1.5000,0,0,180.0*
1,1,0.3750,-0.5625,0.5625*
1,1,0.3750,0.5625,0.5625*
1,1,0.3750,0.5625,-0.5625*
1,1,0.3750,-0.5625,-0.5625*
%
%ADD21ROUNDEDRECTD21*%
%ADD22C,1.7000*%
%ADD23O,2.0320X4.0640*%
%ADD24C,1.2700*%
D10*
X1169000Y637000D02*
D03*
X1166500Y732500D02*
D03*
X1121500D02*
D03*
X1119000Y637000D02*
D03*
X339000Y737000D02*
D03*
X341500Y641500D02*
D03*
X386500D02*
D03*
X389000Y737000D02*
D03*
D11*
X573130Y1149340D02*
D03*
X585830D02*
D03*
X598530D02*
D03*
X623930D02*
D03*
X611230D02*
D03*
X547730D02*
D03*
X560430D02*
D03*
X535030D02*
D03*
X522330D02*
D03*
X509630D02*
D03*
X700130D02*
D03*
X712830D02*
D03*
X725530D02*
D03*
X750930D02*
D03*
X738230D02*
D03*
X674730D02*
D03*
X687430D02*
D03*
X662030D02*
D03*
X649330D02*
D03*
X636630D02*
D03*
X827130D02*
D03*
X839830D02*
D03*
X852530D02*
D03*
X877930D02*
D03*
X865230D02*
D03*
X801730D02*
D03*
X814430D02*
D03*
X789030D02*
D03*
X776330D02*
D03*
X763630D02*
D03*
X890630D02*
D03*
X903330D02*
D03*
X916030D02*
D03*
X941430D02*
D03*
X928730D02*
D03*
X992230D02*
D03*
X1004930D02*
D03*
X979530D02*
D03*
X966830D02*
D03*
X954130D02*
D03*
D12*
X363000Y803622D02*
Y825300D01*
Y705646D02*
Y803622D01*
X402844Y1199388D02*
Y1216000D01*
X916030Y1175512D02*
Y1188720D01*
X1146810Y759714D02*
Y961390D01*
Y727710D02*
Y759714D01*
X903330Y1127760D02*
Y1149340D01*
Y1127760D02*
X935090Y1096000D01*
X974600D01*
X308000Y987200D02*
Y1004800D01*
Y987200D02*
X392000Y903200D01*
X337600Y825300D02*
Y861000D01*
X336600Y862000D02*
X337600Y861000D01*
X475996Y547878D02*
Y996481D01*
X522330Y1042815D01*
Y1149340D01*
X776330Y1105048D02*
Y1149340D01*
Y1105048D02*
X878332Y1003046D01*
Y616548D02*
Y1003046D01*
Y616548D02*
X944880Y550000D01*
X1161000D01*
X991000Y980000D02*
Y1022204D01*
X911860Y1101344D02*
X991000Y1022204D01*
X1004930Y1100930D02*
Y1149340D01*
X1000000Y1096000D02*
X1004930Y1100930D01*
X341500Y641500D02*
Y684146D01*
X363000Y705646D01*
Y825300D02*
Y861000D01*
X362000Y862000D02*
X363000Y861000D01*
X1119000Y619760D02*
Y637000D01*
Y619760D02*
X1172718Y566042D01*
Y543560D02*
Y566042D01*
X1167384Y538226D02*
X1172718Y543560D01*
X857758Y538226D02*
X1167384D01*
X847344Y548640D02*
X857758Y538226D01*
X847344Y548640D02*
Y947420D01*
X759460Y1035304D02*
X847344Y947420D01*
X759460Y1035304D02*
Y1105154D01*
X732028Y1132586D02*
X759460Y1105154D01*
X715624Y1132586D02*
X732028D01*
X712830Y1149340D02*
X715624Y1132586D01*
X516400Y880000D02*
X586800Y950400D01*
Y1106230D01*
X545060Y1106146D02*
X566928Y1128014D01*
X545060Y926568D02*
Y1106146D01*
X504698Y886206D02*
X545060Y926568D01*
X504698Y791702D02*
Y886206D01*
Y791702D02*
X516400Y780000D01*
X1005840Y1190498D02*
X1076960Y1119378D01*
Y740560D02*
Y1119378D01*
X1016400Y680000D02*
X1076960Y740560D01*
X928730Y1149340D02*
Y1168506D01*
X961112Y1200888D01*
X1012468D01*
X1085342Y1128014D01*
Y821182D02*
Y1128014D01*
Y821182D02*
X1146810Y759714D01*
X1183132Y716280D02*
X1227836Y760984D01*
X1216000Y890000D02*
X1227836Y878163D01*
X356362Y1012438D02*
X364000Y1004800D01*
X356362Y1046480D02*
X366522Y1056640D01*
X419862D01*
X1227836Y760984D02*
Y878163D01*
X1158240Y716280D02*
X1183132D01*
X1146810Y727710D02*
X1158240Y716280D01*
X1109726Y998474D02*
X1146810Y961390D01*
X419862Y1056640D02*
X452882Y1023620D01*
X356362Y1012438D02*
Y1046480D01*
X491000Y980000D02*
X515570Y1004570D01*
X524510D01*
X388366Y1024890D02*
X427910D01*
X448000Y1004800D01*
X366776Y1037082D02*
Y1038860D01*
Y1037082D02*
X376682Y1027176D01*
Y962914D02*
Y1027176D01*
Y962914D02*
X419000Y920596D01*
Y903200D02*
Y920596D01*
X1216000Y910000D02*
X1224788Y918788D01*
Y1213358D01*
X1209040Y1229106D02*
X1224788Y1213358D01*
X1087374Y1229106D02*
X1209040D01*
X1064696Y1206428D02*
X1087374Y1229106D01*
X933738Y1206428D02*
X1064696D01*
X916030Y1188720D02*
X933738Y1206428D01*
X790956Y1055044D02*
Y1061720D01*
Y1055044D02*
X866000Y980000D01*
X916030Y1134258D02*
Y1149340D01*
Y1134258D02*
X919480Y1130808D01*
X951484D01*
X962914Y1119378D01*
X329184Y1011616D02*
X336000Y1004800D01*
X329184Y1011616D02*
Y1230630D01*
X335280Y1236726D01*
X426974D01*
X481584Y1182116D01*
X909426D01*
X916030Y1175512D01*
Y1149340D02*
Y1175512D01*
X1004570Y591830D02*
X1016400Y580000D01*
X1004570Y591830D02*
Y731266D01*
X1043686Y770382D01*
Y1140714D01*
X1013206Y1171194D02*
X1043686Y1140714D01*
X973328Y1171194D02*
X1013206D01*
X992124Y1112774D02*
Y1127760D01*
X988822Y1109472D02*
X992124Y1112774D01*
X988822Y1069340D02*
Y1109472D01*
Y1069340D02*
X1016400Y1041762D01*
Y980000D02*
Y1041762D01*
X363000Y803622D02*
X365760Y800862D01*
X402590D01*
X460756Y859028D01*
Y992044D01*
X448000Y1004800D02*
X460756Y992044D01*
X389000Y737000D02*
Y756284D01*
X466344Y833628D01*
Y1099058D01*
X488188Y1120902D01*
Y1158240D01*
X496062Y1166114D01*
X583036D01*
X585830Y1163320D01*
Y1149340D02*
Y1163320D01*
X392000Y959200D02*
Y1004800D01*
Y959200D02*
X448000Y903200D01*
X336600Y862000D02*
X356235Y881634D01*
X392176D01*
X404622Y894080D01*
Y923290D01*
X349758Y978154D02*
X404622Y923290D01*
X349758Y978154D02*
Y1216242D01*
X341000Y1225000D02*
X349758Y1216242D01*
X402844Y1216000D02*
X403000D01*
X388366Y1184910D02*
X402844Y1199388D01*
X403000Y1216000D02*
X475996Y1143004D01*
X1106000Y1063160D02*
Y1098000D01*
Y1063160D02*
X1170160Y999000D01*
X1200000D01*
X1000000Y1096000D02*
X1010920D01*
X1016508Y1090412D01*
Y1084492D02*
Y1090412D01*
Y1084492D02*
X1033000Y1068000D01*
X741000Y980000D02*
Y1105154D01*
X616000Y980000D02*
Y1118870D01*
X636630Y1069192D02*
Y1149340D01*
X629666Y1062228D02*
X636630Y1069192D01*
X629666Y623062D02*
Y1062228D01*
Y623062D02*
X691388Y561340D01*
X1166500Y732500D02*
Y780500D01*
X1216000Y830000D01*
X1204214Y841786D02*
X1216000Y830000D01*
X1204214Y841786D02*
Y926846D01*
X1219200Y941832D01*
Y1193400D01*
X1207600Y1205000D02*
X1219200Y1193400D01*
X890630Y1149340D02*
X903330D01*
X877930D02*
X890630D01*
X839830D02*
X852530D01*
X865230D02*
X877930D01*
X852530D02*
X865230D01*
X1153000Y1098000D02*
Y1146000D01*
X547730Y1149340D02*
X560430D01*
X535030D02*
X547730D01*
X522330D02*
X535030D01*
X649330D02*
X662030D01*
X636630D02*
X649330D01*
X623930D02*
X636630D01*
X763630D02*
X776330D01*
X750930D02*
X763630D01*
X738230D02*
X750930D01*
X491000Y880000D02*
Y980000D01*
Y780000D02*
Y880000D01*
Y580000D02*
Y680000D01*
Y780000D01*
X616000Y880000D02*
Y980000D01*
Y780000D02*
Y880000D01*
Y580000D02*
Y680000D01*
Y780000D01*
X741000Y580000D02*
Y680000D01*
Y780000D01*
Y880000D01*
Y980000D01*
X866000Y580000D02*
Y680000D01*
Y780000D01*
Y880000D01*
Y980000D01*
X991000Y580000D02*
Y680000D01*
Y780000D01*
Y880000D01*
Y980000D01*
X941430Y1149340D02*
X954130D01*
X966830D02*
X979530D01*
X954130D02*
X966830D01*
X979530D02*
X992230D01*
X1004930D01*
D13*
X1161000Y550000D02*
D03*
X1191000D02*
D03*
X1221000D02*
D03*
X1216000Y830000D02*
D03*
Y850000D02*
D03*
Y870000D02*
D03*
Y890000D02*
D03*
Y910000D02*
D03*
X316000Y1225000D02*
D03*
X341000D02*
D03*
X641400Y980000D02*
D03*
X616000D02*
D03*
X766400D02*
D03*
X741000D02*
D03*
X891400D02*
D03*
X866000D02*
D03*
X1016400D02*
D03*
X991000D02*
D03*
X516400Y880000D02*
D03*
X491000D02*
D03*
X641400D02*
D03*
X616000D02*
D03*
X766400D02*
D03*
X741000D02*
D03*
X891400D02*
D03*
X866000D02*
D03*
X1016400D02*
D03*
X991000D02*
D03*
X516400Y780000D02*
D03*
X491000D02*
D03*
X641400D02*
D03*
X616000D02*
D03*
X766400D02*
D03*
X741000D02*
D03*
X891400D02*
D03*
X866000D02*
D03*
X1016400D02*
D03*
X991000D02*
D03*
X516400Y680000D02*
D03*
X491000D02*
D03*
X641400D02*
D03*
X616000D02*
D03*
X766400D02*
D03*
X741000D02*
D03*
X891400D02*
D03*
X866000D02*
D03*
X1016400D02*
D03*
X991000D02*
D03*
X516400Y580000D02*
D03*
X491000D02*
D03*
X641400D02*
D03*
X616000D02*
D03*
X766400D02*
D03*
X741000D02*
D03*
X891400D02*
D03*
X866000D02*
D03*
X1016400D02*
D03*
X991000D02*
D03*
X1200000Y999000D02*
D03*
Y1024400D02*
D03*
Y973600D02*
D03*
X516400Y980000D02*
D03*
X491000D02*
D03*
D14*
X1027430Y1234440D02*
D03*
X487430D02*
D03*
D15*
X887430Y1217440D02*
D03*
X423000Y1216000D02*
D03*
D16*
X627430Y1217440D02*
D03*
D17*
X974600Y1096000D02*
D03*
X1000000D02*
D03*
X1033000Y1042600D02*
D03*
Y1068000D02*
D03*
X336600Y862000D02*
D03*
X362000D02*
D03*
D18*
X1200000Y1146000D02*
D03*
X1153000D02*
D03*
X1106000D02*
D03*
Y1098000D02*
D03*
X1153000D02*
D03*
X1200000D02*
D03*
D19*
X1207600Y1205000D02*
D03*
D20*
X1182200D02*
D03*
X1156800D02*
D03*
X1131400D02*
D03*
X1106000D02*
D03*
D21*
X403000Y1216000D02*
D03*
D22*
X448000Y903200D02*
D03*
Y1004800D02*
D03*
X392000Y903200D02*
D03*
Y1004800D02*
D03*
X336000Y903200D02*
D03*
Y1004800D02*
D03*
X364000Y903200D02*
D03*
Y1004800D02*
D03*
X308000Y903200D02*
D03*
Y1004800D02*
D03*
X419000D02*
D03*
Y903200D02*
D03*
D23*
X337600Y825300D02*
D03*
X363000D02*
D03*
X388400D02*
D03*
D24*
X475996Y547878D02*
D03*
X911860Y1101344D02*
D03*
X586800Y1106230D02*
D03*
X566928Y1128014D02*
D03*
X1005840Y1190498D02*
D03*
X452882Y1023620D02*
D03*
X1109726Y998474D02*
D03*
X524510Y1004570D02*
D03*
X388366Y1024890D02*
D03*
X366776Y1038860D02*
D03*
X790956Y1061720D02*
D03*
X962914Y1119378D02*
D03*
X973328Y1171194D02*
D03*
X992124Y1127760D02*
D03*
X388366Y1184910D02*
D03*
X475996Y1143004D02*
D03*
X741000Y1105154D02*
D03*
X616000Y1118870D02*
D03*
X691388Y561340D02*
D03*
M02*
