G04 Layer_Color=8150272*
%FSLAX44Y44*%
%MOMM*%
G71*
G01*
G75*
%ADD38C,1.7272*%
%ADD39R,0.7032X2.0032*%
%ADD40C,1.7032*%
%ADD41C,0.5842*%
%ADD42C,1.5032*%
%ADD43C,3.2032*%
%ADD44R,2.0032X2.0032*%
%ADD45C,2.0032*%
G04:AMPARAMS|DCode=46|XSize=1.7032mm|YSize=1.7032mm|CornerRadius=0.2891mm|HoleSize=0mm|Usage=FLASHONLY|Rotation=180.000|XOffset=0mm|YOffset=0mm|HoleType=Round|Shape=RoundedRectangle|*
%AMROUNDEDRECTD46*
21,1,1.7032,1.1250,0,0,180.0*
21,1,1.1250,1.7032,0,0,180.0*
1,1,0.5782,-0.5625,0.5625*
1,1,0.5782,0.5625,0.5625*
1,1,0.5782,0.5625,-0.5625*
1,1,0.5782,-0.5625,-0.5625*
%
%ADD46ROUNDEDRECTD46*%
%ADD47C,1.9032*%
%ADD48O,2.2352X4.2672*%
%ADD49C,1.4732*%
%ADD50O,0.8032X2.7532*%
%ADD51R,1.6032X3.7632*%
%ADD52R,1.5032X2.9032*%
%ADD53R,2.9032X1.5032*%
%ADD54O,2.2032X0.6532*%
%ADD55R,2.3622X2.9462*%
%ADD56R,1.8032X1.4032*%
%ADD57R,1.7032X1.0032*%
G04:AMPARAMS|DCode=58|XSize=1.3032mm|YSize=0.8032mm|CornerRadius=0.2516mm|HoleSize=0mm|Usage=FLASHONLY|Rotation=180.000|XOffset=0mm|YOffset=0mm|HoleType=Round|Shape=RoundedRectangle|*
%AMROUNDEDRECTD58*
21,1,1.3032,0.3000,0,0,180.0*
21,1,0.8000,0.8032,0,0,180.0*
1,1,0.5032,-0.4000,0.1500*
1,1,0.5032,0.4000,0.1500*
1,1,0.5032,0.4000,-0.1500*
1,1,0.5032,-0.4000,-0.1500*
%
%ADD58ROUNDEDRECTD58*%
D38*
X1161000Y550000D02*
D03*
X1191000D02*
D03*
X1221000D02*
D03*
X1216000Y830000D02*
D03*
Y850000D02*
D03*
Y870000D02*
D03*
Y890000D02*
D03*
Y910000D02*
D03*
X316000Y1225000D02*
D03*
X341000D02*
D03*
X641400Y980000D02*
D03*
X616000D02*
D03*
X766400D02*
D03*
X741000D02*
D03*
X891400D02*
D03*
X866000D02*
D03*
X1016400D02*
D03*
X991000D02*
D03*
X516400Y880000D02*
D03*
X491000D02*
D03*
X641400D02*
D03*
X616000D02*
D03*
X766400D02*
D03*
X741000D02*
D03*
X891400D02*
D03*
X866000D02*
D03*
X1016400D02*
D03*
X991000D02*
D03*
X516400Y780000D02*
D03*
X491000D02*
D03*
X641400D02*
D03*
X616000D02*
D03*
X766400D02*
D03*
X741000D02*
D03*
X891400D02*
D03*
X866000D02*
D03*
X1016400D02*
D03*
X991000D02*
D03*
X516400Y680000D02*
D03*
X491000D02*
D03*
X641400D02*
D03*
X616000D02*
D03*
X766400D02*
D03*
X741000D02*
D03*
X891400D02*
D03*
X866000D02*
D03*
X1016400D02*
D03*
X991000D02*
D03*
X516400Y580000D02*
D03*
X491000D02*
D03*
X641400D02*
D03*
X616000D02*
D03*
X766400D02*
D03*
X741000D02*
D03*
X891400D02*
D03*
X866000D02*
D03*
X1016400D02*
D03*
X991000D02*
D03*
X1200000Y999000D02*
D03*
Y1024400D02*
D03*
Y973600D02*
D03*
X516400Y980000D02*
D03*
X491000D02*
D03*
D39*
X1027430Y1234440D02*
D03*
X487430D02*
D03*
D40*
X887430Y1217440D02*
D03*
X423000Y1216000D02*
D03*
D41*
X627430Y1217440D02*
D03*
D42*
X974600Y1096000D02*
D03*
X1000000D02*
D03*
X1033000Y1042600D02*
D03*
Y1068000D02*
D03*
X336600Y862000D02*
D03*
X362000D02*
D03*
D43*
X1200000Y1146000D02*
D03*
X1153000D02*
D03*
X1106000D02*
D03*
Y1098000D02*
D03*
X1153000D02*
D03*
X1200000D02*
D03*
D44*
X1207600Y1205000D02*
D03*
D45*
X1182200D02*
D03*
X1156800D02*
D03*
X1131400D02*
D03*
X1106000D02*
D03*
D46*
X403000Y1216000D02*
D03*
D47*
X448000Y903200D02*
D03*
Y1004800D02*
D03*
X392000Y903200D02*
D03*
Y1004800D02*
D03*
X336000Y903200D02*
D03*
Y1004800D02*
D03*
X364000Y903200D02*
D03*
Y1004800D02*
D03*
X308000Y903200D02*
D03*
Y1004800D02*
D03*
X419000D02*
D03*
Y903200D02*
D03*
D48*
X337600Y825300D02*
D03*
X363000D02*
D03*
X388400D02*
D03*
D49*
X475996Y547878D02*
D03*
X911860Y1101344D02*
D03*
X586800Y1106230D02*
D03*
X566928Y1128014D02*
D03*
X1005840Y1190498D02*
D03*
X452882Y1023620D02*
D03*
X1109726Y998474D02*
D03*
X524510Y1004570D02*
D03*
X388366Y1024890D02*
D03*
X366776Y1038860D02*
D03*
X790956Y1061720D02*
D03*
X962914Y1119378D02*
D03*
X973328Y1171194D02*
D03*
X992124Y1127760D02*
D03*
X388366Y1184910D02*
D03*
X475996Y1143004D02*
D03*
X741000Y1105154D02*
D03*
X616000Y1118870D02*
D03*
X691388Y561340D02*
D03*
D50*
X658450Y1193500D02*
D03*
X671150D02*
D03*
X683850D02*
D03*
X696550D02*
D03*
X709250D02*
D03*
X721950D02*
D03*
X734650D02*
D03*
X747350D02*
D03*
X760050D02*
D03*
X772750D02*
D03*
X785450D02*
D03*
X798150D02*
D03*
X810850D02*
D03*
X823550D02*
D03*
X658450Y1084500D02*
D03*
X671150D02*
D03*
X683850D02*
D03*
X696550D02*
D03*
X709250D02*
D03*
X721950D02*
D03*
X734650D02*
D03*
X747350D02*
D03*
X760050D02*
D03*
X772750D02*
D03*
X785450D02*
D03*
X798150D02*
D03*
X810850D02*
D03*
X823550D02*
D03*
D51*
X454300Y1160000D02*
D03*
X399700D02*
D03*
D52*
X325000Y1052000D02*
D03*
X353000D02*
D03*
D53*
X430000Y1060000D02*
D03*
Y1088000D02*
D03*
D54*
X343500Y1092250D02*
D03*
Y1098750D02*
D03*
Y1105250D02*
D03*
Y1111750D02*
D03*
X386500Y1092250D02*
D03*
Y1098750D02*
D03*
Y1105250D02*
D03*
Y1111750D02*
D03*
D55*
X293900Y1162000D02*
D03*
X338100D02*
D03*
D56*
X482000Y1075000D02*
D03*
Y1099000D02*
D03*
D57*
X290500Y1077000D02*
D03*
Y1063000D02*
D03*
D58*
X1000000Y1047000D02*
D03*
X974000Y1066000D02*
D03*
X1000000Y1056500D02*
D03*
X974000Y1047000D02*
D03*
X1000000Y1066000D02*
D03*
M02*
