M48
;Layer_Color=6321
;FILE_FORMAT=2:5
INCH,LZ
;TYPE=PLATED
T1F00S00C0.00787
T2F00S00C0.01968
T3F00S00C0.02756
T4F00S00C0.02953
T5F00S00C0.03000
T6F00S00C0.03543
T7F00S00C0.05000
T8F00S00C0.05118
T9F00S00C0.05906
T10F00S00C0.06339
T11F00S00C0.07087
%
T01
X0695275Y0567716
X0699212
X0697244Y0569685
X0701181
X0705118
Y0573622
X0707086Y0571653
Y057559
X0705118Y0577559
X0701181
X0703149Y057559
X0701181Y0573622
X0703149Y0571653
X0699212
X0697244Y0573622
Y0577559
X0699212Y057559
X0695275
Y0579527
X0699212
X0703149
X0707086
Y0567716
X0703149
X0695275Y0571653
T02
X06113Y03645
X0679Y03785
X0713597Y0396708
X0783886Y0536614
X0718Y0533
X07097Y05299
X0705433Y0545866
X0700197Y0558347
X06927Y056
X06866Y05692
X06863Y057445
X06927Y05874
X07046Y05877
X07023Y0592
X07047Y059825
X06985Y05999
X06934Y0601
X068755Y06197
X0696Y0624
X07009Y0624626
X07101
X06673Y06196
Y06051
X0650626Y055165
X06272Y05546
X0721Y05681
X07223Y05771
X07178Y05795
X07292Y05741
X07297Y05643
X06202Y05649
X06055Y06172
X06006Y06345
X06046Y06444
X0574Y0639531
X06304Y06265
X06896Y06345
X06906Y0633626
X06881Y06427
X07118Y0638
X0709625Y0632975
X0709Y063235
X07267Y06346
X07375Y06362
X07435Y06291
T03
X0843504Y0221654
X0853504
X0853504Y0300394
X0843504
X0774764
X0764764
X0696024
X0686024
Y0221654
X0696024
X0764764
X0774764
X0617283
X0607283
X0538543
X0528543
Y0300394
X0538543
X0607283
X0617283
Y0379134
X0607283
X0538543
X0528543
Y0457874
X0538543
X0607283
X0617283
X0686023
X0696023
X0764764
X0774764
Y0379134
X0764764
X0696023
X0686023
X0843504
X0853504
Y0457874
X0843504
X0843504Y0536614
X0853504
X0787008Y0617165
X0777165Y0616772
X0746457Y057378
Y056378
X0764764Y0536614
X0774764
X0696024Y0536614
X0686024
X0664961Y0548268
X0655118
Y0558268
X0664961
X0644882Y0557874
Y0547874
X0617283Y0536614
X0607283
X0609055Y0579528
Y0589528
X053937Y0583071
X052937
X0526614Y0561024
X0536614
X0546457Y0564803
Y0574803
X0538543Y0536614
X0528543
X0777165Y0626772
X0787008Y0627165
T04
X0788661Y055748
X0788974Y0568314
X0788661Y0579528
X0828661
X0828974Y0568314
X0828661Y055748
X0846063Y0576063
X0856299
Y0616063
X0846063
X0746539Y060101
X0733158Y0601119
X0655148Y0598367
X0639794
X0626008Y0598643
X0663307Y0583071
X0623307
X0611441Y059825
Y063825
X0626008Y0638643
X0639794Y0638367
X0655148
X0733158Y0641119
X0746539Y064101
T05
X0848425Y017441
X0769685
X0690945
X0612205
X0533464
X0509842Y0335827
Y0355512
X0872047
Y0335827
X0879528Y0551181
Y056063
X0876378Y0604173
Y0614173
X0576491Y0588585
Y0578585
Y0568585
X0875984Y0625197
Y0635197
T06
X0797598Y0597205
Y0607205
Y0617205
X0827598
Y0607205
Y0597205
Y0627205
X0797598
T07
X0523858Y0599882
X0533858
X0543858
T08
X0833622Y0681496
X0843622
X0853622
X0863622
X0873622
T09
X0584252Y0685433
X0796851
T10
X063937Y067874
X0741732
T11
X0833465Y064685
X0851969
X0870473
Y0665748
X0851969
X0833465
M30
