G04 Layer_Color=8150272*
%FSLAX25Y25*%
%MOIN*%
G70*
G01*
G75*
%ADD41R,0.06115X0.04147*%
%ADD42C,0.06800*%
%ADD43C,0.05918*%
%ADD44C,0.07493*%
%ADD45C,0.12611*%
%ADD46O,0.08800X0.16800*%
%ADD47C,0.06706*%
%ADD48R,0.06706X0.06706*%
%ADD49C,0.00800*%
%ADD50R,0.00800X0.00800*%
%ADD51C,0.02300*%
%ADD52R,0.07887X0.07887*%
%ADD53C,0.07887*%
%ADD54C,0.04737*%
%ADD55C,0.01981*%
%ADD56O,0.10839X0.03162*%
%ADD57R,0.05524X0.03162*%
%ADD58R,0.06902X0.05721*%
G04:AMPARAMS|DCode=59|XSize=51.31mil|YSize=31.62mil|CornerRadius=9.91mil|HoleSize=0mil|Usage=FLASHONLY|Rotation=180.000|XOffset=0mil|YOffset=0mil|HoleType=Round|Shape=RoundedRectangle|*
%AMROUNDEDRECTD59*
21,1,0.05131,0.01181,0,0,180.0*
21,1,0.03150,0.03162,0,0,180.0*
1,1,0.01981,-0.01575,0.00591*
1,1,0.01981,0.01575,0.00591*
1,1,0.01981,0.01575,-0.00591*
1,1,0.01981,-0.01575,-0.00591*
%
%ADD59ROUNDEDRECTD59*%
%ADD60R,0.01587X0.03950*%
%ADD61R,0.03950X0.01587*%
D41*
X598145Y560928D02*
D03*
Y567424D02*
D03*
X566142Y629035D02*
D03*
Y635531D02*
D03*
D42*
X509842Y335827D02*
D03*
X848425Y174410D02*
D03*
X872047Y335827D02*
D03*
X879528Y551181D02*
D03*
X769685Y174410D02*
D03*
X879528Y560630D02*
D03*
X533464Y174410D02*
D03*
X612205D02*
D03*
X690945D02*
D03*
X509842Y355512D02*
D03*
X872047D02*
D03*
X876378Y604173D02*
D03*
Y614173D02*
D03*
X538543Y221654D02*
D03*
X528543D02*
D03*
X617283D02*
D03*
X607283D02*
D03*
X696024D02*
D03*
X686024D02*
D03*
X774764D02*
D03*
X764764D02*
D03*
X853504D02*
D03*
X843504D02*
D03*
X538543Y300394D02*
D03*
X528543D02*
D03*
X617283D02*
D03*
X607283D02*
D03*
X696024D02*
D03*
X686024D02*
D03*
X774764D02*
D03*
X764764D02*
D03*
X853504D02*
D03*
X843504D02*
D03*
X538543Y379134D02*
D03*
X528543D02*
D03*
X617283D02*
D03*
X607283D02*
D03*
X696023D02*
D03*
X686023D02*
D03*
X774764D02*
D03*
X764764D02*
D03*
X853504D02*
D03*
X843504D02*
D03*
X538543Y457874D02*
D03*
X528543D02*
D03*
X617283D02*
D03*
X607283D02*
D03*
X696023D02*
D03*
X686023D02*
D03*
X774764D02*
D03*
X764764D02*
D03*
X853504D02*
D03*
X843504D02*
D03*
X875984Y635197D02*
D03*
Y625197D02*
D03*
X576491Y568585D02*
D03*
Y578585D02*
D03*
Y588585D02*
D03*
X538543Y536614D02*
D03*
X528543D02*
D03*
X617283Y536614D02*
D03*
X607283D02*
D03*
X696024D02*
D03*
X686024D02*
D03*
X774764Y536614D02*
D03*
X764764D02*
D03*
X853504D02*
D03*
X843504D02*
D03*
D43*
X526614Y561024D02*
D03*
X536614D02*
D03*
X746457Y573780D02*
D03*
Y563780D02*
D03*
X655118Y548268D02*
D03*
Y558268D02*
D03*
X529370Y583071D02*
D03*
X539370D02*
D03*
X546457Y564803D02*
D03*
Y574803D02*
D03*
X609055Y589528D02*
D03*
Y579528D02*
D03*
X787008Y617165D02*
D03*
Y627165D02*
D03*
X777165Y616772D02*
D03*
Y626772D02*
D03*
X664961Y548268D02*
D03*
Y558268D02*
D03*
X644882Y547874D02*
D03*
Y557874D02*
D03*
D44*
X626008Y638643D02*
D03*
Y598643D02*
D03*
X611441Y638250D02*
D03*
Y598250D02*
D03*
X655148Y598367D02*
D03*
Y638367D02*
D03*
X639794Y598367D02*
D03*
Y638367D02*
D03*
X746539Y601010D02*
D03*
Y641010D02*
D03*
X623307Y583071D02*
D03*
X663307D02*
D03*
X846063Y576063D02*
D03*
Y616063D02*
D03*
X828661Y557480D02*
D03*
X788661D02*
D03*
X733158Y601119D02*
D03*
Y641119D02*
D03*
X828974Y568314D02*
D03*
X788974D02*
D03*
X856299Y576063D02*
D03*
Y616063D02*
D03*
X788661Y579528D02*
D03*
X828661D02*
D03*
D45*
X833465Y646850D02*
D03*
X851969D02*
D03*
X870473D02*
D03*
Y665748D02*
D03*
X851969D02*
D03*
X833465D02*
D03*
D46*
X543858Y599882D02*
D03*
X533858D02*
D03*
X523858D02*
D03*
D47*
X797598Y597205D02*
D03*
Y607205D02*
D03*
Y617205D02*
D03*
Y627205D02*
D03*
X827598Y597205D02*
D03*
Y607205D02*
D03*
Y617205D02*
D03*
X741732Y678740D02*
D03*
D48*
X827598Y627205D02*
D03*
D49*
X796851Y685433D02*
D03*
D50*
X584252D02*
D03*
D51*
X639370Y678740D02*
D03*
D52*
X873622Y681496D02*
D03*
D53*
X863622D02*
D03*
X853622D02*
D03*
X843622D02*
D03*
X833622D02*
D03*
D54*
X574000Y639531D02*
D03*
X705433Y545866D02*
D03*
X700197Y558347D02*
D03*
X620200Y564900D02*
D03*
X688100Y642700D02*
D03*
X604600Y644400D02*
D03*
X709700Y529900D02*
D03*
X710100Y624626D02*
D03*
X717800Y579500D02*
D03*
X729200Y574100D02*
D03*
X726700Y634600D02*
D03*
X600600Y634500D02*
D03*
X722300Y577100D02*
D03*
X709000Y632350D02*
D03*
X709625Y632975D02*
D03*
X718000Y533000D02*
D03*
X721000Y568100D02*
D03*
X711800Y638000D02*
D03*
X737500Y636200D02*
D03*
X729700Y564300D02*
D03*
X783886Y536614D02*
D03*
X692700Y560000D02*
D03*
Y587400D02*
D03*
X650626Y551650D02*
D03*
X627200Y554600D02*
D03*
X667300Y605100D02*
D03*
Y619600D02*
D03*
X605500Y617200D02*
D03*
X693400Y601000D02*
D03*
X700900Y624626D02*
D03*
X704700Y598250D02*
D03*
X713597Y396708D02*
D03*
X630400Y626500D02*
D03*
X702300Y592000D02*
D03*
X696000Y624000D02*
D03*
X704600Y587700D02*
D03*
X690600Y633626D02*
D03*
X689600Y634500D02*
D03*
X686300Y574450D02*
D03*
X687550Y619700D02*
D03*
X698500Y599900D02*
D03*
X686600Y569200D02*
D03*
X743500Y629100D02*
D03*
X611300Y364500D02*
D03*
X679000Y378500D02*
D03*
D55*
X705118Y569685D02*
D03*
X701181D02*
D03*
X697244D02*
D03*
Y577559D02*
D03*
X701181D02*
D03*
X705118D02*
D03*
Y573622D02*
D03*
X701181D02*
D03*
X697244D02*
D03*
X695275Y575590D02*
D03*
X699212D02*
D03*
X707086D02*
D03*
X703149D02*
D03*
Y579527D02*
D03*
X707086D02*
D03*
X699212D02*
D03*
X695275D02*
D03*
Y571653D02*
D03*
X699212D02*
D03*
X707086D02*
D03*
X703149D02*
D03*
Y567716D02*
D03*
X707086D02*
D03*
X699212D02*
D03*
X695275D02*
D03*
D56*
X676181Y609626D02*
D03*
Y614626D02*
D03*
Y619626D02*
D03*
Y624626D02*
D03*
Y629626D02*
D03*
Y634626D02*
D03*
Y639626D02*
D03*
Y644626D02*
D03*
Y649626D02*
D03*
Y654626D02*
D03*
Y659626D02*
D03*
Y664626D02*
D03*
Y669626D02*
D03*
Y674626D02*
D03*
X719095Y609626D02*
D03*
Y614626D02*
D03*
Y619626D02*
D03*
Y624626D02*
D03*
Y629626D02*
D03*
Y634626D02*
D03*
Y639626D02*
D03*
Y644626D02*
D03*
Y649626D02*
D03*
Y654626D02*
D03*
Y659626D02*
D03*
Y664626D02*
D03*
Y669626D02*
D03*
Y674626D02*
D03*
D57*
X867717Y579921D02*
D03*
X876378Y576181D02*
D03*
Y583661D02*
D03*
D58*
X510630Y568012D02*
D03*
Y576083D02*
D03*
X596828Y585558D02*
D03*
Y593629D02*
D03*
D59*
X534646Y575591D02*
D03*
X524409Y568110D02*
D03*
X534646Y571850D02*
D03*
X524409Y575591D02*
D03*
X534646Y568110D02*
D03*
D60*
X694094Y583464D02*
D03*
X695669D02*
D03*
X697244D02*
D03*
X698819D02*
D03*
X700394D02*
D03*
X701968D02*
D03*
X703543D02*
D03*
X705118D02*
D03*
X706693D02*
D03*
X708268D02*
D03*
Y563779D02*
D03*
X706693D02*
D03*
X705118D02*
D03*
X703543D02*
D03*
X701968D02*
D03*
X700394D02*
D03*
X698819D02*
D03*
X697244D02*
D03*
X695669D02*
D03*
X694094D02*
D03*
D61*
X711023Y580708D02*
D03*
Y579134D02*
D03*
Y577559D02*
D03*
Y575984D02*
D03*
Y574409D02*
D03*
Y572834D02*
D03*
Y571260D02*
D03*
Y569685D02*
D03*
Y568110D02*
D03*
Y566535D02*
D03*
X691338D02*
D03*
Y568110D02*
D03*
Y569685D02*
D03*
Y571260D02*
D03*
Y572834D02*
D03*
Y574409D02*
D03*
Y575984D02*
D03*
Y577559D02*
D03*
Y579134D02*
D03*
Y580708D02*
D03*
M02*
