G04 Layer_Physical_Order=2*
G04 Layer_Color=11436288*
%FSLAX25Y25*%
%MOIN*%
G70*
G01*
G75*
%ADD13R,0.05315X0.03347*%
%ADD14C,0.00787*%
%ADD15R,0.14961X0.14961*%
%ADD16C,0.06000*%
%ADD17C,0.05118*%
%ADD18C,0.06693*%
%ADD19C,0.11811*%
%ADD20O,0.08000X0.16000*%
%ADD21C,0.05906*%
%ADD22R,0.05906X0.05906*%
%ADD23C,0.01500*%
%ADD24R,0.07087X0.07087*%
%ADD25C,0.07087*%
%ADD26C,0.03937*%
%ADD27C,0.01181*%
%ADD28O,0.10039X0.02362*%
%ADD29R,0.04724X0.02362*%
%ADD30R,0.06102X0.04921*%
G04:AMPARAMS|DCode=31|XSize=43.31mil|YSize=23.62mil|CornerRadius=5.91mil|HoleSize=0mil|Usage=FLASHONLY|Rotation=180.000|XOffset=0mil|YOffset=0mil|HoleType=Round|Shape=RoundedRectangle|*
%AMROUNDEDRECTD31*
21,1,0.04331,0.01181,0,0,180.0*
21,1,0.03150,0.02362,0,0,180.0*
1,1,0.01181,-0.01575,0.00591*
1,1,0.01181,0.01575,0.00591*
1,1,0.01181,0.01575,-0.00591*
1,1,0.01181,-0.01575,-0.00591*
%
%ADD31ROUNDEDRECTD31*%
%ADD32R,0.00787X0.03150*%
%ADD33R,0.03150X0.00787*%
D13*
X598145Y560928D02*
D03*
Y567424D02*
D03*
X566142Y629035D02*
D03*
Y635531D02*
D03*
D14*
X691338Y572834D02*
Y574409D01*
X570000Y635531D02*
X572797D01*
X566142D02*
X570000D01*
X618091Y593629D02*
X622887D01*
X598145Y560928D02*
X606420D01*
X622600Y577108D01*
X627500D01*
X629016Y578624D01*
Y587500D01*
X622887Y593629D02*
X629016Y587500D01*
X596828Y593629D02*
Y611500D01*
X572797Y635531D02*
X596828Y611500D01*
X870473Y665748D02*
X877400Y658821D01*
Y641250D02*
Y658821D01*
X876050Y639900D02*
X877400Y641250D01*
X763800Y639900D02*
X876050D01*
X755000Y631100D02*
X763800Y639900D01*
X755000Y599400D02*
Y631100D01*
X751700Y596100D02*
X755000Y599400D01*
X714989Y596100D02*
X751700D01*
X694361Y616728D02*
X714989Y596100D01*
X683064Y616728D02*
X694361D01*
X682992Y616800D02*
X683064Y616728D01*
X668673Y616800D02*
X682992D01*
X668273Y616400D02*
X668673Y616800D01*
X623000Y616400D02*
X668273D01*
X619462Y612862D02*
X623000Y616400D01*
X619462Y595000D02*
Y612862D01*
X618091Y593629D02*
X619462Y595000D01*
X596828Y593629D02*
X618091D01*
X570000Y635531D02*
X574000Y639531D01*
X569300Y560928D02*
X598145D01*
X565372Y557000D02*
X569300Y560928D01*
X530638Y557000D02*
X565372D01*
X526614Y561024D02*
X530638Y557000D01*
X751899Y546299D02*
X768400Y562800D01*
X696289Y546299D02*
X751899D01*
X689747Y552841D02*
X696289Y546299D01*
X700315Y558465D02*
Y562480D01*
X689747Y552841D02*
Y566535D01*
X689600D02*
X689747D01*
X746457Y573780D02*
X792025D01*
X793304Y572500D01*
Y565904D02*
Y572500D01*
X790200Y562800D02*
X793304Y565904D01*
X768400Y562800D02*
X790200D01*
X689747Y566535D02*
X691338D01*
X602547Y607143D02*
X611441Y598250D01*
X602547Y607143D02*
Y618153D01*
X596400Y624300D02*
X602547Y618153D01*
X596400Y624300D02*
Y646250D01*
X597650Y647500D01*
X646015D01*
X655148Y638367D01*
X664961Y548268D02*
X671332D01*
X689600Y566535D01*
X740787Y568110D02*
X746457Y573780D01*
X726916Y568110D02*
X740787D01*
X723953Y565147D02*
X726916Y568110D01*
X717950Y565147D02*
X723953D01*
X714988Y568110D02*
X717950Y565147D01*
X711023Y568110D02*
X714988D01*
X639794Y638367D02*
X655148D01*
X691338Y566535D02*
Y568110D01*
X650194Y548268D02*
X655118D01*
X649800Y547874D02*
X650194Y548268D01*
X644882Y547874D02*
X649800D01*
X655118Y548268D02*
X664961D01*
X734277Y551600D02*
X746457Y563780D01*
X697500Y551600D02*
X734277D01*
X695669Y553431D02*
X697500Y551600D01*
X876400Y569200D02*
Y576181D01*
X711100Y580708D02*
Y592500D01*
Y597556D01*
Y580708D02*
X713665D01*
X695669Y553431D02*
Y563779D01*
X713665Y580708D02*
X718743Y585787D01*
X755000D01*
X756500Y587287D01*
Y606106D01*
X777165Y626772D01*
X534646Y571850D02*
X543504D01*
X546457Y574803D01*
X550239Y578585D02*
X576491D01*
X546457Y574803D02*
X550239Y578585D01*
X750991Y568314D02*
X788974D01*
X746457Y563780D02*
X750991Y568314D01*
X835591Y635197D02*
X875984D01*
X827598Y627205D02*
X835591Y635197D01*
X711023Y580708D02*
X711100D01*
X708647Y594953D02*
X711100Y592500D01*
X700653Y594953D02*
X708647D01*
X698819Y593119D02*
X700653Y594953D01*
X698819Y583464D02*
Y593119D01*
X672453Y580708D02*
X691338D01*
X664961Y573216D02*
X672453Y580708D01*
X664961Y558268D02*
Y573216D01*
X699030Y609626D02*
X711100Y597556D01*
X676181Y609626D02*
X699030D01*
X636991D02*
X676181D01*
X626008Y598643D02*
X636991Y609626D01*
X612598Y583071D02*
X623307D01*
X609055Y579528D02*
X612598Y583071D01*
X627226Y557874D02*
X644882D01*
X620200Y564900D02*
X627226Y557874D01*
X787008Y627165D02*
X791442Y631600D01*
X823203D01*
X827598Y627205D01*
X876378Y576181D02*
X876400D01*
X875500Y568300D02*
X876400Y569200D01*
X875500Y555209D02*
Y568300D01*
Y555209D02*
X879528Y551181D01*
X782194Y627165D02*
X787008D01*
X781800Y626772D02*
X782194Y627165D01*
X777165Y626772D02*
X781800D01*
X650194Y558268D02*
X655118D01*
X649800Y557874D02*
X650194Y558268D01*
X644882Y557874D02*
X649800D01*
X655118Y558268D02*
X664961D01*
X593242Y579528D02*
X609055D01*
X592300Y578585D02*
X593242Y579528D01*
X576491Y578585D02*
X592300D01*
X518700Y575591D02*
X524400D01*
Y578101D01*
X849262Y623100D02*
X856299Y616063D01*
X801703Y623100D02*
X849262D01*
X797598Y627205D02*
X801703Y623100D01*
X563785Y568585D02*
X576491D01*
X556100Y560900D02*
X563785Y568585D01*
X543900Y560900D02*
X556100D01*
X540200Y564600D02*
X543900Y560900D01*
X514800Y564600D02*
X540200D01*
X514700Y564500D02*
X514800Y564600D01*
X506600Y564500D02*
X514700D01*
X506500Y564600D02*
X506600Y564500D01*
X506500Y564600D02*
Y572000D01*
X506600Y572100D01*
X515209D01*
X518700Y575591D01*
X682300Y636900D02*
X688100Y642700D01*
X661400Y636900D02*
X682300D01*
X658200Y633700D02*
X661400Y636900D01*
X623346Y633700D02*
X658200D01*
X619000Y638046D02*
X623346Y633700D01*
X619000Y638046D02*
Y642900D01*
X617500Y644400D02*
X619000Y642900D01*
X604600Y644400D02*
X617500D01*
X856299Y616063D02*
X870263D01*
X872400Y618200D01*
X878750D01*
X880400Y616550D01*
Y611250D02*
Y616550D01*
X878950Y609800D02*
X880400Y611250D01*
X873994Y609800D02*
X878950D01*
X861398Y597205D02*
X873994Y609800D01*
X827598Y597205D02*
X861398D01*
X524400Y575591D02*
X524409D01*
X524400Y578101D02*
X529370Y583071D01*
X752248Y636109D02*
X762989Y646850D01*
X523858Y589992D02*
Y591900D01*
X512500D02*
X523858D01*
X746539Y601010D02*
Y630400D01*
X762989Y646850D02*
X833465D01*
X523858Y599882D02*
Y637558D01*
X543200Y656900D01*
X749000D01*
X752248Y653652D01*
Y636109D02*
Y653652D01*
X746539Y630400D02*
X752248Y636109D01*
X598145Y567424D02*
X609324D01*
X620600Y578700D01*
X626338D01*
X627638Y580000D01*
Y586014D01*
X626250Y587402D02*
X627638Y586014D01*
X620802Y587402D02*
X626250D01*
X618800Y585400D02*
X620802Y587402D01*
X604200Y585400D02*
X618800D01*
X600900Y582100D02*
X604200Y585400D01*
X581000Y582100D02*
X600900D01*
X580500Y582600D02*
X581000Y582100D01*
X576000Y582600D02*
X580500D01*
X571000Y587600D02*
X576000Y582600D01*
X526250Y587600D02*
X571000D01*
X523858Y589992D02*
X526250Y587600D01*
X719095Y609626D02*
X724651D01*
X733158Y601119D01*
X523858Y591900D02*
Y599882D01*
X510630Y590030D02*
X512500Y591900D01*
X510630Y576083D02*
Y590030D01*
X739808Y601010D02*
X746539D01*
X739700Y601119D02*
X739808Y601010D01*
X733158Y601119D02*
X739700D01*
X788661Y557480D02*
X810709Y579528D01*
X828661D01*
X879528Y560630D02*
X881800Y562902D01*
Y576600D01*
X880000Y578400D02*
X881800Y576600D01*
X873100Y578400D02*
X880000D01*
X873000Y578300D02*
X873100Y578400D01*
X873000Y565650D02*
Y578300D01*
X871250Y563900D02*
X873000Y565650D01*
X826250Y563900D02*
X871250D01*
X824600Y565550D02*
X826250Y563900D01*
X824600Y565550D02*
Y575466D01*
X828661Y579528D01*
X717800Y574808D02*
Y579500D01*
X717401Y574409D02*
X717800Y574808D01*
X711023Y574409D02*
X717401D01*
X528543Y536614D02*
X535257Y529900D01*
X709700D01*
X710100Y624626D02*
X719095D01*
X711023Y572834D02*
X727934D01*
X729200Y574100D01*
X726700Y631250D02*
Y634600D01*
X725076Y629626D02*
X726700Y631250D01*
X719095Y629626D02*
X725076D01*
X712182D02*
X719095D01*
X711953Y629397D02*
X712182Y629626D01*
X704659Y629397D02*
X711953D01*
X704307Y629749D02*
X704659Y629397D01*
X685141Y629749D02*
X704307D01*
X682890Y632000D02*
X685141Y629749D01*
X619500Y632000D02*
X682890D01*
X616500Y635000D02*
X619500Y632000D01*
X616500Y635000D02*
Y641250D01*
X615150Y642600D02*
X616500Y641250D01*
X608700Y642600D02*
X615150D01*
X600600Y634500D02*
X608700Y642600D01*
X709000Y632350D02*
X709625Y632975D01*
X711023Y571260D02*
X715140D01*
X715300Y571100D01*
X730800D01*
X732200Y572500D01*
Y577000D01*
X732100Y577100D02*
X732200Y577000D01*
X722300Y577100D02*
X732100D01*
X711276Y634626D02*
X719095D01*
X709625Y632975D02*
X711276Y634626D01*
X703200Y533000D02*
X718000D01*
X702800Y532600D02*
X703200Y533000D01*
X690038Y532600D02*
X702800D01*
X686024Y536614D02*
X690038Y532600D01*
X711023Y569685D02*
X719415D01*
X721000Y568100D01*
X711800Y638000D02*
X713426Y639626D01*
X719095D01*
Y644626D02*
X724300D01*
X727374Y647700D01*
X746500D01*
X750870Y643330D01*
Y638750D02*
Y643330D01*
X748320Y636200D02*
X750870Y638750D01*
X737500Y636200D02*
X748320D01*
X728300Y563700D02*
X728900Y564300D01*
X715035Y563700D02*
X728300D01*
X712200Y566535D02*
X715035Y563700D01*
X711023Y566535D02*
X712200D01*
X728900Y564300D02*
X729700D01*
X783886Y536614D02*
X843504D01*
X864505Y602300D02*
X876378Y614173D01*
X811434Y602300D02*
X864505D01*
X788661Y579528D02*
X811434Y602300D01*
X579518Y585558D02*
X596828D01*
X576491Y588585D02*
X579518Y585558D01*
X604869Y589528D02*
X609055D01*
X600900Y585558D02*
X604869Y589528D01*
X596828Y585558D02*
X600900D01*
X525309Y570700D02*
X528210D01*
X518800D02*
X525309D01*
X530200Y575591D01*
X534646D01*
Y568110D02*
X543150D01*
X546457Y564803D01*
X510630Y568012D02*
X516112D01*
X518800Y570700D01*
X528210D02*
X530800Y568110D01*
X534646D01*
X546440Y629035D02*
X566142D01*
X543858Y626453D02*
X546440Y629035D01*
X543858Y599882D02*
Y626453D01*
X867800Y569864D02*
Y579921D01*
X867717D02*
X867800D01*
X866250Y568314D02*
X867800Y569864D01*
X828974Y568314D02*
X866250D01*
X796968Y607205D02*
X797598D01*
X787008Y617165D02*
X796968Y607205D01*
X807598Y617205D02*
X827598D01*
X797598Y607205D02*
X807598Y617205D01*
X837342Y616063D02*
X846063D01*
X836200Y617205D02*
X837342Y616063D01*
X827598Y617205D02*
X836200D01*
X791603Y603200D02*
X797598Y597205D01*
X790737Y603200D02*
X791603D01*
X777165Y616772D02*
X790737Y603200D01*
X876378Y583661D02*
Y604173D01*
X694094Y561394D02*
Y563779D01*
X692700Y560000D02*
X694094Y561394D01*
X667636Y587400D02*
X692700D01*
X663307Y583071D02*
X667636Y587400D01*
X650626Y551650D02*
X652322Y553346D01*
X669882D01*
X670165Y564221D01*
X683503Y577559D01*
X691338D01*
X673634Y579134D02*
X691338D01*
X668504Y574003D02*
X673634Y579134D01*
X668504Y556250D02*
Y574003D01*
X666978Y554724D02*
X668504Y556250D01*
X646743Y554724D02*
X666978D01*
X644919Y552900D02*
X646743Y554724D01*
X628900Y552900D02*
X644919D01*
X627200Y554600D02*
X628900Y552900D01*
X671679Y583100D02*
X694094D01*
X622256Y569103D02*
X657682D01*
X618750D02*
X622256D01*
X635866Y614626D02*
X676181D01*
X621677Y600437D02*
X635866Y614626D01*
X621677Y596849D02*
Y600437D01*
Y596849D02*
X630400Y588126D01*
Y577246D02*
Y588126D01*
X622256Y569103D02*
X630400Y577246D01*
X617247Y567600D02*
X618750Y569103D01*
X617247Y561947D02*
X617283Y561911D01*
X770378Y541000D02*
X774764Y536614D01*
X700409Y541000D02*
X770378D01*
X696024Y536614D02*
X700409Y541000D01*
X613298Y540600D02*
X617283Y536614D01*
X542529Y540600D02*
X613298D01*
X538543Y536614D02*
X542529Y540600D01*
X692038D02*
X696024Y536614D01*
X621269Y540600D02*
X692038D01*
X617283Y536614D02*
X621269Y540600D01*
X617283Y536614D02*
Y561911D01*
X617247Y561947D02*
Y567600D01*
X657682Y569103D02*
X671679Y583100D01*
X694094D02*
Y583464D01*
X849518Y540600D02*
X853504Y536614D01*
X778750Y540600D02*
X849518D01*
X774764Y536614D02*
X778750Y540600D01*
X607926Y619626D02*
X676181D01*
X849478Y461900D02*
X853504Y457874D01*
X778790Y461900D02*
X849478D01*
X774764Y457874D02*
X778790Y461900D01*
X613257D02*
X617283Y457874D01*
X542569Y461900D02*
X613257D01*
X538543Y457874D02*
X542569Y461900D01*
X691997D02*
X696023Y457874D01*
X621309Y461900D02*
X691997D01*
X617283Y457874D02*
X621309Y461900D01*
X770738D02*
X774764Y457874D01*
X700049Y461900D02*
X770738D01*
X696023Y457874D02*
X700049Y461900D01*
X695669Y583464D02*
Y588960D01*
X679529Y605100D02*
X695669Y588960D01*
X667300Y605100D02*
X679529D01*
X667300Y619600D02*
X676155D01*
X676181Y619626D01*
X605500Y617200D02*
X607926Y619626D01*
X700090Y383200D02*
X713597Y396708D01*
X849438Y383200D02*
X853504Y379134D01*
X778830Y383200D02*
X849438D01*
X774764Y379134D02*
X778830Y383200D01*
X770697D02*
X774764Y379134D01*
X700090Y383200D02*
X770697D01*
X696023Y379134D02*
X700090Y383200D01*
X613217D02*
X617283Y379134D01*
X542609Y383200D02*
X613217D01*
X538543Y379134D02*
X542609Y383200D01*
X691957D02*
X696023Y379134D01*
X621350Y383200D02*
X691957D01*
X617283Y379134D02*
X621350Y383200D01*
X697244Y583464D02*
Y595000D01*
Y596923D01*
X693400Y600767D02*
X697244Y596923D01*
X693400Y600767D02*
Y601000D01*
X698533Y626993D02*
X700900Y624626D01*
X692992Y626993D02*
X698533D01*
X690625Y624626D02*
X692992Y626993D01*
X676181Y624626D02*
X690625D01*
X697244Y595000D02*
X698575Y596331D01*
X702781D01*
X704700Y598250D01*
X630400Y626500D02*
X633526Y629626D01*
X676181D01*
X613277Y304400D02*
X617283Y300394D01*
X542549Y304400D02*
X613277D01*
X538543Y300394D02*
X542549Y304400D01*
X692017D02*
X696024Y300394D01*
X621290Y304400D02*
X692017D01*
X617283Y300394D02*
X621290Y304400D01*
X770757D02*
X774764Y300394D01*
X700030Y304400D02*
X770757D01*
X696024Y300394D02*
X700030Y304400D01*
X849498D02*
X853504Y300394D01*
X778770Y304400D02*
X849498D01*
X774764Y300394D02*
X778770Y304400D01*
X700394Y583464D02*
Y590094D01*
X702300Y592000D01*
X696000Y624000D02*
X698600Y621400D01*
X702500D01*
X703900Y622800D01*
Y627600D01*
X703129Y628371D02*
X703900Y627600D01*
X683355Y628371D02*
X703129D01*
X682100Y629626D02*
X683355Y628371D01*
X676181Y629626D02*
X682100D01*
X689600Y634626D02*
X690600Y633626D01*
X689474Y634626D02*
X689600D01*
X849457Y225700D02*
X853504Y221654D01*
X778810Y225700D02*
X849457D01*
X774764Y221654D02*
X778810Y225700D01*
X770717D02*
X774764Y221654D01*
X700070Y225700D02*
X770717D01*
X696024Y221654D02*
X700070Y225700D01*
X691977D02*
X696024Y221654D01*
X621330Y225700D02*
X691977D01*
X617283Y221654D02*
X621330Y225700D01*
X613237D02*
X617283Y221654D01*
X542590Y225700D02*
X613237D01*
X538543Y221654D02*
X542590Y225700D01*
X701968Y583464D02*
Y586900D01*
X702768Y587700D01*
X704600D01*
X689474Y634626D02*
X689600Y634500D01*
X676181Y634626D02*
X689474D01*
X685150Y622100D02*
X687550Y619700D01*
X687624Y619626D02*
X719095D01*
X670248Y622100D02*
X685150D01*
X669642Y622706D02*
X670248Y622100D01*
X625696Y622706D02*
X669642D01*
X614841Y633560D02*
X625696Y622706D01*
X614841Y633560D02*
Y634850D01*
X611441Y638250D02*
X614841Y634850D01*
X687916Y572834D02*
X691338D01*
X686300Y574450D02*
X687916Y572834D01*
X687550Y619700D02*
X687624Y619626D01*
X719095D02*
X726576D01*
X729653Y622703D01*
Y636352D01*
X728200Y637804D02*
X729653Y636352D01*
X728200Y637804D02*
Y644300D01*
X730000Y646100D01*
X741449D01*
X746539Y641010D01*
X733158Y618758D02*
Y641119D01*
Y616308D02*
Y618758D01*
X743500Y629100D01*
X729026Y614626D02*
X733158Y618758D01*
X729026Y614626D02*
X731476D01*
X719095D02*
X729026D01*
X655148Y598367D02*
X664881Y608100D01*
X669400D01*
X670100Y607400D01*
X697200D01*
X698500Y606100D01*
Y599900D02*
Y606100D01*
X688660Y571260D02*
X691338D01*
X686600Y569200D02*
X688660Y571260D01*
X731476Y614626D02*
X733158Y616308D01*
X602312Y355512D02*
X611300Y364500D01*
X509842Y355512D02*
X602312D01*
X679000Y378500D02*
X701988Y355512D01*
X872047D01*
D15*
X701181Y573622D02*
D03*
D16*
X509842Y335827D02*
D03*
X848425Y174410D02*
D03*
X872047Y335827D02*
D03*
X879528Y551181D02*
D03*
X769685Y174410D02*
D03*
X879528Y560630D02*
D03*
X533464Y174410D02*
D03*
X612205D02*
D03*
X690945D02*
D03*
X509842Y355512D02*
D03*
X872047D02*
D03*
X876378Y604173D02*
D03*
Y614173D02*
D03*
X538543Y221654D02*
D03*
X528543D02*
D03*
X617283D02*
D03*
X607283D02*
D03*
X696024D02*
D03*
X686024D02*
D03*
X774764D02*
D03*
X764764D02*
D03*
X853504D02*
D03*
X843504D02*
D03*
X538543Y300394D02*
D03*
X528543D02*
D03*
X617283D02*
D03*
X607283D02*
D03*
X696024D02*
D03*
X686024D02*
D03*
X774764D02*
D03*
X764764D02*
D03*
X853504D02*
D03*
X843504D02*
D03*
X538543Y379134D02*
D03*
X528543D02*
D03*
X617283D02*
D03*
X607283D02*
D03*
X696023D02*
D03*
X686023D02*
D03*
X774764D02*
D03*
X764764D02*
D03*
X853504D02*
D03*
X843504D02*
D03*
X538543Y457874D02*
D03*
X528543D02*
D03*
X617283D02*
D03*
X607283D02*
D03*
X696023D02*
D03*
X686023D02*
D03*
X774764D02*
D03*
X764764D02*
D03*
X853504D02*
D03*
X843504D02*
D03*
X875984Y635197D02*
D03*
Y625197D02*
D03*
X576491Y568585D02*
D03*
Y578585D02*
D03*
Y588585D02*
D03*
X538543Y536614D02*
D03*
X528543D02*
D03*
X617283Y536614D02*
D03*
X607283D02*
D03*
X696024D02*
D03*
X686024D02*
D03*
X774764Y536614D02*
D03*
X764764D02*
D03*
X853504D02*
D03*
X843504D02*
D03*
D17*
X526614Y561024D02*
D03*
X536614D02*
D03*
X746457Y573780D02*
D03*
Y563780D02*
D03*
X655118Y548268D02*
D03*
Y558268D02*
D03*
X529370Y583071D02*
D03*
X539370D02*
D03*
X546457Y564803D02*
D03*
Y574803D02*
D03*
X609055Y589528D02*
D03*
Y579528D02*
D03*
X787008Y617165D02*
D03*
Y627165D02*
D03*
X777165Y616772D02*
D03*
Y626772D02*
D03*
X664961Y548268D02*
D03*
Y558268D02*
D03*
X644882Y547874D02*
D03*
Y557874D02*
D03*
D18*
X626008Y638643D02*
D03*
Y598643D02*
D03*
X611441Y638250D02*
D03*
Y598250D02*
D03*
X655148Y598367D02*
D03*
Y638367D02*
D03*
X639794Y598367D02*
D03*
Y638367D02*
D03*
X746539Y601010D02*
D03*
Y641010D02*
D03*
X623307Y583071D02*
D03*
X663307D02*
D03*
X846063Y576063D02*
D03*
Y616063D02*
D03*
X828661Y557480D02*
D03*
X788661D02*
D03*
X733158Y601119D02*
D03*
Y641119D02*
D03*
X828974Y568314D02*
D03*
X788974D02*
D03*
X856299Y576063D02*
D03*
Y616063D02*
D03*
X788661Y579528D02*
D03*
X828661D02*
D03*
D19*
X833465Y646850D02*
D03*
X851969D02*
D03*
X870473D02*
D03*
Y665748D02*
D03*
X851969D02*
D03*
X833465D02*
D03*
D20*
X543858Y599882D02*
D03*
X533858D02*
D03*
X523858D02*
D03*
D21*
X797598Y597205D02*
D03*
Y607205D02*
D03*
Y617205D02*
D03*
Y627205D02*
D03*
X827598Y597205D02*
D03*
Y607205D02*
D03*
Y617205D02*
D03*
X741732Y678740D02*
D03*
D22*
X827598Y627205D02*
D03*
D23*
X639370Y678740D02*
D03*
D24*
X873622Y681496D02*
D03*
D25*
X863622D02*
D03*
X853622D02*
D03*
X843622D02*
D03*
X833622D02*
D03*
D26*
X574000Y639531D02*
D03*
X705433Y545866D02*
D03*
X700197Y558347D02*
D03*
X620200Y564900D02*
D03*
X688100Y642700D02*
D03*
X604600Y644400D02*
D03*
X709700Y529900D02*
D03*
X710100Y624626D02*
D03*
X717800Y579500D02*
D03*
X729200Y574100D02*
D03*
X726700Y634600D02*
D03*
X600600Y634500D02*
D03*
X722300Y577100D02*
D03*
X709000Y632350D02*
D03*
X709625Y632975D02*
D03*
X718000Y533000D02*
D03*
X721000Y568100D02*
D03*
X711800Y638000D02*
D03*
X737500Y636200D02*
D03*
X729700Y564300D02*
D03*
X783886Y536614D02*
D03*
X692700Y560000D02*
D03*
Y587400D02*
D03*
X650626Y551650D02*
D03*
X627200Y554600D02*
D03*
X667300Y605100D02*
D03*
Y619600D02*
D03*
X605500Y617200D02*
D03*
X693400Y601000D02*
D03*
X700900Y624626D02*
D03*
X704700Y598250D02*
D03*
X713597Y396708D02*
D03*
X630400Y626500D02*
D03*
X702300Y592000D02*
D03*
X696000Y624000D02*
D03*
X704600Y587700D02*
D03*
X690600Y633626D02*
D03*
X689600Y634500D02*
D03*
X686300Y574450D02*
D03*
X687550Y619700D02*
D03*
X698500Y599900D02*
D03*
X686600Y569200D02*
D03*
X743500Y629100D02*
D03*
X611300Y364500D02*
D03*
X679000Y378500D02*
D03*
D27*
X705118Y569685D02*
D03*
X701181D02*
D03*
X697244D02*
D03*
Y577559D02*
D03*
X701181D02*
D03*
X705118D02*
D03*
Y573622D02*
D03*
X701181D02*
D03*
X697244D02*
D03*
X695275Y575590D02*
D03*
X699212D02*
D03*
X707086D02*
D03*
X703149D02*
D03*
Y579527D02*
D03*
X707086D02*
D03*
X699212D02*
D03*
X695275D02*
D03*
Y571653D02*
D03*
X699212D02*
D03*
X707086D02*
D03*
X703149D02*
D03*
Y567716D02*
D03*
X707086D02*
D03*
X699212D02*
D03*
X695275D02*
D03*
D28*
X676181Y609626D02*
D03*
Y614626D02*
D03*
Y619626D02*
D03*
Y624626D02*
D03*
Y629626D02*
D03*
Y634626D02*
D03*
Y639626D02*
D03*
Y644626D02*
D03*
Y649626D02*
D03*
Y654626D02*
D03*
Y659626D02*
D03*
Y664626D02*
D03*
Y669626D02*
D03*
Y674626D02*
D03*
X719095Y609626D02*
D03*
Y614626D02*
D03*
Y619626D02*
D03*
Y624626D02*
D03*
Y629626D02*
D03*
Y634626D02*
D03*
Y639626D02*
D03*
Y644626D02*
D03*
Y649626D02*
D03*
Y654626D02*
D03*
Y659626D02*
D03*
Y664626D02*
D03*
Y669626D02*
D03*
Y674626D02*
D03*
D29*
X867717Y579921D02*
D03*
X876378Y576181D02*
D03*
Y583661D02*
D03*
D30*
X510630Y568012D02*
D03*
Y576083D02*
D03*
X596828Y585558D02*
D03*
Y593629D02*
D03*
D31*
X534646Y575591D02*
D03*
X524409Y568110D02*
D03*
X534646Y571850D02*
D03*
X524409Y575591D02*
D03*
X534646Y568110D02*
D03*
D32*
X694094Y583464D02*
D03*
X695669D02*
D03*
X697244D02*
D03*
X698819D02*
D03*
X700394D02*
D03*
X701968D02*
D03*
X703543D02*
D03*
X705118D02*
D03*
X706693D02*
D03*
X708268D02*
D03*
Y563779D02*
D03*
X706693D02*
D03*
X705118D02*
D03*
X703543D02*
D03*
X701968D02*
D03*
X700394D02*
D03*
X698819D02*
D03*
X697244D02*
D03*
X695669D02*
D03*
X694094D02*
D03*
D33*
X711023Y580708D02*
D03*
Y579134D02*
D03*
Y577559D02*
D03*
Y575984D02*
D03*
Y574409D02*
D03*
Y572834D02*
D03*
Y571260D02*
D03*
Y569685D02*
D03*
Y568110D02*
D03*
Y566535D02*
D03*
X691338D02*
D03*
Y568110D02*
D03*
Y569685D02*
D03*
Y571260D02*
D03*
Y572834D02*
D03*
Y574409D02*
D03*
Y575984D02*
D03*
Y577559D02*
D03*
Y579134D02*
D03*
Y580708D02*
D03*
M02*
