G04 Layer_Physical_Order=1*
G04 Layer_Color=25308*
%FSLAX25Y25*%
%MOIN*%
G70*
G01*
G75*
%ADD10R,0.03150X0.09843*%
%ADD11R,0.07677X0.03543*%
%ADD12R,0.07677X0.12402*%
%ADD13R,0.05315X0.03347*%
%ADD14C,0.00787*%
%ADD15R,0.14961X0.14961*%
%ADD16C,0.06000*%
%ADD17C,0.05118*%
%ADD18C,0.06693*%
%ADD19C,0.11811*%
%ADD20O,0.08000X0.16000*%
%ADD21C,0.05906*%
%ADD22R,0.05906X0.05906*%
%ADD23C,0.01500*%
%ADD24R,0.07087X0.07087*%
%ADD25C,0.07087*%
%ADD26C,0.03937*%
%ADD27C,0.01181*%
D10*
X617992Y651929D02*
D03*
X622992D02*
D03*
X627992D02*
D03*
X637992D02*
D03*
X632992D02*
D03*
X607992D02*
D03*
X612992D02*
D03*
X602992D02*
D03*
X597992D02*
D03*
X592992D02*
D03*
X667992D02*
D03*
X672992D02*
D03*
X677992D02*
D03*
X687992D02*
D03*
X682992D02*
D03*
X657992D02*
D03*
X662992D02*
D03*
X652992D02*
D03*
X647992D02*
D03*
X642992D02*
D03*
X717992D02*
D03*
X722992D02*
D03*
X727992D02*
D03*
X737992D02*
D03*
X732992D02*
D03*
X707992D02*
D03*
X712992D02*
D03*
X702992D02*
D03*
X697992D02*
D03*
X692992D02*
D03*
X742992D02*
D03*
X747992D02*
D03*
X752992D02*
D03*
X762992D02*
D03*
X757992D02*
D03*
X782992D02*
D03*
X787992D02*
D03*
X777992D02*
D03*
X772992D02*
D03*
X767992D02*
D03*
D11*
X523524Y669685D02*
D03*
Y660630D02*
D03*
Y651575D02*
D03*
D12*
X545768Y660630D02*
D03*
D13*
X566142Y665059D02*
D03*
Y658563D02*
D03*
D14*
X574000Y639531D02*
Y657063D01*
X572500Y658563D02*
X574000Y657063D01*
X566142Y658563D02*
X572500D01*
X705433Y545866D02*
Y553662D01*
X700748Y558347D02*
X705433Y553662D01*
X655118Y548268D02*
X658700Y551849D01*
Y588500D01*
X665000Y594800D01*
Y597300D01*
X655148Y607152D02*
X665000Y597300D01*
X655148Y607152D02*
Y638367D01*
X747992Y646100D02*
Y651929D01*
X743750Y646000D02*
X747992Y646100D01*
X742200Y644450D02*
X743750Y646000D01*
X742200Y632000D02*
Y644450D01*
X740547Y630347D02*
X742200Y632000D01*
X740547Y579689D02*
Y630347D01*
Y579689D02*
X746457Y573780D01*
X532500Y660630D02*
X545768D01*
X523524D02*
X532500D01*
X848425Y312205D02*
X872047Y335827D01*
X848425Y174410D02*
Y312205D01*
X875500Y555209D02*
X879528Y551181D01*
X875500Y555209D02*
Y571900D01*
X880400Y576800D01*
Y630781D01*
X875984Y635197D02*
X880400Y630781D01*
X626008Y585772D02*
Y598643D01*
X623307Y583071D02*
X626008Y585772D01*
X539370Y581890D02*
Y583071D01*
Y581890D02*
X546457Y574803D01*
X533858Y588583D02*
Y599882D01*
Y588583D02*
X539370Y583071D01*
X609055Y576045D02*
X620200Y564900D01*
X609055Y576045D02*
Y579528D01*
X536614Y580315D02*
X539370Y583071D01*
X536614Y561024D02*
Y580315D01*
X532500Y660630D02*
X533858Y659271D01*
Y599882D02*
Y659271D01*
X520400Y544809D02*
X536614Y561024D01*
X520400Y346385D02*
Y544809D01*
X509842Y335827D02*
X520400Y346385D01*
X875984Y635197D02*
Y640000D01*
X877400Y641416D01*
Y677718D01*
X873622Y681496D02*
X877400Y677718D01*
X872047Y335827D02*
X879528Y343307D01*
Y551181D01*
X784300Y572988D02*
X788974Y568314D01*
X784300Y572988D02*
Y607100D01*
X790600Y613400D01*
Y623573D01*
X787008Y627165D02*
X790600Y623573D01*
X787992Y639984D02*
Y651929D01*
X787008Y639000D02*
X787992Y639984D01*
X787008Y627165D02*
Y639000D01*
X782992Y651929D02*
X787992D01*
X762992D02*
X767992D01*
X772992D01*
X777992D02*
X782992D01*
X772992D02*
X777992D01*
X793600Y565000D02*
Y623206D01*
Y198325D02*
Y565000D01*
X769685Y174410D02*
X793600Y198325D01*
X722992Y644442D02*
Y651929D01*
X721250Y642700D02*
X722992Y644442D01*
X688100Y642700D02*
X721250D01*
X572500Y612300D02*
X604600Y644400D01*
X572500Y572577D02*
Y612300D01*
Y572577D02*
X576491Y568585D01*
X793600Y623206D02*
X797598Y627205D01*
X791400Y562800D02*
X793600Y565000D01*
X765700Y562800D02*
X791400D01*
X759799Y568701D02*
X765700Y562800D01*
X743252Y568701D02*
X759799D01*
X739169Y572784D02*
X743252Y568701D01*
X739169Y572784D02*
Y633431D01*
X740523Y634784D01*
Y640583D01*
X737992Y643113D02*
X740523Y640583D01*
X737992Y643113D02*
Y651929D01*
X742992D01*
X732992D02*
X737992D01*
X727992D02*
X732992D01*
X722992D02*
X727992D01*
X523524Y625835D02*
Y651575D01*
Y625835D02*
X523858Y625500D01*
Y599882D02*
Y625500D01*
X851969Y646850D02*
X858900Y653782D01*
Y673300D01*
X857500Y674700D02*
X858900Y673300D01*
X840418Y674700D02*
X857500D01*
X833622Y681496D02*
X840418Y674700D01*
X828661Y579528D02*
X850400Y601266D01*
Y634300D01*
X845000Y639700D02*
X850400Y634300D01*
X845000Y639700D02*
Y658779D01*
X851969Y665748D01*
X533464Y174410D02*
X557900Y198845D01*
Y602700D01*
X597992Y642792D01*
Y651929D01*
X607992D02*
X612992D01*
X602992D02*
X607992D01*
X597992D02*
X602992D01*
X637992Y642700D02*
Y651929D01*
X635400Y640108D02*
X637992Y642700D01*
X635400Y197605D02*
Y640108D01*
X612205Y174410D02*
X635400Y197605D01*
X647992Y651929D02*
X652992D01*
X642992D02*
X647992D01*
X637992D02*
X642992D01*
X690945Y174410D02*
Y179855D01*
X690900Y179900D02*
X690945Y179855D01*
X690900Y179900D02*
Y553100D01*
X681969Y562031D02*
X690900Y553100D01*
X681969Y562031D02*
Y577290D01*
X682992Y578313D01*
Y651929D01*
X692992D02*
X697992D01*
X687992D02*
X692992D01*
X682992D02*
X687992D01*
X709700Y529900D02*
Y589056D01*
X701453Y597303D02*
X709700Y589056D01*
X701453Y597303D02*
Y606253D01*
X710100Y614900D01*
Y624626D01*
X717800Y579500D02*
Y616926D01*
X710100Y624626D02*
X717800Y616926D01*
X528543Y457874D02*
Y536614D01*
Y221654D02*
Y457874D01*
X726700Y576600D02*
X729200Y574100D01*
X726700Y576600D02*
Y634600D01*
X600600Y543298D02*
Y634500D01*
Y543298D02*
X607283Y536614D01*
Y457874D02*
Y536614D01*
Y379134D02*
Y457874D01*
Y221654D02*
Y300394D01*
Y379134D01*
X720800Y620550D02*
X722300Y619050D01*
X709000Y632350D02*
X720800Y620550D01*
X709625Y632975D02*
X720800Y621800D01*
Y620550D02*
Y621800D01*
Y573500D02*
Y620550D01*
X722300Y577100D02*
Y619050D01*
X718000Y570700D02*
X720800Y573500D01*
X718000Y533000D02*
Y570700D01*
X686024Y497200D02*
Y536614D01*
X686023Y497200D02*
X686024Y497200D01*
X686023Y457874D02*
Y497200D01*
X686024Y221654D02*
Y300394D01*
X686023Y379134D02*
Y457874D01*
Y339700D02*
Y379134D01*
Y339700D02*
X686024Y339700D01*
Y300394D02*
Y339700D01*
X721000Y568100D02*
X725300Y572400D01*
Y630700D01*
X718000Y638000D02*
X725300Y630700D01*
X711800Y638000D02*
X718000D01*
X752486Y536614D02*
X764764D01*
X721000Y568100D02*
X752486Y536614D01*
X764764Y497200D02*
Y536614D01*
X764764Y497200D02*
X764764Y497200D01*
X764764Y457874D02*
Y497200D01*
Y221654D02*
Y300394D01*
Y379134D02*
Y457874D01*
Y300394D02*
Y379134D01*
X732200Y567323D02*
Y594400D01*
Y566800D02*
Y567323D01*
X728827Y627527D02*
X737500Y636200D01*
X728827Y597773D02*
Y627527D01*
Y597773D02*
X732200Y594400D01*
X729700Y564300D02*
X732200Y566800D01*
Y567323D02*
X753177D01*
X783886Y536614D01*
X843504Y261000D02*
Y300394D01*
X843504Y261000D02*
X843504Y261000D01*
X843504Y221654D02*
Y261000D01*
X843504Y300394D02*
Y379134D01*
Y457874D01*
X843504Y497200D02*
Y536614D01*
Y497200D02*
X843504Y497200D01*
Y457874D02*
Y497200D01*
X557541Y665059D02*
X566142D01*
X552915Y669685D02*
X557541Y665059D01*
X523524Y669685D02*
X552915D01*
X856299Y576063D02*
Y605512D01*
X875984Y625197D01*
X828974Y563012D02*
Y568314D01*
X828661Y562700D02*
X828974Y563012D01*
X828661Y557480D02*
Y562700D01*
X692700Y560000D02*
Y587400D01*
X639794Y554406D02*
Y598367D01*
Y554406D02*
X642550Y551650D01*
X650626D01*
X627200Y554600D02*
X633400Y560800D01*
Y631251D01*
X626008Y638643D02*
X633400Y631251D01*
X819000Y615803D02*
X827598Y607205D01*
X819000Y615803D02*
Y656400D01*
X816266Y659134D02*
X819000Y656400D01*
X679627Y659134D02*
X816266D01*
X677992Y657500D02*
X679627Y659134D01*
X677992Y651929D02*
Y657500D01*
X823600Y603206D02*
X827598Y607205D01*
X823600Y576500D02*
Y603206D01*
Y576500D02*
X825000Y575100D01*
X832000D01*
X832963Y576063D01*
X846063D01*
X667300Y605100D02*
Y619600D01*
X605500Y549139D02*
Y617200D01*
Y549139D02*
X612646Y541993D01*
Y462512D02*
Y541993D01*
Y462512D02*
X617283Y457874D01*
X693400Y601000D02*
X695900Y603500D01*
Y619626D01*
X700900Y624626D01*
X704700Y598250D02*
X713597Y589353D01*
Y396708D02*
Y589353D01*
X617283Y300394D02*
X621300Y304410D01*
Y560040D01*
X630400Y569140D01*
Y626500D01*
X697800Y592000D02*
X702300D01*
X690447Y599353D02*
X697800Y592000D01*
X690447Y599353D02*
Y602247D01*
X694500Y606300D01*
Y622500D01*
X696000Y624000D01*
X689069Y604669D02*
X690600Y606200D01*
X689000Y604600D02*
X689069Y604669D01*
Y604800D01*
Y598031D02*
Y604669D01*
Y596669D02*
Y598031D01*
X699400Y587700D01*
X689000Y598100D02*
X689069Y598031D01*
X699400Y587700D02*
X704600D01*
X689000Y598100D02*
Y604600D01*
X690600Y606200D02*
Y633626D01*
X696024Y221654D02*
X700100Y225730D01*
Y546630D01*
X689600Y557130D02*
X700100Y546630D01*
X689600Y557130D02*
Y596138D01*
X689069Y596669D02*
X689600Y596138D01*
X689069Y604800D02*
X690503Y606234D01*
Y633597D01*
X689600Y634500D02*
X690503Y633597D01*
X686300Y574450D02*
Y618450D01*
X687550Y619700D01*
X752992Y647464D02*
Y651929D01*
X746539Y641010D02*
X752992Y647464D01*
X706781Y639100D02*
X708800Y641119D01*
X705000Y637319D02*
X706781Y639100D01*
X698500Y599900D02*
Y610800D01*
X705000Y617300D01*
Y637319D01*
X683347Y572453D02*
X686600Y569200D01*
X683347Y572453D02*
Y575847D01*
X684400Y576900D01*
Y637300D01*
X686200Y639100D01*
X706781D01*
X708800Y641119D02*
X733158D01*
X757992Y643592D02*
Y651929D01*
X743500Y629100D02*
X757992Y643592D01*
X622992Y646992D02*
Y651929D01*
X621400Y645400D02*
X622992Y646992D01*
X621400Y635200D02*
Y645400D01*
X613650Y627450D02*
X621400Y635200D01*
X603750Y627450D02*
X613650D01*
X602500Y626200D02*
X603750Y627450D01*
X602500Y548099D02*
Y626200D01*
Y548099D02*
X611268Y539331D01*
Y364532D02*
Y539331D01*
Y364532D02*
X611300Y364500D01*
X672992Y593608D02*
Y651929D01*
Y593608D02*
X679000Y587600D01*
Y378500D02*
Y587600D01*
D15*
X701181Y573622D02*
D03*
D16*
X509842Y335827D02*
D03*
X848425Y174410D02*
D03*
X872047Y335827D02*
D03*
X879528Y551181D02*
D03*
X769685Y174410D02*
D03*
X879528Y560630D02*
D03*
X533464Y174410D02*
D03*
X612205D02*
D03*
X690945D02*
D03*
X509842Y355512D02*
D03*
X872047D02*
D03*
X876378Y604173D02*
D03*
Y614173D02*
D03*
X538543Y221654D02*
D03*
X528543D02*
D03*
X617283D02*
D03*
X607283D02*
D03*
X696024D02*
D03*
X686024D02*
D03*
X774764D02*
D03*
X764764D02*
D03*
X853504D02*
D03*
X843504D02*
D03*
X538543Y300394D02*
D03*
X528543D02*
D03*
X617283D02*
D03*
X607283D02*
D03*
X696024D02*
D03*
X686024D02*
D03*
X774764D02*
D03*
X764764D02*
D03*
X853504D02*
D03*
X843504D02*
D03*
X538543Y379134D02*
D03*
X528543D02*
D03*
X617283D02*
D03*
X607283D02*
D03*
X696023D02*
D03*
X686023D02*
D03*
X774764D02*
D03*
X764764D02*
D03*
X853504D02*
D03*
X843504D02*
D03*
X538543Y457874D02*
D03*
X528543D02*
D03*
X617283D02*
D03*
X607283D02*
D03*
X696023D02*
D03*
X686023D02*
D03*
X774764D02*
D03*
X764764D02*
D03*
X853504D02*
D03*
X843504D02*
D03*
X875984Y635197D02*
D03*
Y625197D02*
D03*
X576491Y568585D02*
D03*
Y578585D02*
D03*
Y588585D02*
D03*
X538543Y536614D02*
D03*
X528543D02*
D03*
X617283Y536614D02*
D03*
X607283D02*
D03*
X696024D02*
D03*
X686024D02*
D03*
X774764Y536614D02*
D03*
X764764D02*
D03*
X853504D02*
D03*
X843504D02*
D03*
D17*
X526614Y561024D02*
D03*
X536614D02*
D03*
X746457Y573780D02*
D03*
Y563780D02*
D03*
X655118Y548268D02*
D03*
Y558268D02*
D03*
X529370Y583071D02*
D03*
X539370D02*
D03*
X546457Y564803D02*
D03*
Y574803D02*
D03*
X609055Y589528D02*
D03*
Y579528D02*
D03*
X787008Y617165D02*
D03*
Y627165D02*
D03*
X777165Y616772D02*
D03*
Y626772D02*
D03*
X664961Y548268D02*
D03*
Y558268D02*
D03*
X644882Y547874D02*
D03*
Y557874D02*
D03*
D18*
X626008Y638643D02*
D03*
Y598643D02*
D03*
X611441Y638250D02*
D03*
Y598250D02*
D03*
X655148Y598367D02*
D03*
Y638367D02*
D03*
X639794Y598367D02*
D03*
Y638367D02*
D03*
X746539Y601010D02*
D03*
Y641010D02*
D03*
X623307Y583071D02*
D03*
X663307D02*
D03*
X846063Y576063D02*
D03*
Y616063D02*
D03*
X828661Y557480D02*
D03*
X788661D02*
D03*
X733158Y601119D02*
D03*
Y641119D02*
D03*
X828974Y568314D02*
D03*
X788974D02*
D03*
X856299Y576063D02*
D03*
Y616063D02*
D03*
X788661Y579528D02*
D03*
X828661D02*
D03*
D19*
X833465Y646850D02*
D03*
X851969D02*
D03*
X870473D02*
D03*
Y665748D02*
D03*
X851969D02*
D03*
X833465D02*
D03*
D20*
X543858Y599882D02*
D03*
X533858D02*
D03*
X523858D02*
D03*
D21*
X797598Y597205D02*
D03*
Y607205D02*
D03*
Y617205D02*
D03*
Y627205D02*
D03*
X827598Y597205D02*
D03*
Y607205D02*
D03*
Y617205D02*
D03*
X741732Y678740D02*
D03*
D22*
X827598Y627205D02*
D03*
D23*
X639370Y678740D02*
D03*
D24*
X873622Y681496D02*
D03*
D25*
X863622D02*
D03*
X853622D02*
D03*
X843622D02*
D03*
X833622D02*
D03*
D26*
X574000Y639531D02*
D03*
X705433Y545866D02*
D03*
X700197Y558347D02*
D03*
X620200Y564900D02*
D03*
X688100Y642700D02*
D03*
X604600Y644400D02*
D03*
X709700Y529900D02*
D03*
X710100Y624626D02*
D03*
X717800Y579500D02*
D03*
X729200Y574100D02*
D03*
X726700Y634600D02*
D03*
X600600Y634500D02*
D03*
X722300Y577100D02*
D03*
X709000Y632350D02*
D03*
X709625Y632975D02*
D03*
X718000Y533000D02*
D03*
X721000Y568100D02*
D03*
X711800Y638000D02*
D03*
X737500Y636200D02*
D03*
X729700Y564300D02*
D03*
X783886Y536614D02*
D03*
X692700Y560000D02*
D03*
Y587400D02*
D03*
X650626Y551650D02*
D03*
X627200Y554600D02*
D03*
X667300Y605100D02*
D03*
Y619600D02*
D03*
X605500Y617200D02*
D03*
X693400Y601000D02*
D03*
X700900Y624626D02*
D03*
X704700Y598250D02*
D03*
X713597Y396708D02*
D03*
X630400Y626500D02*
D03*
X702300Y592000D02*
D03*
X696000Y624000D02*
D03*
X704600Y587700D02*
D03*
X690600Y633626D02*
D03*
X689600Y634500D02*
D03*
X686300Y574450D02*
D03*
X687550Y619700D02*
D03*
X698500Y599900D02*
D03*
X686600Y569200D02*
D03*
X743500Y629100D02*
D03*
X611300Y364500D02*
D03*
X679000Y378500D02*
D03*
D27*
X705118Y569685D02*
D03*
X701181D02*
D03*
X697244D02*
D03*
Y577559D02*
D03*
X701181D02*
D03*
X705118D02*
D03*
Y573622D02*
D03*
X701181D02*
D03*
X697244D02*
D03*
X695275Y575590D02*
D03*
X699212D02*
D03*
X707086D02*
D03*
X703149D02*
D03*
Y579527D02*
D03*
X707086D02*
D03*
X699212D02*
D03*
X695275D02*
D03*
Y571653D02*
D03*
X699212D02*
D03*
X707086D02*
D03*
X703149D02*
D03*
Y567716D02*
D03*
X707086D02*
D03*
X699212D02*
D03*
X695275D02*
D03*
M02*
