G04 Layer_Color=8150272*
%FSLAX25Y25*%
%MOIN*%
G70*
G01*
G75*
%ADD28C,0.02300*%
%ADD29C,0.06706*%
%ADD30R,0.02769X0.07887*%
%ADD31C,0.06800*%
%ADD32C,0.07887*%
%ADD33R,0.07887X0.07887*%
%ADD35C,0.07493*%
%ADD36C,0.05918*%
%ADD37C,0.05800*%
D28*
X242126Y479528D02*
D03*
D29*
X344488D02*
D03*
D30*
X187008Y486220D02*
D03*
X399606D02*
D03*
D31*
X462598Y482283D02*
D03*
X452756D02*
D03*
X442913D02*
D03*
X433071D02*
D03*
X423228D02*
D03*
X125984Y304921D02*
D03*
Y294921D02*
D03*
Y284921D02*
D03*
X127953Y371890D02*
D03*
Y391890D02*
D03*
Y381890D02*
D03*
X349488Y383858D02*
D03*
X339488D02*
D03*
X319961D02*
D03*
X309961D02*
D03*
X290433D02*
D03*
X280433D02*
D03*
X260906D02*
D03*
X250906D02*
D03*
X231378D02*
D03*
X221378D02*
D03*
X349488Y354331D02*
D03*
X339488D02*
D03*
X319961D02*
D03*
X309961D02*
D03*
X290433D02*
D03*
X280433D02*
D03*
X260906D02*
D03*
X250906D02*
D03*
X231378D02*
D03*
X221378D02*
D03*
X349488Y324803D02*
D03*
X339488D02*
D03*
X319961D02*
D03*
X309961D02*
D03*
X290433D02*
D03*
X280433D02*
D03*
X260906D02*
D03*
X250906D02*
D03*
X231378D02*
D03*
X221378D02*
D03*
X349488Y295276D02*
D03*
X339488D02*
D03*
X319961D02*
D03*
X309961D02*
D03*
X290433D02*
D03*
X280433D02*
D03*
X260906D02*
D03*
X250906D02*
D03*
X231378D02*
D03*
X221378D02*
D03*
X349488Y265748D02*
D03*
X339488D02*
D03*
X319961D02*
D03*
X309961D02*
D03*
X290433D02*
D03*
X280433D02*
D03*
X260906D02*
D03*
X250906D02*
D03*
X231378D02*
D03*
X221378D02*
D03*
D32*
X127953Y471102D02*
D03*
Y461102D02*
D03*
Y451102D02*
D03*
Y441102D02*
D03*
D33*
Y431102D02*
D03*
D35*
X153858Y253937D02*
D03*
X113858D02*
D03*
X115827Y332677D02*
D03*
X155827D02*
D03*
X434613Y425361D02*
D03*
Y385361D02*
D03*
X422802Y425361D02*
D03*
Y385361D02*
D03*
X434613Y317094D02*
D03*
Y277094D02*
D03*
X422802Y317094D02*
D03*
Y277094D02*
D03*
X446424Y385361D02*
D03*
Y425361D02*
D03*
X458235Y277094D02*
D03*
Y317094D02*
D03*
Y385361D02*
D03*
Y425361D02*
D03*
X446424Y277094D02*
D03*
Y317094D02*
D03*
D36*
X143701Y238189D02*
D03*
X153701D02*
D03*
X145669Y346457D02*
D03*
X155669D02*
D03*
D37*
X334900Y260700D02*
D03*
X288900Y474800D02*
D03*
X434400Y270200D02*
D03*
X367400Y334600D02*
D03*
X430200D02*
D03*
X457300Y308200D02*
D03*
X454900Y265600D02*
D03*
X453444Y245400D02*
D03*
X328400Y333400D02*
D03*
X464980Y246720D02*
D03*
X445300Y244000D02*
D03*
X365500Y250100D02*
D03*
X443700Y338900D02*
D03*
X348515Y331615D02*
D03*
X449900Y310600D02*
D03*
X319100Y316300D02*
D03*
X313300Y281100D02*
D03*
X265500Y243300D02*
D03*
X284900Y436000D02*
D03*
X375800Y264800D02*
D03*
X397600Y273500D02*
D03*
X370900Y403500D02*
D03*
X280547D02*
D03*
X434100Y291600D02*
D03*
X361500Y265100D02*
D03*
X289900Y284100D02*
D03*
X344900Y392700D02*
D03*
X393600Y299900D02*
D03*
X467000D02*
D03*
X483600Y231200D02*
D03*
X233500Y407900D02*
D03*
X368200Y354000D02*
D03*
X378131Y282331D02*
D03*
X330900Y325100D02*
D03*
X441400Y252600D02*
D03*
X301100Y256100D02*
D03*
X466900Y237500D02*
D03*
X444900Y265200D02*
D03*
X285900Y235500D02*
D03*
X475400Y241752D02*
D03*
X430400Y252000D02*
D03*
X459700Y326900D02*
D03*
X417900Y457270D02*
D03*
X439460Y324803D02*
D03*
X364900Y471900D02*
D03*
X460630Y374016D02*
D03*
X488189Y488189D02*
D03*
X446000Y351400D02*
D03*
X438000D02*
D03*
X431636Y358900D02*
D03*
X421900Y347400D02*
D03*
X420802Y362900D02*
D03*
X466535Y263779D02*
D03*
M02*
