G04 Layer_Physical_Order=1*
G04 Layer_Color=25308*
%FSLAX25Y25*%
%MOIN*%
G70*
G01*
G75*
%ADD10R,0.03150X0.09843*%
%ADD11O,0.01378X0.05512*%
%ADD12C,0.01000*%
%ADD13C,0.01500*%
%ADD14C,0.05906*%
%ADD15R,0.01969X0.07087*%
%ADD16C,0.06000*%
%ADD17C,0.07087*%
%ADD18R,0.07087X0.07087*%
%ADD19C,0.06693*%
%ADD20C,0.05118*%
%ADD21C,0.05000*%
D10*
X370748Y452717D02*
D03*
X375748D02*
D03*
X380748D02*
D03*
X390748D02*
D03*
X385748D02*
D03*
X360748D02*
D03*
X365748D02*
D03*
X355748D02*
D03*
X350748D02*
D03*
X345748D02*
D03*
X295748D02*
D03*
X300748D02*
D03*
X305748D02*
D03*
X315748D02*
D03*
X310748D02*
D03*
X335748D02*
D03*
X340748D02*
D03*
X330748D02*
D03*
X325748D02*
D03*
X320748D02*
D03*
X245748D02*
D03*
X250748D02*
D03*
X255748D02*
D03*
X265748D02*
D03*
X260748D02*
D03*
X285748D02*
D03*
X290748D02*
D03*
X280748D02*
D03*
X275748D02*
D03*
X270748D02*
D03*
X195748D02*
D03*
X200748D02*
D03*
X205748D02*
D03*
X215748D02*
D03*
X210748D02*
D03*
X235748D02*
D03*
X240748D02*
D03*
X230748D02*
D03*
X225748D02*
D03*
X220748D02*
D03*
D11*
X425853Y345125D02*
D03*
X428412D02*
D03*
X430971D02*
D03*
X433531D02*
D03*
X436090D02*
D03*
X438649D02*
D03*
X441208D02*
D03*
X443767D02*
D03*
X446326D02*
D03*
X448885D02*
D03*
X451444D02*
D03*
X454003D02*
D03*
X456562D02*
D03*
X459121D02*
D03*
X425853Y367172D02*
D03*
X428412D02*
D03*
X430971D02*
D03*
X433531D02*
D03*
X436090D02*
D03*
X438649D02*
D03*
X441208D02*
D03*
X443767D02*
D03*
X446326D02*
D03*
X448885D02*
D03*
X451444D02*
D03*
X454003D02*
D03*
X456562D02*
D03*
X459121D02*
D03*
X425853Y236857D02*
D03*
X428412D02*
D03*
X430971D02*
D03*
X433531D02*
D03*
X436090D02*
D03*
X438649D02*
D03*
X441208D02*
D03*
X443767D02*
D03*
X446326D02*
D03*
X448885D02*
D03*
X451444D02*
D03*
X454003D02*
D03*
X456562D02*
D03*
X459121D02*
D03*
X425853Y258905D02*
D03*
X428412D02*
D03*
X430971D02*
D03*
X433531D02*
D03*
X436090D02*
D03*
X438649D02*
D03*
X441208D02*
D03*
X443767D02*
D03*
X446326D02*
D03*
X448885D02*
D03*
X451444D02*
D03*
X454003D02*
D03*
X456562D02*
D03*
X459121D02*
D03*
D12*
X334900Y260700D02*
Y336500D01*
X439500Y469027D02*
X448173Y477700D01*
X448885Y248000D02*
Y253485D01*
X433531Y337931D02*
X436090Y340490D01*
X440885Y260996D02*
X441208D01*
X459121Y237500D02*
X466900D01*
X439500Y390248D02*
Y469027D01*
X434613Y385361D02*
X439500Y390248D01*
X414802Y377361D02*
X422802Y385361D01*
X414802Y285094D02*
X422802Y277094D01*
X280748Y452717D02*
Y466648D01*
X288900Y474800D01*
X458500Y355400D02*
X465900Y362800D01*
Y478982D01*
X462598Y482283D02*
X465900Y478982D01*
X433531Y258905D02*
Y269331D01*
X434400Y270200D01*
X125984Y294921D02*
X139900Y281005D01*
Y241990D02*
Y281005D01*
Y241990D02*
X143701Y238189D01*
X125984Y294921D02*
X145669Y314606D01*
Y346457D01*
X448885Y319554D02*
Y345125D01*
X446424Y317094D02*
X448885Y319554D01*
X430200Y334600D02*
X433531Y337931D01*
Y345125D01*
X461400Y350300D02*
X467900Y356800D01*
Y484900D01*
X466000Y486800D02*
X467900Y484900D01*
X460000Y486800D02*
X466000D01*
X458000Y484800D02*
X460000Y486800D01*
X458000Y425596D02*
Y484800D01*
Y425596D02*
X458235Y425361D01*
X436090Y236857D02*
Y240610D01*
X431671Y241700D02*
X436090Y240610D01*
X427071Y246300D02*
X431671Y241700D01*
X399600Y246300D02*
X427071D01*
X382700Y263200D02*
X399600Y246300D01*
X382700Y263200D02*
Y285400D01*
X369400Y298700D02*
X382700Y285400D01*
X369400Y298700D02*
Y332600D01*
X367400Y334600D02*
X369400Y332600D01*
X436090Y340490D02*
Y345125D01*
X456562Y372000D02*
X458624Y374062D01*
X456562Y367172D02*
Y372000D01*
X457300Y308200D02*
Y310200D01*
X451444Y316056D02*
X457300Y310200D01*
X451444Y316056D02*
Y345125D01*
X344988Y349831D02*
X349488Y354331D01*
X336969Y349831D02*
X344988D01*
X331300Y355500D02*
X336969Y349831D01*
X331300Y355500D02*
Y396100D01*
X329800Y397600D02*
X331300Y396100D01*
X320000Y397600D02*
X329800D01*
X315400Y393000D02*
X320000Y397600D01*
X315400Y348000D02*
Y393000D01*
Y348000D02*
X320000Y343400D01*
X328000D01*
X334900Y336500D01*
X454900Y265600D02*
X456562Y263938D01*
Y258905D02*
Y263938D01*
X451444Y243400D02*
X453444Y245400D01*
X451444Y236857D02*
Y243400D01*
X319961Y265748D02*
X326900Y272687D01*
Y331900D01*
X328400Y333400D01*
X454021Y358900D02*
X459121Y364000D01*
Y367172D01*
Y256000D02*
Y258905D01*
Y256000D02*
X464980Y250141D01*
Y246720D02*
Y250141D01*
X446326Y236857D02*
Y242974D01*
X445300Y244000D02*
X446326Y242974D01*
X365500Y250100D02*
Y328493D01*
X346162Y347831D02*
X365500Y328493D01*
X332969Y347831D02*
X346162D01*
X319961Y360839D02*
X332969Y347831D01*
X319961Y360839D02*
Y383858D01*
X443767Y338967D02*
Y345125D01*
X443700Y338900D02*
X443767Y338967D01*
X344000Y327100D02*
X348515Y331615D01*
X344000Y257865D02*
Y327100D01*
X337434Y251299D02*
X344000Y257865D01*
X297701Y251299D02*
X337434D01*
X297000Y252000D02*
X297701Y251299D01*
X297000Y252000D02*
Y288709D01*
X290433Y295276D02*
X297000Y288709D01*
X456562Y336338D02*
Y345125D01*
Y336338D02*
X463700Y329200D01*
Y307900D02*
Y329200D01*
X460000Y304200D02*
X463700Y307900D01*
X454000Y304200D02*
X460000D01*
X452300Y305900D02*
X454000Y304200D01*
X452300Y305900D02*
Y308200D01*
X449900Y310600D02*
X452300Y308200D01*
X315000Y312200D02*
X319100Y316300D01*
X315000Y282800D02*
Y312200D01*
X313300Y281100D02*
X315000Y282800D01*
X441208Y345125D02*
Y348192D01*
X451444Y258905D02*
Y262100D01*
X450900Y262644D02*
X451444Y262100D01*
X450900Y262644D02*
Y268500D01*
X452000Y269600D01*
X457300D01*
X265500Y243300D02*
Y320209D01*
X260906Y324803D02*
X265500Y320209D01*
X260906Y354331D02*
Y372800D01*
X284900Y396794D01*
Y436000D01*
X458939Y230961D02*
X472061D01*
X456562Y233338D02*
X458939Y230961D01*
X456562Y233338D02*
Y236857D01*
X441208Y233508D02*
Y236857D01*
X440100Y232400D02*
X441208Y233508D01*
X378900Y232400D02*
X440100D01*
X375800Y235500D02*
X378900Y232400D01*
X375800Y235500D02*
Y264800D01*
X397600Y273500D02*
Y376800D01*
X370900Y403500D02*
X397600Y376800D01*
X260906Y383858D02*
X280547Y403500D01*
X438649Y334252D02*
Y345125D01*
X429700Y325303D02*
X438649Y334252D01*
X429700Y296000D02*
Y325303D01*
Y296000D02*
X434100Y291600D01*
X343000Y246600D02*
X361500Y265100D01*
X298000Y246600D02*
X343000D01*
X295000Y249600D02*
X298000Y246600D01*
X295000Y249600D02*
Y279000D01*
X289900Y284100D02*
X295000Y279000D01*
X344900Y382000D02*
Y392700D01*
Y382000D02*
X347600Y379300D01*
X350100D01*
X393600Y335800D01*
Y299900D02*
Y335800D01*
X462000Y241500D02*
X468200D01*
X460700Y242800D02*
X462000Y241500D01*
X460700Y242800D02*
Y249400D01*
X454003Y256097D02*
X460700Y249400D01*
X454003Y256097D02*
Y258905D01*
Y232000D02*
Y236857D01*
Y232000D02*
X457103Y228900D01*
X481300D01*
X483600Y231200D01*
X226800Y401200D02*
X233500Y407900D01*
X226800Y358909D02*
Y401200D01*
Y358909D02*
X231378Y354331D01*
X428412Y341215D02*
Y345125D01*
X422802Y335604D02*
X428412Y341215D01*
X422802Y317094D02*
Y335604D01*
X309961Y295276D02*
Y324803D01*
X438649Y236857D02*
Y244700D01*
X437649Y245700D02*
X438649Y244700D01*
X430500Y245700D02*
X437649D01*
X426100Y250100D02*
X430500Y245700D01*
X399443Y250100D02*
X426100D01*
X384700Y264843D02*
X399443Y250100D01*
X384700Y264843D02*
Y300800D01*
X371450Y314050D02*
X384700Y300800D01*
X371450Y314050D02*
Y350750D01*
X368200Y354000D02*
X371450Y350750D01*
X425853Y236857D02*
Y240000D01*
X424653Y241200D02*
X425853Y240000D01*
X396379Y241200D02*
X424653D01*
X380131Y257448D02*
X396379Y241200D01*
X380131Y257448D02*
Y280331D01*
X378131Y282331D02*
X380131Y280331D01*
X446326Y345125D02*
Y351074D01*
X330900Y325100D02*
X332400Y326600D01*
Y336000D01*
X331000Y337400D02*
X332400Y336000D01*
X325800Y337400D02*
X331000D01*
X324400Y336000D02*
X325800Y337400D01*
X324400Y329400D02*
Y336000D01*
Y329400D02*
X324500Y329300D01*
Y299815D02*
Y329300D01*
X319961Y295276D02*
X324500Y299815D01*
X443767Y254967D02*
Y258905D01*
X441400Y252600D02*
X443767Y254967D01*
X425853Y367000D02*
Y367172D01*
X290433Y354331D02*
X297369D01*
X301100Y350600D01*
Y256100D02*
Y350600D01*
X459121Y236857D02*
Y237500D01*
X446326Y258905D02*
Y263774D01*
X444900Y265200D02*
X446326Y263774D01*
X285900Y235500D02*
Y320270D01*
X290433Y324803D01*
X459121Y340755D02*
Y345125D01*
X430400Y252000D02*
X430971Y252571D01*
Y258905D01*
X448885Y253485D02*
Y258905D01*
X444000Y248600D02*
X448885Y253485D01*
X439490Y248600D02*
X444000D01*
X436090Y252000D02*
X439490Y248600D01*
X436090Y252000D02*
Y258905D01*
X454003Y332597D02*
Y345125D01*
Y332597D02*
X459700Y326900D01*
X443767Y232000D02*
Y236857D01*
X441467Y229700D02*
X443767Y232000D01*
X283800Y229700D02*
X441467D01*
X275900Y237600D02*
X283800Y229700D01*
X275900Y237600D02*
Y313700D01*
X285000Y322800D01*
Y378425D01*
X290433Y383858D01*
X448885Y236857D02*
Y240585D01*
X449300Y241000D01*
Y247585D01*
X448885Y248000D02*
X449300Y247585D01*
X428412Y256000D02*
Y258905D01*
X426325Y253912D02*
X428412Y256000D01*
X424020Y253912D02*
X426325D01*
X412802Y265130D02*
X424020Y253912D01*
X412802Y479586D02*
X420000Y486783D01*
X426000D01*
X428100Y484683D01*
Y480000D02*
Y484683D01*
Y480000D02*
X430400Y477700D01*
X448173D01*
X452756Y482283D01*
X417900Y390263D02*
X422802Y385361D01*
X417900Y390263D02*
Y457270D01*
X441208Y258905D02*
Y260996D01*
X440885D02*
Y266823D01*
X439460Y268248D02*
X440885Y266823D01*
X439460Y268248D02*
Y324803D01*
X430400Y272880D02*
X434613Y277094D01*
X430400Y265388D02*
Y272880D01*
X428412Y263400D02*
X430400Y265388D01*
X428412Y258905D02*
Y263400D01*
X448885Y258905D02*
Y261200D01*
X448900Y261215D01*
Y268000D01*
X447170Y269730D02*
X448900Y268000D01*
X443255Y269730D02*
X447170D01*
X441460Y271525D02*
X443255Y269730D01*
X441460Y271525D02*
Y312129D01*
X446424Y317094D01*
X309961Y285745D02*
Y295276D01*
X309300Y285085D02*
X309961Y285745D01*
X309300Y277761D02*
Y285085D01*
Y277761D02*
X309961Y277100D01*
Y265748D02*
Y277100D01*
X448885Y367172D02*
Y378085D01*
X451300Y380500D01*
Y418426D01*
X458235Y425361D01*
X355748Y452717D02*
Y462748D01*
X364900Y471900D01*
X428412Y367172D02*
Y379160D01*
X434613Y385361D01*
X390748Y452717D02*
Y463222D01*
X416310Y488783D01*
X428000D01*
X430428Y486356D01*
Y484927D02*
Y486356D01*
Y484927D02*
X433071Y482283D01*
X360748Y452717D02*
Y459100D01*
X379748Y478100D01*
X402700D01*
X415500Y490900D01*
X444139D01*
X452756Y482283D01*
X422802Y317094D02*
X427700Y312196D01*
Y267100D02*
Y312196D01*
X425853Y265253D02*
X427700Y267100D01*
X425853Y258905D02*
Y265253D01*
X422802Y425361D02*
Y443400D01*
X423228Y443826D01*
Y482283D01*
X123075Y369051D02*
X145669Y346457D01*
X123075Y369051D02*
Y426224D01*
X127953Y431102D01*
Y381890D02*
Y382436D01*
X133000Y387483D01*
Y466055D01*
X127953Y471102D02*
X133000Y466055D01*
X127953Y389056D02*
Y391890D01*
X125075Y386178D02*
X127953Y389056D01*
X125075Y380000D02*
Y386178D01*
Y380000D02*
X155669Y349406D01*
Y346457D02*
Y349406D01*
X113858Y253937D02*
Y272795D01*
X125984Y284921D01*
X115827Y315079D02*
Y332677D01*
Y315079D02*
X125984Y304921D01*
X425853Y367172D02*
Y380500D01*
X427700Y382347D01*
Y420463D01*
X422802Y425361D02*
X427700Y420463D01*
X447785Y362900D02*
X448885Y364000D01*
Y367172D01*
X365748Y452717D02*
X370748D01*
X375748D01*
X385748D02*
X390748D01*
X375748D02*
X380748D01*
X385748D01*
X433531Y345125D02*
X436090D01*
X428412Y236857D02*
X430971D01*
X433531D01*
X436090D01*
X155669Y339558D02*
Y346457D01*
Y339558D02*
X155827Y339400D01*
Y332677D02*
Y339400D01*
X325748Y452717D02*
X330748D01*
X345748D02*
X350748D01*
X340748D02*
X345748D01*
X330748D02*
X335748D01*
X340748D01*
X280433Y324803D02*
Y354331D01*
X153858Y246057D02*
Y253937D01*
X153701Y245900D02*
X153858Y246057D01*
X153701Y238189D02*
Y245900D01*
X280433Y354331D02*
Y383858D01*
X221378Y354331D02*
Y383858D01*
Y324803D02*
Y354331D01*
Y265748D02*
Y295276D01*
Y324803D01*
X340748Y418860D02*
Y452717D01*
X339488Y417600D02*
X340748Y418860D01*
X339488Y383858D02*
Y417600D01*
Y354331D02*
Y383858D01*
X309961Y354331D02*
Y383858D01*
X339488Y265748D02*
Y295276D01*
Y324803D01*
X309961D02*
Y354331D01*
X458624Y374062D02*
X458670Y374016D01*
X460630D01*
X472061Y230961D02*
X488189Y247089D01*
Y488189D01*
X459121Y340755D02*
X475400Y324476D01*
Y241752D02*
Y324476D01*
X467000Y299900D02*
X470700Y296200D01*
X468200Y241500D02*
X470700Y244000D01*
Y296200D01*
X457300Y269600D02*
X465089Y261811D01*
X436090Y364000D02*
Y367172D01*
Y364000D02*
X437190Y362900D01*
X447785D01*
X412802Y265130D02*
Y479586D01*
X414802Y285094D02*
Y377361D01*
X416802Y359998D02*
Y364900D01*
X451185Y350300D02*
X461400D01*
X448885Y345125D02*
Y348000D01*
X451185Y350300D01*
X446000Y351400D02*
X446326Y351074D01*
X418902Y367000D02*
X425853D01*
X416802Y364900D02*
X418902Y367000D01*
X433531Y367172D02*
Y372468D01*
X446424Y385361D01*
X438000Y351400D02*
X441208Y348192D01*
X430971Y364000D02*
Y367172D01*
X431636Y358900D02*
X454021D01*
X435636Y355400D02*
X458500D01*
X425853Y345125D02*
Y347800D01*
X422300D02*
X425853D01*
X430971Y350735D02*
X435636Y355400D01*
X430971Y345125D02*
Y350735D01*
X428412Y345125D02*
Y348388D01*
X416802Y359998D02*
X428412Y348388D01*
X421900Y347400D02*
X422300Y347800D01*
X429871Y362900D02*
X430971Y364000D01*
X420802Y362900D02*
X429871D01*
X465089Y261811D02*
X466535Y263258D01*
Y263779D01*
X493701Y226378D02*
X493701Y226378D01*
X100000Y493701D02*
X100000Y493701D01*
D13*
X242126Y479528D02*
D03*
D14*
X344488D02*
D03*
D15*
X187008Y486220D02*
D03*
X399606D02*
D03*
D16*
X462598Y482283D02*
D03*
X452756D02*
D03*
X442913D02*
D03*
X433071D02*
D03*
X423228D02*
D03*
X125984Y304921D02*
D03*
Y294921D02*
D03*
Y284921D02*
D03*
X349488Y383858D02*
D03*
X339488D02*
D03*
X319961D02*
D03*
X309961D02*
D03*
X290433D02*
D03*
X280433D02*
D03*
X260906D02*
D03*
X250906D02*
D03*
X231378D02*
D03*
X221378D02*
D03*
X349488Y354331D02*
D03*
X339488D02*
D03*
X319961D02*
D03*
X309961D02*
D03*
X290433D02*
D03*
X280433D02*
D03*
X260906D02*
D03*
X250906D02*
D03*
X231378D02*
D03*
X221378D02*
D03*
X349488Y324803D02*
D03*
X339488D02*
D03*
X319961D02*
D03*
X309961D02*
D03*
X290433D02*
D03*
X280433D02*
D03*
X260906D02*
D03*
X250906D02*
D03*
X231378D02*
D03*
X221378D02*
D03*
X349488Y295276D02*
D03*
X339488D02*
D03*
X319961D02*
D03*
X309961D02*
D03*
X290433D02*
D03*
X280433D02*
D03*
X260906D02*
D03*
X250906D02*
D03*
X231378D02*
D03*
X221378D02*
D03*
X349488Y265748D02*
D03*
X339488D02*
D03*
X319961D02*
D03*
X309961D02*
D03*
X290433D02*
D03*
X280433D02*
D03*
X260906D02*
D03*
X250906D02*
D03*
X231378D02*
D03*
X221378D02*
D03*
D17*
X127953Y471102D02*
D03*
Y461102D02*
D03*
Y451102D02*
D03*
Y441102D02*
D03*
D18*
Y431102D02*
D03*
D19*
X153858Y253937D02*
D03*
X113858D02*
D03*
X115827Y332677D02*
D03*
X155827D02*
D03*
X434613Y425361D02*
D03*
Y385361D02*
D03*
X422802Y425361D02*
D03*
Y385361D02*
D03*
X434613Y317094D02*
D03*
Y277094D02*
D03*
X422802Y317094D02*
D03*
Y277094D02*
D03*
X446424Y385361D02*
D03*
Y425361D02*
D03*
X458235Y277094D02*
D03*
Y317094D02*
D03*
Y385361D02*
D03*
Y425361D02*
D03*
X446424Y277094D02*
D03*
Y317094D02*
D03*
D20*
X143701Y238189D02*
D03*
X153701D02*
D03*
X145669Y346457D02*
D03*
X155669D02*
D03*
D21*
X334900Y260700D02*
D03*
X288900Y474800D02*
D03*
X434400Y270200D02*
D03*
X367400Y334600D02*
D03*
X430200D02*
D03*
X457300Y308200D02*
D03*
X454900Y265600D02*
D03*
X453444Y245400D02*
D03*
X328400Y333400D02*
D03*
X464980Y246720D02*
D03*
X445300Y244000D02*
D03*
X365500Y250100D02*
D03*
X443700Y338900D02*
D03*
X348515Y331615D02*
D03*
X449900Y310600D02*
D03*
X319100Y316300D02*
D03*
X313300Y281100D02*
D03*
X265500Y243300D02*
D03*
X284900Y436000D02*
D03*
X375800Y264800D02*
D03*
X397600Y273500D02*
D03*
X370900Y403500D02*
D03*
X280547D02*
D03*
X434100Y291600D02*
D03*
X361500Y265100D02*
D03*
X289900Y284100D02*
D03*
X344900Y392700D02*
D03*
X393600Y299900D02*
D03*
X467000D02*
D03*
X483600Y231200D02*
D03*
X233500Y407900D02*
D03*
X368200Y354000D02*
D03*
X378131Y282331D02*
D03*
X330900Y325100D02*
D03*
X441400Y252600D02*
D03*
X301100Y256100D02*
D03*
X466900Y237500D02*
D03*
X444900Y265200D02*
D03*
X285900Y235500D02*
D03*
X475400Y241752D02*
D03*
X430400Y252000D02*
D03*
X459700Y326900D02*
D03*
X417900Y457270D02*
D03*
X439460Y324803D02*
D03*
X364900Y471900D02*
D03*
X460630Y374016D02*
D03*
X488189Y488189D02*
D03*
X446000Y351400D02*
D03*
X438000D02*
D03*
X431636Y358900D02*
D03*
X421900Y347400D02*
D03*
X420802Y362900D02*
D03*
X466535Y263779D02*
D03*
M02*
